<svg version="1.1" id="Calque_1" xmlns="http://www.w3.org/2000/svg" xmlns:xlink="http://www.w3.org/1999/xlink" x="0px" y="0px"
	 viewBox="0 0 255.246 255.246" enable-background="new 0 0 255.246 255.246"
	 xml:space="preserve">
<g>
	<circle fill="#005AA1" cx="127.374" cy="127.94" r="127.623"/>
	<path fill="#FFFFFF" d="M162.085,93.49c-4.436-0.32-8.956-0.108-13.345,0.359c-4.4,0.498-8.715,1.398-12.852,2.66
		c-4.132,1.281-8.09,2.94-11.732,5.049c-3.651,2.089-6.979,4.616-9.932,7.482c-2.94,2.883-5.495,6.118-7.653,9.615
		c-1.082,1.748-2.043,3.572-2.951,5.426l-0.656,1.405c-0.103,0.268-0.46,1.042-0.58,1.392c-0.278,0.747-0.612,1.711-0.864,2.612
		c-1.026,3.671-1.491,7.568-1.269,11.316c0.099,1.875,0.388,3.707,0.83,5.439c0.425,1.74,1.038,3.371,1.81,4.834
		c0.759,1.476,1.708,2.749,2.768,3.837c0.539,0.537,1.094,1.041,1.697,1.482c0.316,0.234,0.538,0.402,1.045,0.732
		c0.277,0.171,0.644,0.4,1.015,0.607c2.943,1.675,6.058,2.444,8.943,2.274c2.896-0.154,5.769-1.273,8.55-3.292
		c2.784-1.994,5.423-4.771,7.788-7.957c2.41-3.159,4.534-6.732,6.537-10.449c1.979-3.729,3.801-7.641,5.49-11.646
		c1.702-4.006,3.253-8.119,4.75-12.279c1.475-4.168,2.879-8.392,4.189-12.662l0.19-0.62c0.923-3.007,4.109-4.697,7.116-3.774
		c2.909,0.893,4.582,3.917,3.854,6.835c-1.366,5.432-2.648,10.876-3.775,16.333c-1.12,5.451-2.071,10.929-2.594,16.381
		c-0.533,5.418-0.749,10.947,0.386,15.836c0.56,2.435,1.538,4.584,3.041,6.213c0.753,0.819,1.65,1.539,2.701,2.156
		c0.521,0.313,1.075,0.606,1.662,0.886l0.399,0.19l0.485,0.215c0.336,0.15,0.554,0.222,0.836,0.341
		c2.307,0.864,4.725,1.229,7.088,0.888c2.36-0.322,4.661-1.276,6.755-2.687c4.192-2.862,7.542-7.225,10.201-11.909
		c2.681-4.708,4.72-9.839,6.3-15.089l0.567-1.979l0.526-2.003c0.346-1.353,0.624-2.621,0.883-3.981
		c0.514-2.678,0.896-5.372,1.132-8.064c1.014-10.75-0.699-21.614-5.611-30.531c-2.457-4.452-5.637-8.419-9.387-11.806
		c-1.85-1.717-3.911-3.223-5.999-4.67c-1.091-0.675-2.128-1.405-3.255-2.031l-0.83-0.486l-0.414-0.243l-0.207-0.122
		c-0.133-0.079,0.065,0.039,0.001,0.003l-0.117-0.062l-1.874-0.999c-9.399-4.919-19.436-8.413-29.649-9.942
		c-5.106-0.762-10.255-1.032-15.354-0.786c-5.094,0.287-10.132,1.089-15.002,2.405c-9.716,2.697-18.768,7.479-26.071,14.065
		c-0.924,0.809-1.79,1.678-2.661,2.537l-1.261,1.331l-0.316,0.331c0.196-0.214,0.004-0.002,0.025-0.024l-0.087,0.1l-0.175,0.2
		l-0.699,0.798l-1.408,1.588c-0.458,0.522-0.801,0.972-1.208,1.459l-1.18,1.433L79.5,83.989c-3.13,4.127-5.95,8.475-8.43,12.987
		c-4.922,9.044-8.353,18.829-9.808,28.831c-0.743,4.995-0.978,10.049-0.593,15.044c0.336,4.999,1.239,9.95,2.721,14.745
		c2.906,9.635,8.181,18.509,15.204,26.316c3.473,3.933,7.316,7.522,11.457,10.736c4.134,3.221,8.595,6.044,13.336,8.324
		c4.743,2.269,9.729,4.079,14.89,5.276c5.162,1.184,10.488,1.708,15.822,1.563c5.335-0.154,10.665-1.118,15.747-2.929
		c5.061-1.843,9.853-4.627,13.851-8.478l0.005-0.004c0.339-0.327,0.88-0.317,1.206,0.022c0.289,0.3,0.314,0.755,0.084,1.083
		c-3.355,4.778-8.023,8.682-13.244,11.533c-5.22,2.899-11.017,4.714-16.931,5.723c-5.927,1.033-12.008,1.068-18.012,0.436
		c-3.002-0.334-5.989-0.846-8.942-1.528c-2.95-0.694-5.848-1.603-8.7-2.643c-5.701-2.092-11.164-4.843-16.305-8.102
		c-5.135-3.273-9.903-7.108-14.294-11.313l-1.668-1.656l-1.498-1.545c-1.114-1.207-2.075-2.313-3.119-3.481
		c-0.995-1.181-1.943-2.406-2.916-3.614c-0.926-1.244-1.822-2.518-2.721-3.789c-3.471-5.175-6.367-10.801-8.546-16.715
		c-2.164-5.92-3.623-12.112-4.356-18.379c-0.717-6.271-0.661-12.604,0.024-18.832c0.662-6.236,2.069-12.35,3.952-18.269
		c0.453-1.488,1.014-2.933,1.521-4.4c0.544-1.452,1.137-2.882,1.725-4.315c0.645-1.405,1.271-2.82,1.941-4.212
		c0.705-1.373,1.369-2.77,2.115-4.119c2.917-5.436,6.317-10.586,10.109-15.411l1.424-1.811l1.541-1.825
		c0.507-0.591,1.047-1.25,1.529-1.783l1.43-1.568l0.72-0.779l0.474-0.513l0.425-0.427l1.707-1.704c1.169-1.1,2.34-2.2,3.569-3.225
		c2.426-2.096,5.023-3.961,7.662-5.746c2.694-1.696,5.43-3.324,8.289-4.691c5.673-2.83,11.678-4.879,17.78-6.329
		c6.118-1.393,12.355-2.119,18.571-2.21c6.217-0.049,12.406,0.531,18.451,1.695c12.114,2.316,23.504,7.169,33.665,13.595
		c10.368,6.25,19.758,15.845,24.586,27.428c2.453,5.754,3.838,11.851,4.357,17.897c0.261,3.027,0.271,6.049,0.117,9.038
		c-0.146,2.99-0.454,5.952-0.93,8.874c-0.473,2.922-1.101,5.803-1.863,8.638c-0.38,1.396-0.805,2.869-1.227,4.239l-0.321,1.012
		l-0.345,1.059l-0.718,2.066c-1.972,5.49-4.363,10.843-7.396,15.912c-1.516,2.534-3.242,4.965-5.183,7.268
		c-1.953,2.288-4.172,4.432-6.783,6.174c-2.588,1.75-5.61,3.107-8.867,3.581c-3.25,0.482-6.604,0.083-9.624-0.939
		c-0.377-0.138-0.829-0.293-1.144-0.423l-0.492-0.197l-0.567-0.246c-0.701-0.306-1.413-0.649-2.118-1.04
		c-1.405-0.78-2.828-1.729-4.054-2.937c-1.232-1.197-2.264-2.598-3.074-4.059c-0.802-1.468-1.391-2.984-1.881-4.494
		c-0.946-3.03-1.403-6.058-1.689-9.032c-0.299-2.979-0.399-5.931-0.39-8.856c0.125-11.697,1.301-23.146,2.847-34.511l11.16,2.441
		c-0.852,4.556-1.8,9.112-2.941,13.647c-1.116,4.542-2.437,9.056-3.938,13.555c-1.544,4.484-3.258,8.958-5.374,13.342
		c-2.068,4.402-4.545,8.705-7.534,12.858c-3.024,4.112-6.633,8.099-11.281,11.36c-2.329,1.611-4.921,3.027-7.757,4.054
		c-2.826,1.038-5.9,1.648-8.984,1.751c-3.088,0.112-6.166-0.328-9.03-1.172c-2.87-0.843-5.535-2.076-7.974-3.572
		c-0.607-0.371-1.194-0.759-1.86-1.222c-0.437-0.303-1.122-0.819-1.697-1.288c-1.19-0.953-2.293-2.013-3.294-3.146
		c-1.997-2.271-3.62-4.801-4.813-7.43c-2.426-5.265-3.333-10.794-3.286-16.117c0.043-5.337,0.996-10.551,2.844-15.497
		c0.468-1.253,0.958-2.409,1.597-3.74c0.332-0.693,0.482-0.935,0.871-1.691l0.915-1.619c1.245-2.146,2.637-4.215,4.129-6.211
		c2.984-3.992,6.477-7.637,10.404-10.709c3.907-3.096,8.241-5.595,12.751-7.497c4.517-1.898,9.225-3.174,13.952-3.901
		c4.727-0.747,9.483-0.898,14.164-0.644c2.342,0.12,4.669,0.364,6.97,0.746c2.306,0.379,4.566,0.829,6.831,1.521
		c0.451,0.138,0.705,0.615,0.566,1.066c-0.118,0.388-0.488,0.63-0.877,0.602L162.085,93.49z"/>
</g>
<g>
	<circle fill="#005AA1" cx="127.623" cy="127.622" r="127.623"/>
	<path fill="#FFFFFF" d="M162.334,93.171c-4.436-0.32-8.956-0.108-13.345,0.359c-4.4,0.498-8.715,1.398-12.852,2.66
		c-4.132,1.281-8.091,2.94-11.732,5.049c-3.651,2.089-6.979,4.616-9.932,7.482c-2.94,2.883-5.495,6.118-7.653,9.615
		c-1.082,1.748-2.043,3.572-2.951,5.426l-0.656,1.405c-0.103,0.268-0.46,1.042-0.58,1.392c-0.278,0.747-0.612,1.711-0.864,2.612
		c-1.026,3.671-1.491,7.568-1.269,11.316c0.099,1.875,0.388,3.707,0.83,5.439c0.425,1.74,1.038,3.371,1.81,4.834
		c0.759,1.476,1.708,2.749,2.768,3.837c0.539,0.537,1.094,1.041,1.697,1.482c0.316,0.234,0.538,0.402,1.045,0.732
		c0.277,0.171,0.644,0.4,1.015,0.607c2.943,1.675,6.058,2.444,8.943,2.274c2.896-0.154,5.769-1.273,8.55-3.292
		c2.785-1.994,5.423-4.771,7.789-7.957c2.41-3.159,4.534-6.732,6.537-10.449c1.979-3.729,3.801-7.641,5.49-11.646
		c1.702-4.006,3.253-8.119,4.75-12.279c1.475-4.168,2.879-8.392,4.189-12.662l0.19-0.62c0.923-3.007,4.109-4.697,7.116-3.774
		c2.909,0.893,4.582,3.917,3.854,6.835c-1.366,5.432-2.648,10.876-3.775,16.333c-1.12,5.451-2.071,10.929-2.594,16.381
		c-0.533,5.418-0.749,10.947,0.386,15.836c0.56,2.435,1.538,4.584,3.041,6.213c0.753,0.819,1.65,1.539,2.701,2.156
		c0.521,0.313,1.075,0.606,1.662,0.886l0.399,0.19l0.485,0.215c0.336,0.15,0.554,0.222,0.836,0.341
		c2.307,0.864,4.725,1.229,7.088,0.888c2.36-0.322,4.661-1.276,6.755-2.687c4.192-2.862,7.542-7.225,10.201-11.909
		c2.681-4.708,4.72-9.839,6.3-15.089l0.567-1.979l0.526-2.003c0.346-1.353,0.624-2.621,0.883-3.981
		c0.514-2.678,0.896-5.372,1.132-8.064c1.014-10.75-0.699-21.614-5.611-30.531c-2.457-4.452-5.637-8.419-9.387-11.806
		c-1.85-1.717-3.911-3.223-5.999-4.67c-1.091-0.675-2.128-1.405-3.255-2.031l-0.83-0.486l-0.414-0.243l-0.207-0.122
		c-0.133-0.079,0.065,0.039,0.001,0.003l-0.117-0.062l-1.874-0.999c-9.399-4.919-19.436-8.413-29.649-9.942
		c-5.106-0.762-10.255-1.032-15.354-0.786c-5.095,0.287-10.132,1.089-15.003,2.405c-9.716,2.697-18.768,7.479-26.071,14.065
		c-0.924,0.809-1.79,1.678-2.661,2.537l-1.261,1.331l-0.316,0.331c0.196-0.214,0.004-0.002,0.025-0.024l-0.087,0.1l-0.175,0.2
		l-0.699,0.798l-1.408,1.588c-0.458,0.522-0.801,0.972-1.208,1.459l-1.18,1.433l-1.178,1.543c-3.13,4.127-5.95,8.475-8.43,12.987
		c-4.922,9.044-8.353,18.829-9.808,28.831c-0.743,4.995-0.978,10.049-0.593,15.044c0.336,4.999,1.239,9.95,2.721,14.745
		c2.906,9.635,8.181,18.509,15.204,26.316c3.473,3.933,7.316,7.522,11.457,10.736c4.134,3.221,8.595,6.044,13.336,8.324
		c4.743,2.269,9.729,4.079,14.89,5.276c5.162,1.184,10.488,1.708,15.822,1.563c5.335-0.154,10.665-1.118,15.747-2.929
		c5.061-1.843,9.853-4.627,13.851-8.478l0.005-0.004c0.339-0.327,0.88-0.317,1.206,0.022c0.289,0.3,0.314,0.755,0.084,1.083
		c-3.355,4.778-8.023,8.682-13.244,11.533c-5.22,2.899-11.017,4.714-16.931,5.723c-5.927,1.033-12.008,1.068-18.013,0.436
		c-3.002-0.334-5.989-0.846-8.942-1.528c-2.95-0.694-5.848-1.603-8.7-2.643c-5.701-2.092-11.164-4.843-16.305-8.102
		c-5.135-3.273-9.903-7.108-14.294-11.313l-1.668-1.656l-1.498-1.545c-1.114-1.207-2.075-2.313-3.119-3.481
		c-0.995-1.181-1.943-2.406-2.916-3.614c-0.926-1.244-1.822-2.518-2.721-3.789c-3.471-5.175-6.367-10.801-8.546-16.715
		c-2.164-5.92-3.623-12.112-4.356-18.379c-0.717-6.271-0.661-12.604,0.024-18.832c0.662-6.236,2.069-12.35,3.952-18.269
		c0.453-1.488,1.014-2.933,1.521-4.4c0.544-1.452,1.137-2.882,1.725-4.315c0.645-1.405,1.271-2.82,1.941-4.212
		c0.705-1.373,1.369-2.77,2.115-4.119c2.917-5.436,6.317-10.586,10.109-15.411l1.424-1.811l1.541-1.825
		c0.507-0.591,1.047-1.25,1.529-1.783l1.43-1.568l0.72-0.779l0.474-0.513l0.425-0.427l1.707-1.704c1.169-1.1,2.34-2.2,3.569-3.225
		c2.426-2.096,5.023-3.961,7.662-5.746c2.694-1.696,5.43-3.324,8.289-4.691c5.673-2.83,11.678-4.879,17.78-6.329
		c6.118-1.393,12.355-2.119,18.572-2.21c6.217-0.049,12.406,0.531,18.451,1.695c12.114,2.316,23.504,7.169,33.665,13.595
		c10.368,6.25,19.758,15.845,24.586,27.428c2.453,5.754,3.838,11.851,4.357,17.897c0.261,3.027,0.271,6.049,0.117,9.038
		c-0.146,2.99-0.454,5.952-0.93,8.874c-0.473,2.922-1.101,5.803-1.863,8.638c-0.38,1.396-0.805,2.869-1.227,4.239l-0.321,1.012
		l-0.345,1.059l-0.718,2.066c-1.972,5.49-4.363,10.843-7.396,15.912c-1.516,2.534-3.242,4.965-5.183,7.268
		c-1.953,2.288-4.172,4.432-6.783,6.174c-2.588,1.75-5.61,3.107-8.867,3.581c-3.25,0.482-6.604,0.083-9.624-0.939
		c-0.377-0.138-0.829-0.293-1.144-0.423l-0.492-0.197l-0.567-0.246c-0.701-0.306-1.413-0.649-2.118-1.04
		c-1.405-0.78-2.828-1.729-4.054-2.937c-1.232-1.197-2.264-2.598-3.074-4.059c-0.802-1.468-1.391-2.984-1.881-4.494
		c-0.946-3.03-1.403-6.058-1.689-9.032c-0.299-2.979-0.399-5.931-0.39-8.856c0.125-11.697,1.301-23.146,2.847-34.511l11.16,2.441
		c-0.852,4.556-1.8,9.112-2.941,13.647c-1.116,4.542-2.437,9.056-3.938,13.555c-1.544,4.484-3.258,8.958-5.374,13.342
		c-2.068,4.402-4.545,8.705-7.534,12.858c-3.024,4.112-6.633,8.099-11.281,11.36c-2.329,1.611-4.921,3.027-7.758,4.054
		c-2.826,1.038-5.9,1.648-8.984,1.751c-3.088,0.112-6.166-0.328-9.03-1.172c-2.87-0.843-5.535-2.076-7.974-3.572
		c-0.607-0.371-1.194-0.759-1.86-1.222c-0.437-0.303-1.122-0.819-1.697-1.288c-1.19-0.953-2.293-2.013-3.294-3.146
		c-1.997-2.271-3.62-4.801-4.813-7.43c-2.426-5.265-3.333-10.794-3.286-16.117c0.043-5.337,0.996-10.551,2.844-15.497
		c0.468-1.253,0.958-2.409,1.597-3.74c0.332-0.693,0.482-0.935,0.871-1.691l0.915-1.619c1.245-2.146,2.637-4.215,4.129-6.211
		c2.984-3.992,6.477-7.637,10.404-10.709c3.907-3.096,8.241-5.595,12.751-7.497c4.517-1.898,9.226-3.174,13.952-3.901
		c4.727-0.747,9.483-0.898,14.164-0.644c2.342,0.12,4.669,0.364,6.97,0.746c2.306,0.379,4.566,0.829,6.831,1.521
		c0.451,0.138,0.705,0.615,0.566,1.066c-0.118,0.388-0.488,0.63-0.877,0.602L162.334,93.171z"/>
</g>
</svg>
