<?xml version="1.0" encoding="utf-8"?>
<!-- Generator: Adobe Illustrator 16.0.0, SVG Export Plug-In . SVG Version: 6.00 Build 0)  -->
<!DOCTYPE svg PUBLIC "-//W3C//DTD SVG 1.1//EN" "http://www.w3.org/Graphics/SVG/1.1/DTD/svg11.dtd">
<svg version="1.1" id="Calque_1" xmlns="http://www.w3.org/2000/svg" xmlns:xlink="http://www.w3.org/1999/xlink" x="0px" y="0px"
	 width="105px" height="105px" viewBox="0 0 105 105" enable-background="new 0 0 105 105" xml:space="preserve">
<g>
	<path fill="#035BA1" d="M90.5,105h-76C6.505,105,0,98.495,0,90.5v-76C0,6.505,6.505,0,14.5,0h76C98.496,0,105,6.505,105,14.5v76
		C105,98.495,98.496,105,90.5,105z M14.5,5C9.262,5,5,9.262,5,14.5v76c0,5.238,4.262,9.5,9.5,9.5h76c5.238,0,9.5-4.262,9.5-9.5v-76
		c0-5.238-4.262-9.5-9.5-9.5H14.5z"/>
</g>
<g>
	<path fill="#035BA1" d="M63.625,87.286c-1.152,0-2.305-0.439-3.184-1.32L30.191,55.68c-1.755-1.757-1.755-4.604,0-6.36
		l30.251-30.286c1.757-1.758,4.606-1.761,6.363-0.003c1.759,1.756,1.761,4.605,0.004,6.364L39.735,52.5l27.074,27.104
		c1.757,1.76,1.755,4.609-0.003,6.365C65.927,86.846,64.776,87.286,63.625,87.286z"/>
</g>
</svg>
