<svg version="1.1" id="Calque_1" xmlns="http://www.w3.org/2000/svg" xmlns:xlink="http://www.w3.org/1999/xlink"
	viewBox="0.5 176.5 767.999 768" enable-background="new 0.5 176.5 767.999 768" xml:space="preserve">
<g>
	<circle fill="#005AA1" cx="384.5" cy="560.5" r="384"/>
	<g>
		<path fill="#FFFFFF" d="M248.068,698.145c3.792-0.657,7.51-1.78,11.234-2.746c1.877-0.429,3.667-1.184,5.476-1.852
			c1.803-0.692,3.612-1.353,5.393-2.087c7.044-3.114,13.86-6.735,20.113-11.185c3.207-2.078,6.076-4.679,9.02-7.079
			c1.494-1.172,2.829-2.552,4.178-3.901l3.995-4.063c2.618-2.734,4.853-5.861,7.21-8.773c2.254-3.021,4.129-6.341,6.132-9.476
			c1.841-3.267,3.353-6.728,4.941-10.054c1.377-3.461,2.529-7.005,3.661-10.477c0.911-3.572,1.611-7.19,2.294-10.723
			c0.44-3.624,0.592-7.262,0.838-10.788c-0.061-3.718-0.271-7.367-0.589-10.862c-0.617-3.292-1.354-6.599-2.169-9.902l-0.352-1.44
			l-1.5-0.521c-8.568-2.957-17.138-4.978-25.709-6.792c-4.284-0.866-8.567-1.681-12.854-2.378
			c-4.284-0.737-8.568-1.329-12.854-1.915c-8.567-1.123-17.135-1.966-25.706-2.577c-4.284-0.357-8.57-0.498-12.854-0.755
			l-12.854-0.417c-4.284-0.095-8.57-0.052-12.854,0.146c-4.284,0.163-8.571,0.475-12.852,0.949
			c-8.573,0.871-17.141,2.406-25.708,3.958l-12.854,2.326c-4.287,0.731-8.57,1.395-12.854,1.96
			c-4.287,0.54-8.567,0.955-12.854,1.283c-4.287,0.234-8.567,0.491-12.854,0.486l-5.91-0.006l0.323,5.593
			c0.197,3.449,0.312,6.904,0.455,10.364c0.394,3.438,0.886,6.865,1.214,10.349c0.749,3.389,1.334,6.847,2.052,10.299l2.844,10.242
			c1.283,3.293,2.326,6.771,3.724,10.108c1.572,3.221,2.986,6.618,4.732,9.834c1.88,3.104,3.601,6.436,5.767,9.422
			c2.234,2.909,4.304,6.084,6.813,8.83c2.569,2.669,4.996,5.615,7.865,8.017c1.415,1.229,2.843,2.448,4.307,3.638
			c1.446,1.212,2.903,2.423,4.481,3.438l4.732,3.109c1.578,1.043,3.164,2.086,4.864,2.903l5.038,2.624
			c1.686,0.877,3.366,1.774,5.141,2.435c3.526,1.372,7.001,3.015,10.642,4.118c3.698,1.06,7.17,2.312,11.123,3.144l6.056,1.143
			l3.041,0.54c0.983,0.169,2.144,0.397,2.861,0.423l4.87,0.44l2.435,0.218l1.218,0.111l0.608,0.057l0.306,0.028l0.151,0.012
			l0.074,0.012l1.012,0.028c3.832-0.052,7.667-0.188,11.505-0.317C240.453,699.362,244.259,698.685,248.068,698.145z
			 M225.109,660.551l-8.845-0.018l-7.399-0.509c-2.472-0.205-5.264-0.831-7.918-1.183c-2.695-0.409-5.258-1.306-7.931-1.909
			c-5.229-1.546-10.348-3.549-15.32-5.955c-2.604-1.021-4.85-2.624-7.419-3.813c-1.294-0.586-2.423-1.395-3.618-2.138l-3.618-2.227
			c-2.46-1.463-4.621-3.292-7.021-4.949c-2.312-1.74-4.358-3.755-6.636-5.658c-2.16-1.986-4.035-4.235-6.096-6.419
			c-1.866-2.289-3.601-4.715-5.364-7.179c-1.569-2.546-2.904-5.241-4.37-7.916c-1.097-2.798-2.175-5.645-3.169-8.521
			c-0.72-2.946-1.297-5.944-1.92-8.937c-0.077-1.138-0.143-2.277-0.223-3.415c2.297,0.094,4.595,0.217,6.893,0.34
			c4.287,0.329,8.568,0.743,12.854,1.289c4.284,0.563,8.567,1.223,12.854,1.955l12.854,2.326c8.568,1.557,17.135,3.086,25.708,3.958
			c4.281,0.474,8.567,0.785,12.852,0.948c4.284,0.2,8.57,0.24,12.854,0.146l12.854-0.417c4.284-0.257,8.57-0.397,12.854-0.754
			c8.57-0.615,17.138-1.458,25.706-2.578c4.287-0.58,8.571-1.178,12.854-1.915c4.287-0.697,8.57-1.512,12.854-2.377
			c7.65-1.618,15.272-3.495,22.919-5.962c-0.792,2.278-1.598,4.538-2.283,6.822c-1.334,2.935-2.618,5.709-3.724,8.416
			c-1.5,2.752-3.015,5.409-4.387,8.038l-4.921,7.431c-1.915,2.283-3.541,4.644-5.427,6.811c-2.038,2.083-3.813,4.27-5.881,6.207
			c-2.158,1.868-4.052,3.895-6.275,5.604c-2.278,1.652-4.27,3.526-6.619,5.007c-2.395,1.418-4.47,3.164-6.927,4.409
			c-1.206,0.649-2.418,1.272-3.584,1.955c-1.171,0.675-2.326,1.363-3.601,1.857l-3.701,1.646c-1.223,0.552-2.403,1.183-3.701,1.574
			l-3.778,1.372c-1.251,0.469-2.483,0.966-3.807,1.246c-2.603,0.626-5.086,1.574-7.702,2.086l-3.906,0.797
			c-1.306,0.252-2.566,0.703-3.904,0.78c-2.644,0.317-5.264,0.771-7.908,1.129C230.453,660.128,227.784,660.296,225.109,660.551z"/>
		<path fill="#FFFFFF" d="M130.048,568.016c2.763-2.758,5.538-5.504,8.205-8.327c5.35-5.644,10.494-11.437,15.478-17.35
			c4.979-5.918,9.859-11.908,14.543-18.047c4.735-6.096,9.196-12.396,13.28-18.98c4.089-6.579,7.859-13.395,11.743-20.122
			c3.912-6.71,7.924-13.343,12.386-19.645c4.438-6.321,9.179-12.417,14.134-18.35c3.307-3.933,6.73-7.775,10.188-11.597
			c2.432,4.704,4.887,9.394,7.447,14.015c3.672,6.59,7.576,13.028,11.391,19.524c3.838,6.481,7.659,12.977,11.611,19.384
			c3.946,6.413,8.001,12.755,12.24,18.973c4.209,6.247,8.579,12.38,13.017,18.476c4.41,6.113,9.002,12.1,13.62,18.078
			c2.266,3.013,4.698,5.927,7.044,8.885c2.34,2.97,4.784,5.873,7.222,8.773c4.878,5.81,9.868,11.543,15.198,17.058l1.44-0.937
			c-2.867-7.11-6.073-14.004-9.388-20.825c-1.663-3.409-3.315-6.821-5.073-10.165c-1.751-3.353-3.417-6.758-5.252-10.053
			c-3.578-6.65-7.182-13.286-10.965-19.802c-3.761-6.533-7.587-13.023-11.574-19.407c-3.958-6.407-8.096-12.691-12.346-18.91
			c-4.247-6.216-8.622-12.349-12.983-18.492c-4.378-6.133-8.667-12.32-13.188-18.358c-4.544-6.024-9.276-11.929-14.02-17.821
			l-4.918-6.102l-3.461,5.839c-3.955,6.679-7.941,13.328-12.174,19.805c-4.247,6.461-8.713,12.76-13.48,18.832
			c-4.747,6.093-9.937,11.849-15.232,17.538c-5.318,5.658-10.754,11.243-15.869,17.059c-5.121,5.81-9.868,11.899-14.335,18.198
			c-4.521,6.256-8.845,12.662-13.074,19.136c-4.218,6.481-8.279,13.077-12.131,19.829c-1.938,3.373-3.766,6.822-5.604,10.266
			c-1.797,3.472-3.558,6.97-5.152,10.594l1.372,1.021C124.398,573.435,127.245,570.739,130.048,568.016z"/>
		<path fill="#FFFFFF" d="M652.034,594.076c-0.617-3.292-1.354-6.599-2.169-9.902l-0.352-1.44l-1.5-0.52
			c-8.568-2.958-17.139-4.979-25.709-6.793c-4.284-0.866-8.567-1.681-12.854-2.378c-4.283-0.737-8.567-1.329-12.854-1.915
			c-8.568-1.123-17.136-1.966-25.706-2.577c-4.284-0.357-8.57-0.498-12.854-0.755l-12.854-0.417
			c-4.284-0.095-8.571-0.052-12.854,0.146c-4.284,0.163-8.57,0.475-12.852,0.949c-8.573,0.871-17.141,2.406-25.709,3.958
			l-12.854,2.326c-4.287,0.731-8.571,1.395-12.854,1.96c-4.287,0.54-8.567,0.955-12.854,1.283
			c-4.286,0.234-8.567,0.491-12.854,0.486l-5.909-0.006l0.322,5.593c0.197,3.449,0.312,6.904,0.455,10.365
			c0.394,3.438,0.886,6.864,1.214,10.348c0.749,3.389,1.335,6.847,2.053,10.299l2.843,10.242c1.283,3.293,2.326,6.771,3.724,10.108
			c1.572,3.221,2.986,6.618,4.732,9.834c1.881,3.104,3.602,6.436,5.768,9.422c2.234,2.909,4.304,6.084,6.813,8.83
			c2.569,2.669,4.995,5.616,7.865,8.017c1.414,1.229,2.843,2.449,4.307,3.638c1.445,1.212,2.903,2.423,4.48,3.438l4.732,3.109
			c1.577,1.043,3.164,2.086,4.864,2.903l5.038,2.624c1.686,0.877,3.366,1.774,5.141,2.435c3.527,1.372,7.002,3.015,10.643,4.118
			c3.698,1.061,7.17,2.312,11.123,3.144l6.055,1.143l3.041,0.541c0.983,0.168,2.144,0.396,2.86,0.423l4.87,0.439l2.435,0.218
			l1.218,0.111l0.608,0.057l0.306,0.029l0.151,0.011l0.074,0.012l1.012,0.028c3.833-0.051,7.668-0.188,11.506-0.317
			c3.835-0.279,7.642-0.954,11.451-1.494c3.792-0.657,7.51-1.78,11.233-2.746c1.878-0.429,3.667-1.184,5.476-1.853
			c1.804-0.691,3.612-1.352,5.393-2.086c7.045-3.114,13.86-6.735,20.113-11.186c3.206-2.077,6.075-4.678,9.019-7.078
			c1.495-1.172,2.83-2.552,4.179-3.901l3.995-4.063c2.617-2.734,4.853-5.861,7.21-8.773c2.255-3.021,4.13-6.341,6.133-9.477
			c1.841-3.266,3.353-6.727,4.941-10.054c1.377-3.46,2.528-7.004,3.66-10.477c0.912-3.571,1.612-7.189,2.295-10.722
			c0.44-3.624,0.592-7.262,0.838-10.788C652.565,601.221,652.354,597.568,652.034,594.076z M642.94,593.585
			c-1.334,2.935-2.617,5.709-3.724,8.416c-1.5,2.752-3.015,5.409-4.387,8.038l-4.921,7.431c-1.914,2.283-3.541,4.644-5.427,6.811
			c-2.038,2.083-3.813,4.269-5.882,6.207c-2.157,1.868-4.052,3.895-6.275,5.604c-2.277,1.652-4.27,3.526-6.618,5.007
			c-2.396,1.418-4.47,3.164-6.928,4.409c-1.206,0.649-2.417,1.272-3.583,1.955c-1.172,0.675-2.326,1.363-3.602,1.857l-3.7,1.646
			c-1.224,0.552-2.403,1.183-3.701,1.574l-3.777,1.372c-1.252,0.469-2.483,0.966-3.807,1.246c-2.604,0.626-5.087,1.574-7.702,2.086
			l-3.906,0.797c-1.307,0.252-2.566,0.703-3.904,0.78c-2.643,0.317-5.264,0.772-7.907,1.129c-2.666,0.181-5.332,0.346-8.01,0.604
			l-8.845-0.018l-7.399-0.509c-2.472-0.205-5.264-0.831-7.919-1.183c-2.694-0.409-5.258-1.307-7.93-1.909
			c-5.23-1.546-10.349-3.55-15.321-5.956c-2.603-1.02-4.85-2.623-7.418-3.812c-1.295-0.586-2.424-1.395-3.618-2.138l-3.618-2.227
			c-2.46-1.463-4.621-3.292-7.021-4.949c-2.312-1.74-4.358-3.755-6.636-5.658c-2.16-1.986-4.035-4.235-6.096-6.419
			c-1.866-2.289-3.601-4.716-5.364-7.179c-1.568-2.546-2.903-5.241-4.369-7.916c-1.098-2.798-2.175-5.645-3.169-8.521
			c-0.721-2.947-1.298-5.944-1.921-8.937c-0.077-1.138-0.143-2.277-0.223-3.415c2.298,0.094,4.593,0.217,6.893,0.34
			c4.287,0.329,8.567,0.743,12.854,1.289c4.284,0.563,8.567,1.223,12.854,1.954l12.854,2.327c8.567,1.557,17.135,3.086,25.708,3.958
			c4.281,0.474,8.567,0.785,12.852,0.948c4.283,0.2,8.57,0.24,12.854,0.146l12.854-0.417c4.284-0.257,8.57-0.397,12.854-0.754
			c8.57-0.615,17.138-1.458,25.706-2.578c4.286-0.58,8.57-1.178,12.854-1.915c4.287-0.697,8.57-1.512,12.854-2.377
			c7.65-1.618,15.272-3.495,22.919-5.962C644.43,589.041,643.627,591.301,642.94,593.585z"/>
		<path fill="#FFFFFF" d="M550.598,417.895l-3.461,5.839c-3.955,6.679-7.941,13.328-12.174,19.804
			c-4.247,6.462-8.714,12.761-13.48,18.833c-4.746,6.093-9.937,11.849-15.231,17.538c-5.318,5.658-10.754,11.242-15.869,17.059
			c-5.121,5.81-9.868,11.899-14.335,18.198c-4.521,6.255-8.845,12.662-13.074,19.135c-4.218,6.481-8.279,13.077-12.131,19.83
			c-1.938,3.372-3.767,6.821-5.604,10.266c-1.798,3.472-3.558,6.97-5.152,10.594l1.371,1.02c3.01-2.571,5.854-5.27,8.656-7.993
			c2.764-2.758,5.539-5.504,8.205-8.327c5.35-5.644,10.494-11.437,15.478-17.35c4.979-5.918,9.859-11.908,14.543-18.047
			c4.735-6.096,9.196-12.396,13.28-18.98c4.09-6.579,7.859-13.395,11.743-20.122c3.912-6.71,7.924-13.343,12.385-19.645
			c4.438-6.321,9.18-12.417,14.135-18.35c3.304-3.932,6.73-7.775,10.188-11.597c2.432,4.704,4.887,9.394,7.444,14.015
			c3.672,6.59,7.575,13.028,11.391,19.524c3.838,6.481,7.659,12.977,11.611,19.384c3.946,6.413,8.002,12.755,12.24,18.973
			c4.209,6.247,8.579,12.38,13.017,18.476c4.41,6.113,9.002,12.1,13.62,18.078c2.267,3.013,4.698,5.927,7.045,8.885
			c2.34,2.97,4.783,5.873,7.222,8.773c4.878,5.81,9.867,11.543,15.197,17.058l1.44-0.937c-2.866-7.11-6.073-14.004-9.388-20.825
			c-1.664-3.409-3.315-6.821-5.073-10.165c-1.751-3.353-3.417-6.758-5.252-10.053c-3.578-6.65-7.182-13.286-10.966-19.802
			c-3.761-6.533-7.587-13.023-11.573-19.407c-3.958-6.407-8.097-12.691-12.346-18.91c-4.247-6.216-8.622-12.349-12.983-18.492
			c-4.378-6.133-8.667-12.32-13.188-18.358c-4.544-6.024-9.276-11.929-14.021-17.821L550.598,417.895z"/>
		<path fill="#FFFFFF" d="M346.57,322.934c1.697,3.664,3.558,7.104,5.738,10.314c4.486,6.275,9.579,12.057,16.092,16.857
			c1.626,1.16,3.344,2.27,5.145,3.198l2.749,1.331c0.935,0.435,2.049,0.772,3.092,1.106c2.384,0.76,3.666,1,5.299,1.377l0.294,0.061
			l0.148,0.031l0.074,0.012l0.569,0.022l0.742,0.058l1.492,0.1c0.991,0.028,1.983,0.095,2.967,0.031
			c7.916-0.34,15.203-3.641,20.155-8.313c5.038-4.685,7.725-10.442,9.294-15.301c1.552-4.936,1.997-9.162,2.411-12.469
			c0.178-1.663,0.329-3.126,0.372-4.438c0.092-1.297,0.183-2.368,0.166-3.197c0.025-1.687,0.094-2.584,0.094-2.584v-0.057
			c0,0-0.012-0.926-0.04-2.669c0.034-0.878-0.04-1.946-0.114-3.221c-0.025-0.644-0.055-1.335-0.08-2.075
			c-0.071-0.734-0.183-1.509-0.243-2.357c-0.389-3.326-0.843-7.576-2.386-12.549c-1.566-4.893-4.215-10.702-9.18-15.623
			c-2.509-2.363-5.438-4.679-8.913-6.272c-0.866-0.397-1.726-0.854-2.638-1.203c-0.926-0.304-1.857-0.612-2.798-0.924
			c-1.76-0.646-4.206-1.094-6.427-1.466c-0.654-0.108-0.949-0.123-1.352-0.166l-1.166-0.117l-1.172-0.111l-0.592-0.06l-0.997-0.015
			h-0.397c-2.106,0.068-4.244,0.104-6.384,0.48c-4.299,0.568-8.557,2.026-12.569,3.989c-4.023,1.983-7.679,4.727-10.974,7.805
			c-3.249,3.155-6.041,6.775-8.296,10.702c-2.203,3.964-3.626,8.345-4.301,12.76c-0.217,2.238-0.432,4.398-0.34,6.856
			c-0.04,2.737,0.46,3.687,0.703,6.244C343.644,315.292,344.979,319.239,346.57,322.934z M355.326,311.083
			c0.491-1.023,0.903-3.698,1.574-4.49c0.489-1.123,1.258-2.42,1.94-3.646c1.515-2.397,3.072-4.552,4.775-6.501
			c1.764-1.9,3.63-3.598,5.688-4.924c2.101-1.258,4.215-2.32,6.39-3.013c2.181-0.648,4.292-1.254,6.447-1.466
			c1.049-0.257,2.135-0.197,3.189-0.328l0.197-0.029l0.1-0.014l0.052-0.006c0.146,0-1.129-0.034-0.552-0.021l0.592,0.003
			l1.177,0.003l1.172,0.003c0.375,0.006,0.854-0.006,0.966,0.034c1.341,0.055,3.63,0.181,5.576,0.644
			c2.015,0.346,3.995,0.831,6.044,1.34c4.012,1.092,8.133,2.755,11.385,5.158c3.361,2.323,5.576,5.353,6.902,8.042
			c0.643,1.363,1.174,2.623,1.426,3.772c0.323,1.135,0.546,2.12,0.589,2.935c0.168,1.575,0.217,2.424,0.22,2.475
			c-0.003,0.092-0.031,0.952-0.166,2.544c-0.028,0.86-0.234,1.843-0.537,2.958c-0.229,1.129-0.714,2.395-1.377,3.764
			c-1.295,2.715-3.516,5.77-6.87,8.127c-3.244,2.44-7.325,4.155-11.263,5.496c-4.021,1.283-7.87,2.409-12.24,3.535
			c-0.545,0.18-1.117,0.205-1.686,0.349l-0.86,0.22l-0.438,0.114c0.194,0.009-0.515,0,0.423,0.022l-0.074,0.009l-0.151,0.015
			l-0.297,0.028c-1.412,0.188-2.838,0.383-4.281,0.574c-0.549,0.058-1.071,0.249-1.726,0.295l-2.038,0.103
			c-1.38,0.04-2.804-0.052-4.264-0.212c-2.927-0.334-5.847-1.371-8.556-2.94c-2.681-1.617-4.936-3.969-6.708-6.63
			c-1.726-2.709-2.852-5.798-3.343-8.953C354.261,317.29,354.657,314.066,355.326,311.083z"/>
		<path fill="#FFFFFF" d="M522.518,809.386c-2.298-1.435-4.845-2.857-7.563-4.449c-2.706-1.669-5.706-3.046-8.873-4.532
			c-3.169-1.489-6.553-2.952-10.088-4.538c-7.13-2.786-14.986-5.65-23.422-8.088c-4.216-1.194-8.591-2.243-13.061-3.409
			c-1.117-0.286-2.243-0.568-3.375-0.854c-1.135-0.217-2.28-0.429-3.429-0.648c-2.301-0.435-4.627-0.872-6.968-1.312
			c-9.379-1.949-19.147-2.947-29.101-4.001c-4.973-0.44-9.99-0.657-15.035-0.903l-6.881-0.291
			c2.771-10.777,5.381-25.106,6.778-41.918c0.397-4.762,0.654-9.723,0.826-14.853c0.188-5.135,0.177-10.442-0.298-15.9
			c-0.771-10.911-3.729-22.416-6.449-34.321c-2.815-11.906-4.604-24.208-4.287-36.705c0.126-12.497,1.918-25.194,4.575-37.895
			c2.635-12.697,5.238-25.396,6.29-37.895c1.061-12.502,2.16-24.802,2.912-36.704c0.774-11.903,0.801-23.411,0.163-34.325
			c-0.629-10.911-1.712-21.228-2.952-30.752c-2.555-19.047-5.993-34.919-9.085-46.027c-0.362-1.338-0.726-2.595-1.077-3.792
			c11.899,0.448,23.805,0.726,35.722,0.717c7.085,0.012,14.172-0.095,21.265-0.306c7.091-0.138,14.192-0.463,21.291-0.814
			c3.546-0.135,7.102-0.426,10.656-0.648c3.55-0.234,7.102-0.458,10.659-0.792c7.11-0.568,14.229-1.3,21.351-2.109
			c7.122-0.868,14.249-1.797,21.385-2.972c7.136-1.151,14.28-2.443,21.442-4.187c-6.977-2.381-13.975-4.313-20.977-6.104
			c-7.004-1.814-14.015-3.384-21.033-4.887c-7.019-1.449-14.04-2.82-21.07-4.026c-3.512-0.654-7.03-1.197-10.545-1.749
			c-3.519-0.54-7.033-1.151-10.554-1.609c-7.039-0.991-14.083-1.957-21.131-2.729c-7.047-0.852-14.097-1.601-21.15-2.224
			c-14.111-1.289-28.237-2.243-42.375-2.892l-0.825-0.04l-0.854,0.04c-14.138,0.625-28.267,1.574-42.375,2.852
			c-7.057,0.638-14.109,1.352-21.153,2.215c-7.05,0.777-14.089,1.721-21.131,2.727c-3.518,0.457-7.036,1.052-10.551,1.605
			c-3.515,0.563-7.039,1.089-10.548,1.746c-7.027,1.215-14.052,2.584-21.07,4.035c-7.016,1.512-14.029,3.087-21.03,4.907
			c-7.004,1.798-13.998,3.738-20.976,6.133c7.165,1.755,14.306,3.055,21.445,4.215c7.136,1.181,14.263,2.115,21.387,2.989
			c7.119,0.812,14.238,1.546,21.348,2.118c3.558,0.34,7.107,0.546,10.663,0.791c3.549,0.231,7.104,0.506,10.656,0.646
			c7.099,0.368,14.2,0.668,21.288,0.812c7.093,0.223,14.183,0.3,21.265,0.297c11.57,0.003,23.128-0.274,34.676-0.709
			c-0.349,1.184-0.703,2.427-1.063,3.75c-3.092,11.11-6.529,26.979-9.085,46.027c-1.242,9.524-2.323,19.838-2.951,30.752
			c-0.641,10.911-0.612,22.422,0.162,34.325c0.752,11.902,1.85,24.204,2.912,36.704c1.052,12.497,3.655,25.194,6.29,37.895
			c2.658,12.697,4.45,25.396,4.575,37.894c0.317,12.497-1.472,24.8-4.286,36.706c-2.721,11.905-5.679,23.407-6.45,34.321
			c-0.472,5.458-0.485,10.769-0.297,15.9c0.171,5.13,0.429,10.091,0.825,14.853c1.403,16.866,4.024,31.229,6.805,42.012
			c-1.809,0.034-3.618,0.06-5.418,0.123c-5.03,0.28-10.037,0.648-14.998,1.031c-2.478,0.218-4.949,0.357-7.401,0.644
			c-2.446,0.312-4.884,0.625-7.305,0.932c-4.835,0.674-9.607,1.283-14.274,2.108c-4.664,0.915-9.248,1.721-13.706,2.724
			c-4.464,0.932-8.819,1.875-13.011,3.115c-4.195,1.183-8.279,2.243-12.194,3.427c-3.913,1.205-7.665,2.54-11.243,3.817
			c-3.569,1.329-6.993,2.523-10.211,3.79c-3.229,1.429-6.287,2.706-9.11,4.04c-5.681,2.584-10.511,4.913-14.277,7.211
			c-7.659,4.392-11.912,7.324-11.912,7.324s5.164,0.194,13.989-0.194c4.426-0.28,9.745-0.323,15.695-0.497
			c2.986-0.058,6.113-0.263,9.402-0.397c3.364-0.018,6.856-0.163,10.508-0.24c3.652-0.06,7.391-0.397,11.314-0.417
			c3.924-0.021,7.942-0.2,12.077-0.298c2.069-0.045,4.152-0.146,6.258-0.257c2.115-0.028,4.261-0.057,6.43-0.083
			c4.338-0.006,8.73-0.234,13.203-0.374c4.484-0.028,9.039-0.052,13.635-0.146c4.596-0.141,9.239-0.258,13.929-0.218
			c4.687-0.034,9.402-0.077,14.129-0.205c4.729,0.011,9.477,0.028,14.229,0.045l7.116-0.065l7.09,0.123
			c4.724,0.04,9.431,0.071,14.098,0.105c9.311,0.34,18.529,0.274,27.395,0.687c8.928,0.157,17.47,0.702,25.674,1.031
			c4.141,0.006,8.027,0.568,11.9,0.743c3.852,0.251,7.636,0.38,11.202,0.703c3.566,0.316,6.993,0.686,10.3,0.926
			c1.66,0.123,3.274,0.24,4.847,0.352c1.571,0.128,3.04,0.402,4.518,0.54c2.94,0.328,5.688,0.709,8.288,0.943
			c2.595,0.257,5.006,0.468,7.109,0.854c8.508,1.368,13.77,1.843,13.77,1.843s-3.753-3.39-11.018-8.785
			C526.941,812.013,524.817,810.792,522.518,809.386z"/>
	</g>
</g>
</svg>
