<svg version="1.1" id="Calque_1" xmlns="http://www.w3.org/2000/svg" xmlns:xlink="http://www.w3.org/1999/xlink"
	viewBox="0 0 187.648 195.957" enable-background="new 0 0 187.648 195.957" xml:space="preserve">
<g>
	<path fill="#005AA1" d="M46.067,152.531c1.327-0.23,2.628-0.623,3.931-0.961c0.657-0.15,1.283-0.414,1.916-0.648
		c0.631-0.242,1.264-0.473,1.887-0.73c2.465-1.09,4.85-2.357,7.038-3.914c1.122-0.727,2.126-1.637,3.156-2.477
		c0.523-0.41,0.99-0.893,1.462-1.365l1.398-1.422c0.916-0.957,1.698-2.051,2.523-3.07c0.789-1.057,1.445-2.219,2.146-3.316
		c0.644-1.143,1.173-2.354,1.729-3.518c0.482-1.211,0.885-2.451,1.281-3.666c0.319-1.25,0.564-2.516,0.803-3.752
		c0.154-1.268,0.207-2.541,0.293-3.775c-0.021-1.301-0.095-2.578-0.206-3.801c-0.216-1.152-0.474-2.309-0.759-3.465l-0.123-0.504
		l-0.525-0.182c-2.998-1.035-5.997-1.742-8.996-2.377c-1.499-0.303-2.998-0.588-4.498-0.832c-1.499-0.258-2.998-0.465-4.498-0.67
		c-2.998-0.393-5.996-0.688-8.995-0.902c-1.499-0.125-2.999-0.174-4.498-0.264l-4.498-0.146c-1.499-0.033-2.999-0.018-4.498,0.051
		c-1.499,0.057-2.999,0.166-4.497,0.332c-3,0.305-5.998,0.842-8.996,1.385l-4.498,0.814c-1.5,0.256-2.999,0.488-4.498,0.686
		c-1.5,0.189-2.998,0.334-4.498,0.449c-1.5,0.082-2.998,0.172-4.498,0.17l-2.068-0.002l0.113,1.957
		c0.069,1.207,0.109,2.416,0.159,3.627c0.138,1.203,0.31,2.402,0.425,3.621c0.262,1.186,0.467,2.396,0.718,3.604l0.995,3.584
		c0.449,1.152,0.814,2.369,1.303,3.537c0.55,1.127,1.045,2.316,1.656,3.441c0.658,1.086,1.26,2.252,2.018,3.297
		c0.782,1.018,1.506,2.129,2.384,3.09c0.899,0.934,1.748,1.965,2.752,2.805c0.495,0.43,0.995,0.857,1.507,1.273
		c0.506,0.424,1.016,0.848,1.568,1.203l1.656,1.088c0.552,0.365,1.107,0.73,1.702,1.016l1.763,0.918
		c0.59,0.307,1.178,0.621,1.799,0.852c1.234,0.48,2.45,1.055,3.724,1.441c1.294,0.371,2.509,0.809,3.892,1.1l2.119,0.4l1.064,0.189
		c0.344,0.059,0.75,0.139,1.001,0.148l1.704,0.154l0.852,0.076l0.426,0.039l0.213,0.02l0.107,0.01l0.053,0.004l0.026,0.004
		l0.354,0.01c1.341-0.018,2.683-0.066,4.026-0.111C43.402,152.957,44.734,152.72,46.067,152.531z M38.033,139.376l-3.095-0.006
		l-2.589-0.178c-0.865-0.072-1.842-0.291-2.771-0.414c-0.943-0.143-1.84-0.457-2.775-0.668c-1.83-0.541-3.621-1.242-5.361-2.084
		c-0.911-0.357-1.697-0.918-2.596-1.334c-0.453-0.205-0.848-0.488-1.266-0.748l-1.266-0.779c-0.861-0.512-1.617-1.152-2.457-1.732
		c-0.809-0.609-1.525-1.314-2.322-1.98c-0.756-0.695-1.412-1.482-2.133-2.246c-0.653-0.801-1.26-1.65-1.877-2.512
		c-0.549-0.891-1.016-1.834-1.529-2.77c-0.384-0.979-0.761-1.975-1.109-2.982c-0.252-1.031-0.454-2.08-0.672-3.127
		c-0.027-0.398-0.05-0.797-0.078-1.195c0.804,0.033,1.608,0.076,2.412,0.119c1.5,0.115,2.998,0.26,4.498,0.451
		c1.499,0.197,2.998,0.428,4.498,0.684l4.498,0.814c2.998,0.545,5.996,1.08,8.996,1.385c1.498,0.166,2.998,0.275,4.497,0.332
		c1.499,0.07,2.999,0.084,4.498,0.051l4.498-0.146c1.499-0.09,2.999-0.139,4.498-0.264c2.999-0.215,5.997-0.51,8.995-0.902
		c1.5-0.203,2.999-0.412,4.498-0.67c1.5-0.244,2.999-0.529,4.498-0.832c2.677-0.566,5.344-1.223,8.02-2.086
		c-0.277,0.797-0.559,1.588-0.799,2.387c-0.467,1.027-0.916,1.998-1.303,2.945c-0.525,0.963-1.055,1.893-1.535,2.813l-1.722,2.6
		c-0.67,0.799-1.239,1.625-1.899,2.383c-0.713,0.729-1.334,1.494-2.058,2.172c-0.755,0.654-1.418,1.363-2.196,1.961
		c-0.797,0.578-1.494,1.234-2.316,1.752c-0.838,0.496-1.564,1.107-2.424,1.543c-0.422,0.227-0.846,0.445-1.254,0.684
		c-0.41,0.236-0.814,0.477-1.26,0.65l-1.295,0.576c-0.428,0.193-0.841,0.414-1.295,0.551l-1.322,0.48
		c-0.438,0.164-0.869,0.338-1.332,0.436c-0.911,0.219-1.78,0.551-2.695,0.73l-1.367,0.279c-0.457,0.088-0.898,0.246-1.366,0.273
		c-0.925,0.111-1.842,0.27-2.767,0.395C39.903,139.228,38.969,139.287,38.033,139.376z"/>
	<path fill="#005AA1" d="M4.769,106.996c0.967-0.965,1.938-1.926,2.871-2.914c1.872-1.975,3.672-4.002,5.416-6.071
		c1.742-2.071,3.45-4.167,5.089-6.315c1.657-2.133,3.218-4.338,4.647-6.642c1.431-2.302,2.75-4.687,4.109-7.041
		c1.369-2.348,2.773-4.669,4.334-6.874c1.553-2.212,3.212-4.345,4.946-6.421c1.157-1.376,2.355-2.721,3.565-4.058
		c0.851,1.646,1.71,3.287,2.606,4.904c1.285,2.306,2.651,4.559,3.986,6.832c1.343,2.268,2.68,4.541,4.063,6.783
		c1.381,2.244,2.8,4.463,4.283,6.639c1.473,2.186,3.002,4.332,4.555,6.465c1.543,2.139,3.15,4.234,4.766,6.326
		c0.793,1.054,1.644,2.074,2.465,3.109c0.819,1.039,1.674,2.055,2.527,3.07c1.707,2.033,3.453,4.039,5.318,5.969l0.504-0.328
		c-1.003-2.488-2.125-4.9-3.285-7.287c-0.582-1.193-1.16-2.387-1.775-3.557c-0.613-1.173-1.196-2.365-1.838-3.518
		c-1.252-2.327-2.513-4.649-3.837-6.929c-1.316-2.286-2.655-4.557-4.05-6.791c-1.385-2.242-2.833-4.441-4.32-6.617
		c-1.486-2.175-3.017-4.321-4.543-6.471c-1.532-2.146-3.033-4.311-4.615-6.424c-1.59-2.108-3.246-4.174-4.906-6.236l-1.721-2.135
		l-1.211,2.043c-1.384,2.337-2.779,4.664-4.26,6.93c-1.486,2.261-3.049,4.465-4.717,6.59c-1.661,2.132-3.477,4.146-5.33,6.137
		c-1.861,1.98-3.763,3.934-5.553,5.969c-1.792,2.033-3.453,4.164-5.016,6.368c-1.582,2.189-3.095,4.431-4.575,6.696
		c-1.476,2.268-2.897,4.576-4.245,6.939c-0.678,1.18-1.318,2.387-1.961,3.592c-0.629,1.215-1.245,2.439-1.803,3.707l0.48,0.357
		C2.792,108.892,3.788,107.949,4.769,106.996z"/>
	<path fill="#005AA1" d="M187.424,116.115c-0.216-1.152-0.474-2.309-0.759-3.465l-0.123-0.504l-0.525-0.182
		c-2.998-1.035-5.997-1.742-8.996-2.377c-1.499-0.303-2.998-0.588-4.498-0.832c-1.499-0.258-2.998-0.465-4.498-0.67
		c-2.998-0.393-5.996-0.688-8.995-0.902c-1.499-0.125-2.999-0.174-4.498-0.264l-4.498-0.146c-1.499-0.033-2.999-0.018-4.498,0.051
		c-1.499,0.057-2.999,0.166-4.497,0.332c-3,0.305-5.998,0.842-8.996,1.385l-4.498,0.814c-1.5,0.256-2.999,0.488-4.498,0.686
		c-1.5,0.189-2.998,0.334-4.498,0.449c-1.5,0.082-2.998,0.172-4.498,0.17l-2.068-0.002l0.113,1.957
		c0.069,1.207,0.109,2.416,0.159,3.627c0.138,1.203,0.31,2.402,0.425,3.621c0.262,1.186,0.467,2.396,0.718,3.604l0.995,3.584
		c0.449,1.152,0.814,2.369,1.303,3.537c0.55,1.127,1.045,2.316,1.656,3.441c0.658,1.086,1.26,2.252,2.018,3.297
		c0.782,1.018,1.506,2.129,2.384,3.09c0.899,0.934,1.748,1.965,2.752,2.805c0.495,0.43,0.995,0.857,1.507,1.273
		c0.506,0.424,1.016,0.848,1.568,1.203l1.656,1.088c0.552,0.365,1.107,0.73,1.702,1.016l1.763,0.918
		c0.59,0.307,1.178,0.621,1.799,0.852c1.234,0.48,2.45,1.055,3.724,1.441c1.294,0.371,2.509,0.809,3.892,1.1l2.119,0.4l1.064,0.189
		c0.344,0.059,0.75,0.139,1.001,0.148l1.704,0.154l0.852,0.076l0.426,0.039l0.213,0.02l0.107,0.01l0.053,0.004l0.026,0.004
		l0.354,0.01c1.341-0.018,2.683-0.066,4.026-0.111c1.342-0.098,2.674-0.334,4.007-0.523c1.327-0.23,2.628-0.623,3.931-0.961
		c0.657-0.15,1.283-0.414,1.916-0.648c0.631-0.242,1.264-0.473,1.887-0.73c2.465-1.09,4.85-2.357,7.038-3.914
		c1.122-0.727,2.126-1.637,3.156-2.477c0.523-0.41,0.99-0.893,1.462-1.365l1.398-1.422c0.916-0.957,1.698-2.051,2.523-3.07
		c0.789-1.057,1.445-2.219,2.146-3.316c0.644-1.143,1.173-2.354,1.729-3.518c0.482-1.211,0.885-2.451,1.281-3.666
		c0.319-1.25,0.564-2.516,0.803-3.752c0.154-1.268,0.207-2.541,0.293-3.775C187.61,118.615,187.536,117.337,187.424,116.115z
		 M184.242,115.943c-0.467,1.027-0.916,1.998-1.303,2.945c-0.525,0.963-1.055,1.893-1.535,2.813l-1.722,2.6
		c-0.67,0.799-1.239,1.625-1.899,2.383c-0.713,0.729-1.334,1.494-2.058,2.172c-0.755,0.654-1.418,1.363-2.196,1.961
		c-0.797,0.578-1.494,1.234-2.316,1.752c-0.838,0.496-1.564,1.107-2.424,1.543c-0.422,0.227-0.846,0.445-1.254,0.684
		c-0.41,0.236-0.814,0.477-1.26,0.65l-1.295,0.576c-0.428,0.193-0.841,0.414-1.295,0.551l-1.322,0.48
		c-0.438,0.164-0.869,0.338-1.332,0.436c-0.911,0.219-1.78,0.551-2.695,0.73l-1.367,0.279c-0.457,0.088-0.898,0.246-1.366,0.273
		c-0.925,0.111-1.842,0.27-2.767,0.395c-0.933,0.063-1.866,0.121-2.803,0.211l-3.095-0.006l-2.589-0.178
		c-0.865-0.072-1.842-0.291-2.771-0.414c-0.943-0.143-1.84-0.457-2.775-0.668c-1.83-0.541-3.621-1.242-5.361-2.084
		c-0.911-0.357-1.697-0.918-2.596-1.334c-0.453-0.205-0.848-0.488-1.266-0.748l-1.266-0.779c-0.861-0.512-1.617-1.152-2.457-1.732
		c-0.809-0.609-1.525-1.314-2.322-1.98c-0.756-0.695-1.412-1.482-2.133-2.246c-0.653-0.801-1.26-1.65-1.877-2.512
		c-0.549-0.891-1.016-1.834-1.529-2.77c-0.384-0.979-0.761-1.975-1.109-2.982c-0.252-1.031-0.454-2.08-0.672-3.127
		c-0.027-0.398-0.05-0.797-0.078-1.195c0.804,0.033,1.607,0.076,2.412,0.119c1.5,0.115,2.998,0.26,4.498,0.451
		c1.499,0.197,2.998,0.428,4.498,0.684l4.498,0.814c2.998,0.545,5.996,1.08,8.996,1.385c1.498,0.166,2.998,0.275,4.497,0.332
		c1.499,0.07,2.999,0.084,4.498,0.051l4.498-0.146c1.499-0.09,2.999-0.139,4.498-0.264c2.999-0.215,5.997-0.51,8.995-0.902
		c1.5-0.203,2.999-0.412,4.498-0.67c1.5-0.244,2.999-0.529,4.498-0.832c2.677-0.566,5.344-1.223,8.02-2.086
		C184.763,114.353,184.482,115.144,184.242,115.943z"/>
	<path fill="#005AA1" d="M151.929,54.465l-1.211,2.043c-1.384,2.337-2.779,4.664-4.26,6.93c-1.486,2.261-3.049,4.465-4.717,6.59
		c-1.661,2.132-3.477,4.146-5.33,6.137c-1.861,1.98-3.763,3.934-5.553,5.969c-1.792,2.033-3.453,4.164-5.016,6.368
		c-1.582,2.189-3.095,4.431-4.575,6.696c-1.476,2.268-2.897,4.576-4.245,6.939c-0.678,1.18-1.318,2.387-1.961,3.592
		c-0.629,1.215-1.245,2.439-1.803,3.707l0.48,0.357c1.053-0.9,2.048-1.844,3.029-2.797c0.967-0.965,1.938-1.926,2.871-2.914
		c1.872-1.975,3.672-4.002,5.416-6.071c1.742-2.071,3.45-4.167,5.089-6.315c1.657-2.133,3.218-4.338,4.647-6.642
		c1.431-2.302,2.75-4.687,4.109-7.041c1.369-2.348,2.773-4.669,4.334-6.874c1.553-2.212,3.212-4.345,4.946-6.421
		c1.156-1.376,2.355-2.721,3.565-4.058c0.851,1.646,1.71,3.287,2.605,4.904c1.285,2.306,2.651,4.559,3.986,6.832
		c1.343,2.268,2.68,4.541,4.063,6.783c1.381,2.244,2.8,4.463,4.283,6.639c1.473,2.186,3.002,4.332,4.555,6.465
		c1.543,2.139,3.15,4.234,4.766,6.326c0.793,1.054,1.644,2.074,2.465,3.109c0.819,1.039,1.674,2.055,2.527,3.07
		c1.707,2.033,3.453,4.039,5.318,5.969l0.504-0.328c-1.003-2.488-2.125-4.9-3.285-7.287c-0.582-1.193-1.16-2.387-1.775-3.557
		c-0.613-1.173-1.196-2.365-1.838-3.518c-1.252-2.327-2.513-4.649-3.837-6.929c-1.316-2.286-2.655-4.557-4.05-6.791
		c-1.385-2.242-2.833-4.441-4.32-6.617c-1.486-2.175-3.017-4.321-4.543-6.471c-1.532-2.146-3.033-4.311-4.615-6.424
		c-1.59-2.108-3.246-4.174-4.906-6.236L151.929,54.465z"/>
	<path fill="#005AA1" d="M80.535,21.236c0.594,1.282,1.245,2.486,2.008,3.609c1.57,2.196,3.352,4.219,5.631,5.899
		c0.569,0.406,1.17,0.794,1.8,1.119l0.962,0.466c0.327,0.152,0.717,0.27,1.082,0.387c0.834,0.266,1.283,0.35,1.854,0.482
		l0.103,0.021l0.052,0.011l0.026,0.004l0.199,0.008l0.26,0.02l0.522,0.035c0.347,0.01,0.694,0.033,1.038,0.011
		c2.77-0.119,5.32-1.274,7.053-2.909c1.763-1.639,2.703-3.654,3.252-5.354c0.543-1.727,0.699-3.206,0.844-4.363
		c0.062-0.582,0.115-1.094,0.13-1.553c0.032-0.454,0.064-0.829,0.058-1.119c0.009-0.59,0.033-0.904,0.033-0.904v-0.02
		c0,0-0.004-0.324-0.014-0.934c0.012-0.307-0.014-0.681-0.04-1.127c-0.009-0.225-0.019-0.467-0.028-0.726
		c-0.025-0.257-0.064-0.528-0.085-0.825c-0.136-1.164-0.295-2.651-0.835-4.391c-0.548-1.712-1.475-3.745-3.212-5.467
		c-0.878-0.827-1.903-1.637-3.119-2.195c-0.303-0.139-0.604-0.299-0.923-0.421c-0.324-0.106-0.65-0.214-0.979-0.323
		c-0.616-0.226-1.472-0.383-2.249-0.513c-0.229-0.038-0.332-0.043-0.473-0.058l-0.408-0.041l-0.41-0.039l-0.207-0.021L94.111,0
		h-0.139c-0.737,0.024-1.485,0.036-2.234,0.168c-1.504,0.199-2.994,0.709-4.398,1.396c-1.408,0.694-2.687,1.654-3.84,2.731
		c-1.137,1.104-2.114,2.371-2.903,3.745c-0.771,1.387-1.269,2.92-1.505,4.465c-0.076,0.783-0.151,1.539-0.119,2.399
		c-0.014,0.958,0.161,1.29,0.246,2.185C79.511,18.562,79.978,19.943,80.535,21.236z M83.599,17.089
		c0.172-0.358,0.316-1.294,0.551-1.571c0.171-0.393,0.44-0.847,0.679-1.276c0.53-0.839,1.075-1.593,1.671-2.275
		c0.617-0.665,1.27-1.259,1.99-1.723c0.735-0.44,1.475-0.812,2.236-1.054c0.763-0.227,1.502-0.439,2.256-0.513
		c0.367-0.09,0.747-0.069,1.116-0.115l0.069-0.01l0.035-0.005l0.018-0.002c0.051,0-0.395-0.012-0.193-0.007l0.207,0.001l0.412,0.001
		l0.41,0.001c0.131,0.002,0.299-0.002,0.338,0.012c0.469,0.019,1.27,0.063,1.951,0.225c0.705,0.121,1.398,0.291,2.115,0.469
		c1.404,0.382,2.846,0.964,3.984,1.805c1.176,0.813,1.951,1.873,2.415,2.814c0.225,0.477,0.411,0.918,0.499,1.32
		c0.113,0.397,0.191,0.742,0.206,1.027c0.059,0.551,0.076,0.848,0.077,0.866c-0.001,0.032-0.011,0.333-0.058,0.89
		c-0.01,0.301-0.082,0.645-0.188,1.035c-0.08,0.395-0.25,0.838-0.482,1.317c-0.453,0.95-1.23,2.019-2.404,2.844
		c-1.135,0.854-2.563,1.454-3.941,1.923c-1.407,0.449-2.754,0.843-4.283,1.237c-0.191,0.063-0.391,0.072-0.59,0.122l-0.301,0.077
		l-0.153,0.04c0.068,0.003-0.18,0,0.148,0.008l-0.026,0.003L94.31,26.58l-0.104,0.01c-0.494,0.066-0.993,0.134-1.498,0.201
		c-0.192,0.02-0.375,0.087-0.604,0.103l-0.713,0.036c-0.483,0.014-0.981-0.018-1.492-0.074c-1.024-0.117-2.046-0.48-2.994-1.029
		c-0.938-0.566-1.727-1.389-2.347-2.32c-0.604-0.948-0.998-2.029-1.17-3.133C83.226,19.261,83.365,18.133,83.599,17.089z"/>
	<path fill="#005AA1" d="M142.103,191.457c-0.804-0.502-1.695-1-2.646-1.557c-0.947-0.584-1.997-1.066-3.105-1.586
		c-1.109-0.521-2.293-1.033-3.53-1.588c-2.495-0.975-5.244-1.977-8.196-2.83c-1.475-0.418-3.006-0.785-4.57-1.193
		c-0.391-0.1-0.785-0.199-1.181-0.299c-0.397-0.076-0.798-0.15-1.2-0.227c-0.805-0.152-1.619-0.305-2.438-0.459
		c-3.282-0.682-6.7-1.031-10.183-1.4c-1.74-0.154-3.496-0.23-5.261-0.316l-2.408-0.102c0.97-3.771,1.883-8.785,2.372-14.668
		c0.139-1.666,0.229-3.402,0.289-5.197c0.066-1.797,0.062-3.654-0.104-5.564c-0.27-3.818-1.305-7.844-2.257-12.01
		c-0.985-4.166-1.611-8.471-1.5-12.844c0.044-4.373,0.671-8.816,1.601-13.26c0.922-4.443,1.833-8.887,2.201-13.26
		c0.371-4.375,0.756-8.679,1.019-12.844c0.271-4.165,0.28-8.192,0.057-12.011c-0.22-3.818-0.599-7.428-1.033-10.761
		c-0.894-6.665-2.097-12.219-3.179-16.106c-0.127-0.468-0.254-0.908-0.377-1.327c4.164,0.157,8.33,0.254,12.5,0.251
		c2.479,0.004,4.959-0.033,7.441-0.107c2.481-0.048,4.966-0.162,7.45-0.285c1.241-0.047,2.485-0.149,3.729-0.227
		c1.242-0.082,2.485-0.16,3.73-0.277c2.488-0.199,4.979-0.455,7.471-0.738c2.492-0.304,4.986-0.629,7.483-1.04
		c2.497-0.403,4.997-0.855,7.503-1.465c-2.441-0.833-4.89-1.509-7.34-2.136c-2.451-0.635-4.904-1.184-7.36-1.71
		c-2.456-0.507-4.913-0.987-7.373-1.409c-1.229-0.229-2.46-0.419-3.69-0.612c-1.231-0.189-2.461-0.403-3.693-0.563
		c-2.463-0.347-4.928-0.685-7.394-0.955c-2.466-0.298-4.933-0.56-7.401-0.778c-4.938-0.451-9.881-0.785-14.828-1.012l-0.289-0.014
		l-0.299,0.014c-4.947,0.219-9.891,0.551-14.828,0.998c-2.469,0.223-4.937,0.473-7.402,0.775c-2.467,0.272-4.93,0.602-7.394,0.954
		c-1.231,0.16-2.462,0.368-3.692,0.562c-1.23,0.197-2.463,0.381-3.691,0.611c-2.459,0.425-4.917,0.904-7.373,1.412
		c-2.455,0.529-4.909,1.08-7.359,1.717c-2.451,0.629-4.898,1.308-7.34,2.146c2.507,0.614,5.006,1.069,7.504,1.475
		c2.497,0.413,4.991,0.74,7.484,1.046c2.491,0.284,4.982,0.541,7.47,0.741c1.245,0.119,2.487,0.191,3.731,0.277
		c1.242,0.081,2.486,0.177,3.729,0.226c2.484,0.129,4.969,0.234,7.449,0.284c2.482,0.078,4.963,0.105,7.441,0.104
		c4.049,0.001,8.093-0.096,12.134-0.248c-0.122,0.414-0.246,0.849-0.372,1.312c-1.082,3.888-2.285,9.441-3.179,16.106
		c-0.435,3.333-0.813,6.942-1.033,10.761c-0.224,3.818-0.214,7.846,0.057,12.011c0.263,4.165,0.647,8.47,1.019,12.844
		c0.368,4.373,1.279,8.816,2.201,13.26c0.93,4.443,1.557,8.887,1.601,13.26c0.111,4.373-0.515,8.678-1.5,12.844
		c-0.952,4.166-1.987,8.191-2.257,12.01c-0.165,1.91-0.17,3.768-0.104,5.564c0.06,1.795,0.15,3.531,0.289,5.197
		c0.491,5.902,1.408,10.928,2.381,14.701c-0.633,0.012-1.266,0.021-1.896,0.043c-1.76,0.098-3.512,0.227-5.248,0.361
		c-0.867,0.076-1.732,0.125-2.59,0.225c-0.856,0.109-1.709,0.219-2.556,0.326c-1.692,0.236-3.362,0.449-4.995,0.738
		c-1.632,0.32-3.236,0.602-4.796,0.953c-1.562,0.326-3.086,0.656-4.553,1.09c-1.468,0.414-2.897,0.785-4.267,1.199
		c-1.369,0.422-2.682,0.889-3.934,1.336c-1.249,0.465-2.447,0.883-3.573,1.326c-1.13,0.5-2.2,0.947-3.188,1.414
		c-1.988,0.904-3.678,1.719-4.996,2.523c-2.68,1.537-4.168,2.563-4.168,2.563s1.807,0.068,4.895-0.068
		c1.549-0.098,3.41-0.113,5.492-0.174c1.045-0.02,2.139-0.092,3.29-0.139c1.177-0.006,2.399-0.057,3.677-0.084
		c1.278-0.021,2.586-0.139,3.959-0.146s2.779-0.07,4.226-0.104c0.724-0.016,1.453-0.051,2.19-0.09c0.74-0.01,1.491-0.02,2.25-0.029
		c1.518-0.002,3.055-0.082,4.62-0.131c1.569-0.01,3.163-0.018,4.771-0.051c1.608-0.049,3.233-0.09,4.874-0.076
		c1.64-0.012,3.29-0.027,4.944-0.072c1.655,0.004,3.316,0.01,4.979,0.016l2.49-0.023l2.481,0.043c1.653,0.014,3.3,0.025,4.933,0.037
		c3.258,0.119,6.484,0.096,9.586,0.24c3.124,0.055,6.113,0.246,8.984,0.361c1.449,0.002,2.809,0.199,4.164,0.26
		c1.348,0.088,2.672,0.133,3.92,0.246c1.248,0.111,2.447,0.24,3.604,0.324c0.581,0.043,1.146,0.084,1.696,0.123
		c0.55,0.045,1.064,0.141,1.581,0.189c1.029,0.115,1.99,0.248,2.9,0.33c0.908,0.09,1.752,0.164,2.488,0.299
		c2.977,0.479,4.818,0.645,4.818,0.645s-1.313-1.186-3.855-3.074C143.651,192.376,142.908,191.949,142.103,191.457z"/>
</g>
</svg>
