<?xml version="1.0" encoding="utf-8"?>
<!-- Generator: Adobe Illustrator 16.0.0, SVG Export Plug-In . SVG Version: 6.00 Build 0)  -->
<!DOCTYPE svg PUBLIC "-//W3C//DTD SVG 1.1//EN" "http://www.w3.org/Graphics/SVG/1.1/DTD/svg11.dtd">
<svg version="1.1" id="Calque_1" xmlns="http://www.w3.org/2000/svg" xmlns:xlink="http://www.w3.org/1999/xlink" x="0px" y="0px"
	 width="105px" height="105px" viewBox="0 0 105 105" enable-background="new 0 0 105 105" xml:space="preserve">
<g>
	<path fill="#035BA1" d="M90.5,105h-76C6.505,105,0,98.496,0,90.5v-76C0,6.505,6.505,0,14.5,0h76C98.496,0,105,6.505,105,14.5v76
		C105,98.496,98.496,105,90.5,105z M14.5,5C9.262,5,5,9.262,5,14.5v76c0,5.238,4.262,9.5,9.5,9.5h76c5.238,0,9.5-4.262,9.5-9.5v-76
		c0-5.238-4.262-9.5-9.5-9.5H14.5z"/>
</g>
<g>
	<g>
		<path fill="#035BA1" d="M82.25,34h-59.5c-2.485,0-4.5-2.015-4.5-4.5s2.015-4.5,4.5-4.5h59.5c2.485,0,4.5,2.015,4.5,4.5
			S84.736,34,82.25,34z"/>
	</g>
	<g>
		<path fill="#035BA1" d="M82.25,57h-59.5c-2.485,0-4.5-2.016-4.5-4.5c0-2.485,2.015-4.5,4.5-4.5h59.5c2.485,0,4.5,2.015,4.5,4.5
			C86.75,54.985,84.736,57,82.25,57z"/>
	</g>
	<g>
		<path fill="#035BA1" d="M82.25,80h-59.5c-2.485,0-4.5-2.015-4.5-4.5s2.015-4.5,4.5-4.5h59.5c2.485,0,4.5,2.015,4.5,4.5
			S84.736,80,82.25,80z"/>
	</g>
</g>
</svg>
