<?xml version="1.0" encoding="utf-8"?>
<!-- Generator: Adobe Illustrator 15.1.0, SVG Export Plug-In . SVG Version: 6.00 Build 0)  -->
<!DOCTYPE svg PUBLIC "-//W3C//DTD SVG 1.1//EN" "http://www.w3.org/Graphics/SVG/1.1/DTD/svg11.dtd">
<svg version="1.1" id="Calque_1" xmlns="http://www.w3.org/2000/svg" xmlns:xlink="http://www.w3.org/1999/xlink" x="0px" y="0px"
	 width="353.33px" height="40px" viewBox="0 0 353.33 40" enable-background="new 0 0 353.33 40" xml:space="preserve">
<g>
	<g>
		<g>
			<path fill="#414242" d="M351.35,3.982v32.031H1.984V3.982H351.35 M353.334,1.998H0v36h353.334V1.998L353.334,1.998z"/>
		</g>
	</g>
	<polygon fill="#414242" points="342.106,39.996 196.121,39.996 196.121,30.25 206.121,20.084 196.121,9.918 196.121,0 342.106,0 	
		"/>
	<g>
		<path fill="#414242" d="M10.742,19.998c0-2.362,0.243-4.264,0.729-5.704c0.486-1.439,1.208-2.551,2.167-3.332
			c0.958-0.781,2.165-1.172,3.618-1.172c1.072,0,2.013,0.216,2.821,0.647s1.477,1.054,2.003,1.867
			c0.527,0.813,0.94,1.804,1.24,2.971c0.3,1.168,0.45,2.741,0.45,4.723c0,2.344-0.241,4.236-0.722,5.676
			c-0.482,1.44-1.202,2.554-2.16,3.339c-0.959,0.786-2.169,1.18-3.632,1.18c-1.926,0-3.439-0.69-4.538-2.072
			C11.401,26.458,10.742,23.75,10.742,19.998z M13.264,19.998c0,3.279,0.384,5.463,1.152,6.548c0.768,1.086,1.715,1.629,2.841,1.629
			s2.074-0.545,2.842-1.636c0.768-1.09,1.151-3.271,1.151-6.541c0-3.289-0.384-5.475-1.151-6.556
			c-0.768-1.081-1.724-1.622-2.869-1.622c-1.126,0-2.026,0.478-2.698,1.432C13.686,14.469,13.264,16.718,13.264,19.998z"/>
		<path fill="#414242" d="M38.354,19.017c-1.018-0.373-1.771-0.904-2.262-1.595s-0.736-1.518-0.736-2.48
			c0-1.453,0.522-2.676,1.567-3.666s2.435-1.485,4.17-1.485c1.745,0,3.148,0.506,4.211,1.52c1.063,1.013,1.595,2.246,1.595,3.7
			c0,0.927-0.243,1.733-0.729,2.419c-0.486,0.687-1.224,1.215-2.214,1.588c1.227,0.399,2.16,1.045,2.801,1.936
			c0.64,0.89,0.96,1.953,0.96,3.188c0,1.709-0.604,3.144-1.813,4.307s-2.798,1.745-4.77,1.745s-3.562-0.584-4.77-1.752
			c-1.208-1.167-1.813-2.623-1.813-4.368c0-1.299,0.329-2.387,0.988-3.264S37.136,19.335,38.354,19.017z M37.073,24.086
			c0,0.7,0.166,1.377,0.498,2.031s0.825,1.16,1.479,1.52c0.654,0.359,1.358,0.538,2.112,0.538c1.172,0,2.14-0.377,2.903-1.131
			s1.145-1.713,1.145-2.876c0-1.181-0.393-2.157-1.179-2.93c-0.786-0.772-1.77-1.159-2.951-1.159c-1.154,0-2.11,0.382-2.869,1.146
			C37.452,21.987,37.073,22.941,37.073,24.086z M37.863,14.859c0,0.945,0.304,1.718,0.913,2.317s1.399,0.899,2.372,0.899
			c0.945,0,1.719-0.298,2.324-0.893c0.604-0.595,0.906-1.324,0.906-2.188c0-0.899-0.312-1.656-0.934-2.27
			c-0.623-0.613-1.397-0.92-2.324-0.92c-0.936,0-1.713,0.3-2.331,0.899S37.863,14.023,37.863,14.859z"/>
		<path fill="#414242" d="M59.622,29.852h-2.453V14.219c-0.591,0.563-1.365,1.127-2.324,1.69c-0.959,0.563-1.82,0.986-2.583,1.268
			v-2.372c1.372-0.645,2.571-1.426,3.598-2.344s1.753-1.808,2.181-2.671h1.581V29.852z"/>
		<path fill="#414242" d="M73.352,29.852h-2.453V14.219c-0.591,0.563-1.365,1.127-2.324,1.69c-0.959,0.563-1.82,0.986-2.583,1.268
			v-2.372c1.372-0.645,2.571-1.426,3.598-2.344s1.753-1.808,2.181-2.671h1.581V29.852z"/>
		<path fill="#414242" d="M87.948,19.998c0-2.362,0.243-4.264,0.729-5.704c0.486-1.439,1.208-2.551,2.167-3.332
			c0.958-0.781,2.165-1.172,3.618-1.172c1.072,0,2.013,0.216,2.821,0.647s1.477,1.054,2.003,1.867
			c0.527,0.813,0.94,1.804,1.24,2.971c0.3,1.168,0.45,2.741,0.45,4.723c0,2.344-0.241,4.236-0.722,5.676
			c-0.482,1.44-1.202,2.554-2.16,3.339c-0.959,0.786-2.169,1.18-3.632,1.18c-1.926,0-3.439-0.69-4.538-2.072
			C88.606,26.458,87.948,23.75,87.948,19.998z M90.469,19.998c0,3.279,0.384,5.463,1.152,6.548c0.768,1.086,1.715,1.629,2.841,1.629
			s2.074-0.545,2.842-1.636c0.768-1.09,1.151-3.271,1.151-6.541c0-3.289-0.384-5.475-1.151-6.556
			c-0.768-1.081-1.724-1.622-2.869-1.622c-1.126,0-2.026,0.478-2.698,1.432C90.892,14.469,90.469,16.718,90.469,19.998z"/>
		<path fill="#414242" d="M112.991,29.852h-2.453V14.219c-0.591,0.563-1.365,1.127-2.324,1.69c-0.959,0.563-1.82,0.986-2.583,1.268
			v-2.372c1.372-0.645,2.571-1.426,3.598-2.344s1.753-1.808,2.181-2.671h1.581V29.852z"/>
		<path fill="#414242" d="M126.721,29.852h-2.453V14.219c-0.591,0.563-1.365,1.127-2.324,1.69c-0.959,0.563-1.82,0.986-2.583,1.268
			v-2.372c1.372-0.645,2.571-1.426,3.598-2.344s1.753-1.808,2.181-2.671h1.581V29.852z"/>
		<path fill="#414242" d="M154.046,14.765l-2.439,0.19c-0.218-0.963-0.527-1.663-0.927-2.099c-0.664-0.7-1.481-1.05-2.453-1.05
			c-0.782,0-1.468,0.218-2.058,0.654c-0.772,0.563-1.381,1.386-1.826,2.467c-0.445,1.081-0.677,2.621-0.695,4.62
			c0.591-0.899,1.313-1.567,2.167-2.003c0.854-0.437,1.749-0.654,2.685-0.654c1.635,0,3.028,0.602,4.177,1.806
			s1.724,2.76,1.724,4.668c0,1.254-0.271,2.419-0.811,3.495c-0.541,1.077-1.283,1.901-2.229,2.474
			c-0.945,0.573-2.017,0.859-3.216,0.859c-2.044,0-3.711-0.752-5.001-2.256c-1.291-1.504-1.936-3.981-1.936-7.435
			c0-3.861,0.713-6.669,2.14-8.423c1.245-1.526,2.921-2.289,5.029-2.289c1.572,0,2.859,0.44,3.864,1.321
			C153.245,11.993,153.847,13.211,154.046,14.765z M144.029,23.378c0,0.845,0.179,1.653,0.538,2.426s0.861,1.36,1.506,1.765
			c0.645,0.404,1.322,0.606,2.031,0.606c1.036,0,1.926-0.418,2.671-1.254s1.118-1.972,1.118-3.407c0-1.381-0.368-2.469-1.104-3.264
			s-1.663-1.192-2.78-1.192c-1.108,0-2.049,0.397-2.821,1.192C144.416,21.045,144.029,22.088,144.029,23.378z"/>
		<path fill="#414242" d="M157.133,24.577l2.454-0.327c0.281,1.39,0.761,2.392,1.438,3.005s1.501,0.92,2.474,0.92
			c1.154,0,2.128-0.399,2.923-1.199s1.193-1.79,1.193-2.971c0-1.127-0.368-2.056-1.104-2.787c-0.736-0.731-1.672-1.098-2.808-1.098
			c-0.463,0-1.041,0.091-1.731,0.272l0.272-2.153c0.164,0.019,0.295,0.027,0.396,0.027c1.044,0,1.985-0.272,2.821-0.817
			s1.254-1.386,1.254-2.521c0-0.899-0.304-1.645-0.913-2.235c-0.609-0.59-1.395-0.886-2.357-0.886c-0.954,0-1.75,0.3-2.385,0.899
			c-0.636,0.6-1.045,1.499-1.227,2.699l-2.453-0.437c0.3-1.645,0.981-2.919,2.044-3.823c1.063-0.903,2.385-1.355,3.966-1.355
			c1.09,0,2.094,0.233,3.012,0.701c0.918,0.469,1.62,1.106,2.106,1.915c0.486,0.809,0.729,1.668,0.729,2.576
			c0,0.863-0.231,1.649-0.695,2.357c-0.463,0.709-1.15,1.272-2.058,1.69c1.181,0.272,2.099,0.838,2.753,1.696
			c0.654,0.859,0.981,1.934,0.981,3.224c0,1.744-0.636,3.223-1.908,4.436c-1.272,1.214-2.88,1.82-4.825,1.82
			c-1.753,0-3.209-0.522-4.368-1.567C157.958,27.594,157.296,26.239,157.133,24.577z"/>
		<path fill="#414242" d="M173.085,12.488v-2.357h12.934v1.907c-1.271,1.354-2.532,3.153-3.781,5.397
			c-1.25,2.244-2.215,4.552-2.896,6.924c-0.49,1.672-0.804,3.502-0.94,5.492h-2.521c0.027-1.572,0.336-3.471,0.927-5.697
			c0.59-2.226,1.438-4.372,2.542-6.439c1.104-2.066,2.278-3.81,3.523-5.227H173.085z"/>
	</g>
	<g>
		<path fill="#FFFFFF" d="M209.881,13.489l2.131-0.207c0.128,0.716,0.388,1.24,0.78,1.576c0.393,0.335,0.921,0.503,1.587,0.503
			c0.705,0,1.237-0.149,1.595-0.447c0.357-0.299,0.536-0.647,0.536-1.047c0-0.257-0.075-0.475-0.226-0.655
			c-0.15-0.18-0.413-0.337-0.788-0.47c-0.256-0.089-0.841-0.246-1.753-0.474c-1.175-0.291-1.998-0.648-2.472-1.072
			c-0.666-0.598-0.999-1.325-0.999-2.184c0-0.552,0.157-1.068,0.47-1.55c0.313-0.48,0.765-0.847,1.354-1.099
			c0.589-0.252,1.301-0.377,2.135-0.377c1.361,0,2.386,0.298,3.074,0.895c0.688,0.598,1.049,1.394,1.084,2.391l-2.19,0.096
			c-0.094-0.558-0.295-0.958-0.603-1.202c-0.309-0.244-0.771-0.366-1.388-0.366c-0.637,0-1.135,0.131-1.495,0.392
			c-0.231,0.168-0.348,0.393-0.348,0.674c0,0.257,0.108,0.476,0.326,0.658c0.276,0.232,0.947,0.474,2.013,0.726
			c1.065,0.251,1.853,0.512,2.363,0.78s0.91,0.637,1.199,1.103c0.288,0.466,0.433,1.042,0.433,1.728
			c0,0.622-0.173,1.204-0.518,1.746c-0.346,0.543-0.834,0.946-1.466,1.21c-0.631,0.264-1.418,0.396-2.36,0.396
			c-1.371,0-2.424-0.316-3.159-0.95C210.463,15.627,210.023,14.703,209.881,13.489z"/>
		<path fill="#FFFFFF" d="M225.078,14.518l2.072,0.348c-0.267,0.76-0.688,1.339-1.262,1.735c-0.575,0.397-1.294,0.596-2.157,0.596
			c-1.366,0-2.377-0.446-3.033-1.339c-0.518-0.716-0.777-1.618-0.777-2.708c0-1.303,0.341-2.322,1.021-3.06s1.541-1.106,2.582-1.106
			c1.169,0,2.092,0.386,2.768,1.158c0.676,0.771,0.999,1.954,0.969,3.548h-5.208c0.015,0.616,0.182,1.096,0.503,1.438
			c0.32,0.344,0.72,0.515,1.198,0.515c0.325,0,0.6-0.089,0.821-0.267S224.965,14.913,225.078,14.518z M225.197,12.417
			c-0.016-0.603-0.171-1.06-0.467-1.373c-0.296-0.313-0.656-0.47-1.08-0.47c-0.454,0-0.829,0.165-1.125,0.496
			c-0.296,0.33-0.441,0.779-0.437,1.347H225.197z"/>
		<path fill="#FFFFFF" d="M230.945,17.019h-2.079V9.161h1.931v1.117c0.331-0.527,0.628-0.875,0.892-1.043s0.563-0.252,0.899-0.252
			c0.474,0,0.93,0.131,1.368,0.393l-0.644,1.813c-0.35-0.227-0.676-0.341-0.977-0.341c-0.291,0-0.537,0.081-0.739,0.241
			c-0.203,0.16-0.362,0.45-0.478,0.869c-0.116,0.419-0.174,1.297-0.174,2.634V17.019z"/>
		<path fill="#FFFFFF" d="M237.013,17.019l-3.167-7.857h2.183l1.48,4.01l0.429,1.34c0.113-0.341,0.186-0.564,0.215-0.674
			c0.069-0.222,0.143-0.443,0.222-0.666l1.495-4.01h2.138l-3.122,7.857H237.013z"/>
		<path fill="#FFFFFF" d="M243.279,8.096V6.172h2.079v1.924H243.279z M243.279,17.019V9.161h2.079v7.857H243.279z"/>
		<path fill="#FFFFFF" d="M254.341,11.484l-2.05,0.37c-0.069-0.409-0.226-0.718-0.47-0.925s-0.562-0.311-0.951-0.311
			c-0.518,0-0.931,0.179-1.239,0.536s-0.462,0.956-0.462,1.794c0,0.933,0.156,1.591,0.47,1.976c0.313,0.385,0.733,0.577,1.262,0.577
			c0.395,0,0.717-0.112,0.969-0.337c0.252-0.224,0.429-0.61,0.533-1.157l2.042,0.348c-0.213,0.937-0.619,1.645-1.221,2.123
			c-0.603,0.479-1.409,0.718-2.42,0.718c-1.149,0-2.065-0.362-2.749-1.088c-0.683-0.725-1.024-1.729-1.024-3.011
			c0-1.298,0.343-2.308,1.028-3.03s1.613-1.084,2.782-1.084c0.957,0,1.718,0.206,2.282,0.618
			C253.688,10.014,254.094,10.641,254.341,11.484z"/>
		<path fill="#FFFFFF" d="M260.467,14.518l2.072,0.348c-0.267,0.76-0.688,1.339-1.262,1.735c-0.575,0.397-1.294,0.596-2.157,0.596
			c-1.366,0-2.377-0.446-3.033-1.339c-0.518-0.716-0.777-1.618-0.777-2.708c0-1.303,0.341-2.322,1.021-3.06s1.541-1.106,2.582-1.106
			c1.169,0,2.092,0.386,2.768,1.158c0.676,0.771,0.999,1.954,0.969,3.548h-5.208c0.015,0.616,0.182,1.096,0.503,1.438
			c0.32,0.344,0.72,0.515,1.198,0.515c0.325,0,0.6-0.089,0.821-0.267S260.354,14.913,260.467,14.518z M260.586,12.417
			c-0.016-0.603-0.171-1.06-0.467-1.373c-0.296-0.313-0.656-0.47-1.08-0.47c-0.454,0-0.829,0.165-1.125,0.496
			c-0.296,0.33-0.441,0.779-0.437,1.347H260.586z"/>
		<path fill="#FFFFFF" d="M271.625,6.128c1.051,0,1.872,0.375,2.464,1.124c0.705,0.888,1.058,2.36,1.058,4.417
			c0,2.053-0.354,3.527-1.065,4.425c-0.587,0.74-1.405,1.11-2.456,1.11c-1.056,0-1.906-0.406-2.553-1.218
			c-0.646-0.811-0.969-2.258-0.969-4.339c0-2.042,0.354-3.513,1.065-4.41C269.756,6.497,270.574,6.128,271.625,6.128z
			 M271.625,7.852c-0.252,0-0.477,0.08-0.673,0.24c-0.198,0.16-0.351,0.448-0.459,0.862c-0.144,0.537-0.215,1.442-0.215,2.715
			c0,1.273,0.064,2.147,0.192,2.623c0.128,0.477,0.29,0.793,0.484,0.951c0.195,0.158,0.418,0.236,0.67,0.236s0.476-0.08,0.673-0.24
			s0.351-0.447,0.459-0.862c0.144-0.532,0.215-1.435,0.215-2.708c0-1.272-0.064-2.146-0.192-2.622
			c-0.128-0.477-0.29-0.795-0.484-0.955C272.1,7.932,271.877,7.852,271.625,7.852z"/>
		<path fill="#FFFFFF" d="M276.93,14.939h2.079v1.487c0,0.602-0.052,1.077-0.155,1.425s-0.3,0.659-0.589,0.936
			c-0.288,0.276-0.654,0.493-1.099,0.651l-0.407-0.858c0.42-0.139,0.718-0.328,0.896-0.569c0.178-0.242,0.271-0.572,0.281-0.992
			h-1.006V14.939z"/>
		<path fill="#FFFFFF" d="M284.262,6.128c1.051,0,1.872,0.375,2.464,1.124c0.705,0.888,1.058,2.36,1.058,4.417
			c0,2.053-0.354,3.527-1.065,4.425c-0.587,0.74-1.405,1.11-2.456,1.11c-1.056,0-1.906-0.406-2.553-1.218
			c-0.646-0.811-0.969-2.258-0.969-4.339c0-2.042,0.354-3.513,1.065-4.41C282.393,6.497,283.211,6.128,284.262,6.128z
			 M284.262,7.852c-0.252,0-0.477,0.08-0.673,0.24c-0.198,0.16-0.351,0.448-0.459,0.862c-0.144,0.537-0.215,1.442-0.215,2.715
			c0,1.273,0.064,2.147,0.192,2.623c0.128,0.477,0.29,0.793,0.484,0.951c0.195,0.158,0.418,0.236,0.67,0.236s0.476-0.08,0.673-0.24
			s0.351-0.447,0.459-0.862c0.144-0.532,0.215-1.435,0.215-2.708c0-1.272-0.064-2.146-0.192-2.622
			c-0.128-0.477-0.29-0.795-0.484-0.955C284.736,7.932,284.514,7.852,284.262,7.852z"/>
		<path fill="#FFFFFF" d="M289.204,14.229l2.072-0.215c0.059,0.469,0.234,0.84,0.525,1.113c0.291,0.274,0.626,0.411,1.006,0.411
			c0.435,0,0.802-0.177,1.103-0.529s0.451-0.884,0.451-1.595c0-0.665-0.149-1.165-0.447-1.498c-0.299-0.333-0.688-0.499-1.165-0.499
			c-0.598,0-1.133,0.264-1.605,0.792l-1.688-0.245l1.065-5.645h5.497v1.945h-3.921l-0.325,1.843c0.463-0.232,0.937-0.348,1.42-0.348
			c0.923,0,1.704,0.335,2.346,1.006s0.962,1.542,0.962,2.612c0,0.893-0.259,1.689-0.777,2.39c-0.705,0.957-1.685,1.436-2.938,1.436
			c-1.001,0-1.817-0.27-2.448-0.807C289.705,15.859,289.328,15.137,289.204,14.229z"/>
		<path fill="#FFFFFF" d="M304.913,6.438l-0.437,2.05c-0.42-0.42-1.031-0.629-1.835-0.629c-0.805,0-1.455,0.288-1.953,0.865
			c-0.281,0.325-0.481,0.732-0.6,1.221h4.069l-0.236,1.146h-3.981c-0.005,0.114-0.007,0.26-0.007,0.437
			c0,0.173,0.005,0.354,0.015,0.541h3.766l-0.236,1.146h-3.374c0.123,0.527,0.313,0.942,0.569,1.243
			c0.493,0.582,1.135,0.873,1.924,0.873c0.947,0,1.702-0.291,2.265-0.873v2.264c-0.642,0.32-1.389,0.481-2.242,0.481
			c-1.44,0-2.624-0.493-3.552-1.48c-0.631-0.67-1.048-1.507-1.25-2.508h-1.095l0.236-1.146h0.725
			c-0.005-0.119-0.007-0.244-0.007-0.378c0-0.227,0.005-0.427,0.015-0.6h-0.969l0.236-1.146h0.881
			c0.207-0.981,0.618-1.803,1.235-2.464c0.933-0.996,2.158-1.494,3.677-1.494C303.581,5.987,304.301,6.138,304.913,6.438z"/>
		<path fill="#FFFFFF" d="M305.363,17.204l2.687-11.217h1.561l-2.715,11.217H305.363z"/>
		<path fill="#FFFFFF" d="M310.528,9.161h1.916v1.073c0.686-0.834,1.502-1.251,2.449-1.251c0.503,0,0.939,0.104,1.31,0.311
			c0.37,0.208,0.673,0.521,0.91,0.94c0.345-0.42,0.718-0.732,1.117-0.94c0.399-0.207,0.826-0.311,1.28-0.311
			c0.576,0,1.065,0.117,1.465,0.352s0.697,0.578,0.895,1.032c0.144,0.336,0.215,0.878,0.215,1.628v5.023h-2.079v-4.491
			c0-0.779-0.071-1.282-0.215-1.509c-0.192-0.296-0.488-0.444-0.888-0.444c-0.291,0-0.564,0.089-0.821,0.267
			c-0.256,0.178-0.441,0.438-0.555,0.78s-0.17,0.885-0.17,1.624v3.773h-2.079v-4.306c0-0.765-0.037-1.258-0.111-1.48
			c-0.074-0.222-0.188-0.387-0.344-0.495s-0.366-0.163-0.633-0.163c-0.32,0-0.609,0.087-0.865,0.259
			c-0.257,0.173-0.44,0.422-0.552,0.748c-0.111,0.325-0.166,0.865-0.166,1.62v3.817h-2.079V9.161z"/>
		<path fill="#FFFFFF" d="M324.157,8.096V6.172h2.079v1.924H324.157z M324.157,17.019V9.161h2.079v7.857H324.157z"/>
		<path fill="#FFFFFF" d="M335.515,17.019h-2.079v-4.01c0-0.849-0.045-1.397-0.134-1.646s-0.232-0.442-0.433-0.581
			c-0.2-0.138-0.44-0.207-0.722-0.207c-0.359,0-0.683,0.099-0.969,0.296s-0.482,0.459-0.589,0.784
			c-0.105,0.326-0.158,0.928-0.158,1.806v3.559h-2.079V9.161h1.931v1.154c0.686-0.888,1.549-1.332,2.59-1.332
			c0.459,0,0.878,0.083,1.258,0.248s0.667,0.376,0.862,0.633c0.194,0.256,0.33,0.547,0.406,0.873
			c0.076,0.325,0.115,0.791,0.115,1.398V17.019z"/>
		<path fill="#FFFFFF" d="M212.803,29.457v-2.818h-2.841v-1.946h2.841v-2.818h1.895v2.818h2.849v1.946h-2.849v2.818H212.803z"/>
		<path fill="#FFFFFF" d="M223.421,23.161h1.938v1.154c0.252-0.395,0.592-0.716,1.021-0.962c0.429-0.247,0.905-0.37,1.428-0.37
			c0.912,0,1.687,0.357,2.323,1.072c0.637,0.716,0.954,1.712,0.954,2.989c0,1.313-0.32,2.332-0.962,3.06
			c-0.641,0.728-1.418,1.092-2.33,1.092c-0.435,0-0.828-0.087-1.181-0.259c-0.353-0.173-0.724-0.469-1.113-0.889v3.959h-2.079
			V23.161z M225.478,26.956c0,0.884,0.176,1.536,0.525,1.957c0.351,0.422,0.777,0.633,1.28,0.633c0.483,0,0.886-0.193,1.206-0.58
			c0.32-0.388,0.481-1.022,0.481-1.905c0-0.824-0.166-1.436-0.496-1.835c-0.331-0.4-0.74-0.6-1.229-0.6
			c-0.508,0-0.93,0.196-1.265,0.588C225.646,25.606,225.478,26.188,225.478,26.956z"/>
		<path fill="#FFFFFF" d="M234.727,31.019h-2.079v-7.857h1.931v1.117c0.331-0.528,0.628-0.876,0.892-1.043
			c0.264-0.168,0.563-0.252,0.899-0.252c0.474,0,0.93,0.131,1.368,0.392l-0.644,1.813c-0.35-0.228-0.676-0.341-0.977-0.341
			c-0.291,0-0.537,0.08-0.739,0.24c-0.203,0.161-0.362,0.45-0.478,0.87c-0.116,0.419-0.174,1.297-0.174,2.634V31.019z"/>
		<path fill="#FFFFFF" d="M238.633,22.096v-1.924h2.079v1.924H238.633z M238.633,31.019v-7.857h2.079v7.857H238.633z"/>
		<path fill="#FFFFFF" d="M241.844,31.019l2.834-4.047l-2.716-3.811h2.538l1.391,2.16l1.465-2.16h2.442l-2.664,3.722l2.908,4.136
			h-2.553l-1.599-2.435l-1.612,2.435H241.844z"/>
		<path fill="#FFFFFF" d="M257.034,25.559l-1.887-0.341c0.212-0.76,0.577-1.322,1.095-1.687c0.518-0.365,1.287-0.548,2.309-0.548
			c0.928,0,1.618,0.109,2.071,0.329c0.454,0.22,0.773,0.498,0.959,0.836c0.185,0.338,0.277,0.958,0.277,1.861l-0.022,2.427
			c0,0.69,0.033,1.199,0.1,1.527s0.191,0.68,0.374,1.055h-2.057c-0.055-0.138-0.121-0.343-0.2-0.614
			c-0.034-0.123-0.06-0.204-0.074-0.244c-0.354,0.346-0.734,0.604-1.14,0.777c-0.404,0.172-0.836,0.259-1.294,0.259
			c-0.81,0-1.447-0.22-1.913-0.658c-0.466-0.439-0.699-0.994-0.699-1.665c0-0.444,0.106-0.84,0.318-1.188s0.509-0.614,0.892-0.799
			c0.382-0.186,0.934-0.347,1.653-0.485c0.972-0.183,1.646-0.353,2.021-0.511v-0.207c0-0.399-0.1-0.684-0.296-0.854
			c-0.198-0.17-0.57-0.255-1.118-0.255c-0.369,0-0.658,0.072-0.865,0.218S257.162,25.193,257.034,25.559z M259.816,27.245
			c-0.267,0.089-0.688,0.195-1.266,0.318s-0.954,0.244-1.132,0.362c-0.271,0.192-0.407,0.437-0.407,0.732
			c0,0.291,0.108,0.543,0.325,0.755c0.218,0.212,0.493,0.318,0.829,0.318c0.375,0,0.732-0.124,1.073-0.37
			c0.251-0.188,0.416-0.417,0.495-0.688c0.055-0.178,0.082-0.516,0.082-1.014V27.245z"/>
		<path fill="#FFFFFF" d="M263.849,23.161h1.938v1.154c0.252-0.395,0.592-0.716,1.021-0.962c0.429-0.247,0.905-0.37,1.428-0.37
			c0.912,0,1.687,0.357,2.323,1.072c0.637,0.716,0.954,1.712,0.954,2.989c0,1.313-0.32,2.332-0.962,3.06
			c-0.641,0.728-1.418,1.092-2.33,1.092c-0.435,0-0.828-0.087-1.181-0.259c-0.353-0.173-0.724-0.469-1.113-0.889v3.959h-2.079
			V23.161z M265.905,26.956c0,0.884,0.176,1.536,0.525,1.957c0.351,0.422,0.777,0.633,1.28,0.633c0.483,0,0.886-0.193,1.206-0.58
			c0.32-0.388,0.481-1.022,0.481-1.905c0-0.824-0.166-1.436-0.496-1.835c-0.331-0.4-0.74-0.6-1.229-0.6
			c-0.508,0-0.93,0.196-1.265,0.588C266.073,25.606,265.905,26.188,265.905,26.956z"/>
		<path fill="#FFFFFF" d="M273.104,23.161h1.938v1.154c0.252-0.395,0.592-0.716,1.021-0.962c0.429-0.247,0.905-0.37,1.428-0.37
			c0.912,0,1.687,0.357,2.323,1.072c0.637,0.716,0.954,1.712,0.954,2.989c0,1.313-0.32,2.332-0.962,3.06
			c-0.641,0.728-1.418,1.092-2.33,1.092c-0.435,0-0.828-0.087-1.181-0.259c-0.353-0.173-0.724-0.469-1.113-0.889v3.959h-2.079
			V23.161z M275.161,26.956c0,0.884,0.176,1.536,0.525,1.957c0.351,0.422,0.777,0.633,1.28,0.633c0.483,0,0.886-0.193,1.206-0.58
			c0.32-0.388,0.481-1.022,0.481-1.905c0-0.824-0.166-1.436-0.496-1.835c-0.331-0.4-0.74-0.6-1.229-0.6
			c-0.508,0-0.93,0.196-1.265,0.588C275.329,25.606,275.161,26.188,275.161,26.956z"/>
		<path fill="#FFFFFF" d="M286.97,28.518l2.072,0.348c-0.267,0.76-0.688,1.338-1.262,1.735c-0.575,0.397-1.294,0.596-2.157,0.596
			c-1.366,0-2.377-0.446-3.033-1.34c-0.518-0.715-0.777-1.617-0.777-2.708c0-1.302,0.341-2.321,1.021-3.059s1.541-1.106,2.582-1.106
			c1.169,0,2.092,0.386,2.768,1.158c0.676,0.771,0.999,1.954,0.969,3.548h-5.208c0.015,0.616,0.182,1.096,0.503,1.438
			c0.32,0.343,0.72,0.515,1.198,0.515c0.325,0,0.6-0.089,0.821-0.267S286.856,28.912,286.97,28.518z M287.089,26.416
			c-0.016-0.602-0.171-1.059-0.467-1.372s-0.656-0.47-1.08-0.47c-0.454,0-0.829,0.165-1.125,0.495
			c-0.296,0.331-0.441,0.78-0.437,1.347H287.089z"/>
		<path fill="#FFFFFF" d="M290.848,31.019V20.172h2.079v10.847H290.848z"/>
	</g>
</g>
</svg>
