<svg version="1.1" id="Calque_1" xmlns="http://www.w3.org/2000/svg" xmlns:xlink="http://www.w3.org/1999/xlink" x="0px" y="0px"
	 viewBox="0 0 153.297 166.76" enable-background="new 0 0 153.297 166.76"
	 xml:space="preserve">
<g>
	<path fill="#FFFFFF" d="M153.285,151.48l-0.003-0.131l-0.013-0.524l-0.025-1.045c-0.268-11.13-0.521-21.653-0.754-31.366
		c-0.483-19.427-0.822-35.616-1.165-46.948c-0.197-7.037-0.343-12.196-0.424-15.101c0.329-0.181,0.64-0.405,0.903-0.702
		c1.238-1.393,1.113-3.526-0.279-4.765c-1.809-1.607-3.651-3.178-5.528-4.712c-1.866-1.545-3.783-3.037-5.726-4.501
		c-0.971-0.733-1.958-1.447-2.948-2.159c-0.995-0.707-1.998-1.405-3.017-2.086c-0.859-0.576-1.736-1.134-2.621-1.683
		c0.277-0.051,0.502-0.273,0.533-0.567c0.038-0.359-0.222-0.681-0.581-0.719c0,0-0.872-0.093-2.52-0.268
		c-0.372-0.215-0.741-0.433-1.126-0.634c0.116,0.189,0.241,0.369,0.362,0.553c-0.081-0.009-0.153-0.016-0.238-0.025
		c-0.044-0.176-0.077-0.352-0.124-0.527c-0.045,0.167-0.076,0.334-0.118,0.502c-0.284-0.03-0.575-0.061-0.891-0.095
		c-3.035-0.309-7.487-0.727-13.153-1.186c-2.834-0.221-5.97-0.466-9.385-0.733c-3.415-0.228-7.108-0.474-11.055-0.737
		c-3.946-0.288-8.145-0.462-12.571-0.718c-4.428-0.243-9.082-0.501-13.938-0.701c-2.429-0.102-4.907-0.206-7.434-0.313
		c-1.264-0.048-2.538-0.097-3.825-0.146l-0.967-0.037c-0.427-0.004-0.987,0.012-1.478,0.031c-1.014,0.073-2.032,0.229-3.033,0.495
		c-4.009,1.062-7.633,3.785-9.78,7.56c-0.255,0.478-0.502,0.963-0.735,1.456c-0.204,0.505-0.409,1.015-0.588,1.533
		c-0.154,0.536-0.305,1.034-0.436,1.616l-0.164,0.972l-0.068,0.489c-0.02,0.154-0.046,0.362-0.047,0.413l-0.038,0.513l-0.02,0.257
		l-0.01,0.129l-0.014,0.444l-0.026,1.034c-0.018,0.691-0.035,1.384-0.053,2.08c-0.309,11.13-0.456,22.867-0.46,35.009
		c0.056,12.142,0.32,24.688,0.682,37.437c0.088,3.416,0.176,6.848,0.264,10.288c-1.736-0.063-4.105-0.151-7.03-0.26
		c-3.312-0.112-7.332-0.249-11.944-0.405c-1.153-0.036-2.343-0.074-3.568-0.113c-1.292-0.018-2.351-0.098-3.352-0.424
		c-2.097-0.635-4.018-2.179-5.071-4.278c-0.528-1.044-0.82-2.217-0.857-3.414c-0.021-0.536,0.018-1.362,0.039-2.098
		c0.023-0.752,0.048-1.51,0.071-2.275c0.098-3.06,0.197-6.223,0.301-9.476c0.184-6.504,0.377-13.363,0.577-20.459
		c0.181-7.095,0.367-14.427,0.558-21.878c0.166-7.45,0.335-15.019,0.504-22.588c0.171-7.569,0.418-15.138,0.684-22.588
		c0.064-1.863,0.129-3.718,0.192-5.564c0.032,0.141,0.06-1.025,0.126-0.889c0.025-0.059,0.042-0.116,0.052-0.178
		c0.041-0.11,0.076-0.221,0.108-0.332c0.147-0.439,0.341-0.861,0.609-1.234c0.499-0.773,1.241-1.351,2.01-1.769
		c0.401-0.183,0.809-0.341,1.235-0.42c0.212-0.046,0.43-0.061,0.645-0.088c0.257,0.007,0.319-0.021,0.866-0.012
		c7.096-0.002,13.955-0.116,20.459-0.354c6.505-0.216,12.654-0.504,18.331-0.84c5.677-0.325,10.88-0.698,15.492-1.091
		c2.306-0.203,4.464-0.392,6.46-0.567c1.996-0.205,3.829-0.394,5.484-0.563c2.501-0.267,4.596-0.516,6.237-0.724
		c-0.14,0.778-0.271,1.557-0.401,2.335c-0.257,1.652-0.489,3.303-0.683,4.955c-0.396,3.303-0.69,6.606-0.91,9.91L85.874,23.5
		c-0.074,1.294,0.914,2.404,2.209,2.479l0.31,0.018c1.768,0.102,3.534,0.214,5.302,0.274c1.767,0.084,3.534,0.117,5.302,0.161
		c3.534,0.055,7.068,0.063,10.603-0.029l0.149-0.004c0.766-0.023,1.521-0.348,2.072-0.963c1.067-1.192,0.967-3.024-0.226-4.092
		c-1.803-1.614-3.635-3.196-5.496-4.747c-1.853-1.56-3.748-3.074-5.665-4.565c-1.925-1.484-3.869-2.946-5.871-4.347
		c-0.935-0.658-1.883-1.301-2.845-1.93c0.206-0.029,0.321-0.045,0.321-0.045c0.218-0.031,0.398-0.202,0.43-0.43
		c0.039-0.276-0.153-0.531-0.43-0.57c0,0-0.887-0.124-2.537-0.355c-0.372-0.229-0.73-0.474-1.109-0.696
		c0.142,0.208,0.296,0.401,0.439,0.606c-0.107-0.014-0.213-0.028-0.326-0.042c-0.04-0.188-0.07-0.375-0.113-0.563
		c-0.041,0.178-0.069,0.356-0.107,0.535c-1.698-0.219-3.932-0.487-6.653-0.777c-1.655-0.17-3.488-0.358-5.484-0.563
		c-1.996-0.175-4.154-0.364-6.46-0.567c-4.612-0.394-9.815-0.767-15.492-1.091c-5.677-0.335-11.826-0.624-18.331-0.84
		C29.36,0.118,22.5,0.004,15.405,0.002c-0.34-0.012-1.165,0.035-1.797,0.08c-0.667,0.078-1.34,0.175-1.997,0.333
		c-1.322,0.303-2.597,0.808-3.8,1.443c-2.385,1.307-4.42,3.263-5.779,5.639c-0.7,1.175-1.218,2.462-1.562,3.789l-0.234,1.003
		c-0.062,0.393-0.113,0.79-0.157,1.187C-0.033,14.518,0.042,14.281,0,15.341c0.064,1.846,0.128,3.701,0.192,5.564
		c0.266,7.45,0.513,15.019,0.685,22.588c0.169,7.569,0.337,15.138,0.503,22.588c0.19,7.451,0.378,14.783,0.559,21.878
		c0.2,7.096,0.394,13.955,0.577,20.459c0.103,3.253,0.203,6.416,0.3,9.476c0.024,0.766,0.048,1.523,0.072,2.275
		c0.03,0.769,0.025,1.435,0.112,2.371c0.169,1.746,0.715,3.419,1.564,4.857c1.696,2.893,4.504,4.824,7.401,5.502
		c1.498,0.377,2.99,0.345,4.142,0.29c1.226-0.039,2.415-0.077,3.568-0.113c4.612-0.156,8.633-0.293,11.944-0.405
		c2.943-0.109,5.323-0.197,7.062-0.262c0.066,2.567,0.132,5.137,0.197,7.714c0.071,3.226,0.142,6.457,0.212,9.691l0.023,1.213
		l0.014,0.633l0.054,0.922c0.078,1.229,0.347,2.448,0.711,3.628c0.783,2.348,2.126,4.485,3.868,6.202
		c1.759,1.701,3.917,2.983,6.256,3.701c0.61,0.157,1.136,0.312,1.827,0.425c0.654,0.102,1.566,0.209,1.832,0.195l0.606,0.021
		l0.408,0.006l0.151-0.002l0.304-0.006l1.213-0.021c3.234-0.055,6.466-0.109,9.691-0.164c6.45-0.109,12.876-0.218,19.25-0.326
		c12.749-0.247,25.296-0.49,37.438-0.726c3.035-0.063,6.046-0.125,9.027-0.187c1.491-0.031,2.975-0.062,4.451-0.092
		c0.738-0.016,1.474-0.031,2.208-0.046l1.101-0.022l0.553-0.013l0.731-0.044c3.92-0.248,7.601-2.303,9.831-5.347
		c1.133-1.51,1.924-3.255,2.325-5.065c0.117-0.424,0.179-0.972,0.241-1.477l0.043-0.384c0.014-0.127,0.008-0.187,0.013-0.282
		l0.014-0.526l0.007-0.262C153.292,151.411,153.284,151.595,153.285,151.48z M89.319,6.091c0.276-0.039,0.524-0.073,0.761-0.106
		c0.164,0.219,0.317,0.45,0.483,0.667c0.736,0.983,1.493,1.944,2.262,2.893c1.533,1.903,3.122,3.745,4.732,5.564
		c1.617,1.812,3.256,3.602,4.938,5.344c0.016,0.016,0.032,0.032,0.048,0.048c-1.183,0.006-2.365,0.009-3.547,0.027
		c-1.768,0.043-3.535,0.077-5.302,0.161c-0.998,0.034-1.995,0.085-2.992,0.141C90.509,18.409,90.29,15.99,90,13.57
		c-0.193-1.652-0.426-3.303-0.683-4.955c-0.138-0.823-0.274-1.645-0.424-2.468C89.037,6.128,89.185,6.109,89.319,6.091z
		 M129.609,35.987c0.158,0.219,0.318,0.437,0.474,0.659c0.712,1.01,1.447,1.994,2.196,2.963c0.749,0.97,1.513,1.924,2.285,2.869
		c0.776,0.94,1.556,1.877,2.353,2.796c1.365,1.577,2.756,3.127,4.174,4.647c-0.832,0.008-1.665,0.008-2.497,0.023
		c-1.767,0.051-3.533,0.09-5.301,0.187c-0.879,0.035-1.758,0.085-2.637,0.142c-0.058-0.613-0.113-1.226-0.181-1.839
		c-0.174-1.652-0.372-3.303-0.608-4.955c-0.226-1.652-0.497-3.303-0.796-4.955c-0.158-0.81-0.316-1.619-0.486-2.429
		C128.958,36.056,129.302,36.02,129.609,35.987z M147.859,118.414c-0.233,9.713-0.486,20.236-0.754,31.366l-0.025,1.045
		l-0.013,0.524l-0.003,0.131c0-0.026-0.005,0.245-0.001-0.026l-0.02,0.262l-0.039,0.524c-0.008,0.079-0.01,0.195-0.022,0.242
		l-0.037,0.138c-0.052,0.188-0.055,0.344-0.145,0.596c-0.258,0.93-0.719,1.798-1.331,2.547c-1.221,1.517-3.108,2.432-5.036,2.461
		c-5.782-0.113-11.688-0.229-17.695-0.347c-12.142-0.235-24.688-0.479-37.438-0.726c-6.374-0.108-12.8-0.217-19.25-0.326
		c-3.226-0.055-6.457-0.109-9.691-0.164l-1.213-0.021l-0.304-0.006l-0.042-0.001c-0.003,0-0.001,0-0.005,0l-0.605-0.041
		c-0.546-0.018-0.428-0.087-0.574-0.094c-0.106-0.02-0.356-0.11-0.53-0.15c-0.743-0.275-1.419-0.722-1.971-1.29
		c-0.527-0.593-0.911-1.29-1.123-2.023c-0.078-0.376-0.159-0.748-0.153-1.137l-0.009-0.29l0.01-0.581l0.022-1.213
		c0.071-3.234,0.142-6.466,0.212-9.691c0.165-6.45,0.329-12.875,0.492-19.25c0.361-12.749,0.626-25.295,0.682-37.437
		c-0.003-12.142-0.15-23.879-0.46-35.009c-0.018-0.695-0.035-1.389-0.052-2.08l-0.026-1.034c0.004-0.246-0.005,0.049-0.009,0.16
		l0.003-0.104l0.007-0.258l0.013-0.515c0-0.122,0.01-0.082,0.014-0.098l0.01-0.019c0.004-0.013-0.001-0.026-0.01-0.042
		c0.011-0.086,0.051-0.245,0.06-0.37c0.036-0.127,0.078-0.251,0.103-0.385c0.055-0.122,0.104-0.245,0.145-0.375
		c0.439-0.989,1.319-1.808,2.346-2.186c0.258-0.099,0.525-0.169,0.803-0.227l0.463-0.06l0.967-0.037
		c1.287-0.049,2.562-0.098,3.825-0.146c2.526-0.106,5.005-0.21,7.434-0.313c4.856-0.2,9.511-0.458,13.938-0.701
		c4.427-0.256,8.625-0.43,12.571-0.718c3.946-0.263,7.64-0.509,11.055-0.737c3.415-0.267,6.551-0.512,9.385-0.733
		c5.666-0.459,10.118-0.877,13.153-1.186c0.139-0.015,0.258-0.027,0.391-0.042c-0.16,0.767-0.311,1.534-0.461,2.3
		c-0.299,1.652-0.57,3.303-0.796,4.955c-0.236,1.652-0.435,3.303-0.608,4.955c-0.181,1.651-0.316,3.303-0.454,4.955
		c0,0.009-0.002,0.032-0.003,0.042c-0.1,1.483,1.022,2.767,2.506,2.866l0.435,0.029c1.768,0.119,3.534,0.25,5.301,0.321
		c1.768,0.097,3.534,0.136,5.301,0.187c1.768,0.033,3.534,0.05,5.302,0.05c1.767-0.021,3.534-0.019,5.301-0.084l0.223-0.008
		c0.006,0,0.012-0.002,0.018-0.002c-0.083,2.968-0.224,7.96-0.412,14.676C148.681,82.798,148.342,98.987,147.859,118.414z"/>
	<path fill="#FFFFFF" d="M136.653,78.896c-2.19-0.57-5.32-1.271-9.077-1.893c-3.756-0.626-8.138-1.173-12.833-1.537
		c-1.174-0.109-2.367-0.168-3.575-0.242c-1.208-0.081-2.431-0.14-3.663-0.174c-2.465-0.113-4.969-0.121-7.473-0.148
		c-2.504,0.028-5.008,0.044-7.473,0.156c-1.232,0.033-2.455,0.102-3.663,0.178c-1.208,0.069-2.401,0.136-3.575,0.244
		c-4.695,0.366-9.077,0.913-12.834,1.537c-3.756,0.621-6.886,1.318-9.077,1.885c-1.095,0.272-1.956,0.552-2.543,0.713
		c-0.587,0.174-0.899,0.286-0.899,0.286s0.313,0.112,0.899,0.286c0.587,0.162,1.448,0.441,2.543,0.713
		c2.191,0.567,5.321,1.265,9.077,1.885c3.757,0.624,8.139,1.17,12.834,1.537c1.174,0.108,2.367,0.174,3.575,0.244
		c1.208,0.076,2.431,0.145,3.663,0.178c2.465,0.112,4.969,0.128,7.473,0.155c2.504-0.026,5.008-0.035,7.473-0.147
		c1.232-0.034,2.455-0.094,3.663-0.175c1.208-0.073,2.401-0.132,3.575-0.241c4.695-0.364,9.077-0.911,12.833-1.537
		c3.757-0.622,6.887-1.323,9.077-1.893c1.096-0.274,1.957-0.554,2.544-0.717c0.586-0.175,0.899-0.288,0.899-0.288
		s-0.313-0.113-0.899-0.288C138.61,79.45,137.749,79.17,136.653,78.896z"/>
	<path fill="#FFFFFF" d="M107.254,124.775c4.054-0.364,7.837-0.91,11.079-1.536c3.242-0.622,5.944-1.323,7.836-1.894
		c0.946-0.273,1.689-0.555,2.195-0.718c0.507-0.175,0.777-0.287,0.777-0.287s-0.271-0.112-0.777-0.287
		c-0.506-0.163-1.249-0.444-2.195-0.718c-1.892-0.57-4.594-1.271-7.836-1.894c-3.242-0.626-7.025-1.172-11.079-1.536
		c-1.013-0.109-2.043-0.168-3.086-0.241c-1.043-0.081-2.099-0.141-3.162-0.175c-2.128-0.104-4.29-0.147-6.452-0.148
		c-2.161,0-4.323,0.056-6.451,0.156c-1.063,0.033-2.119,0.102-3.162,0.178c-1.043,0.069-2.073,0.137-3.086,0.244
		c-4.054,0.366-7.837,0.913-11.079,1.537c-3.243,0.62-5.945,1.317-7.837,1.885c-0.945,0.271-1.688,0.552-2.195,0.713
		c-0.507,0.175-0.776,0.286-0.776,0.286s0.27,0.111,0.776,0.286c0.507,0.161,1.25,0.441,2.195,0.713
		c1.892,0.567,4.594,1.265,7.837,1.885c3.242,0.624,7.025,1.171,11.079,1.537c1.013,0.107,2.043,0.175,3.086,0.244
		c1.043,0.076,2.099,0.145,3.162,0.178c2.128,0.101,4.29,0.156,6.451,0.156c2.162-0.001,4.324-0.045,6.452-0.148
		c1.063-0.034,2.119-0.094,3.162-0.175C105.211,124.943,106.242,124.885,107.254,124.775z"/>
	<path fill="#FFFFFF" d="M61.59,60.019c1.033,0.567,2.51,1.265,4.281,1.885c1.771,0.627,3.838,1.163,6.052,1.545
		c2.214,0.379,4.575,0.561,6.938,0.57c2.361-0.002,4.724-0.181,6.938-0.557c2.214-0.378,4.28-0.915,6.052-1.544
		c1.771-0.622,3.247-1.323,4.28-1.893c0.517-0.274,0.923-0.554,1.199-0.717c0.277-0.175,0.425-0.288,0.425-0.288
		s-0.147-0.113-0.425-0.288c-0.276-0.163-0.683-0.443-1.199-0.717c-1.033-0.57-2.509-1.271-4.28-1.893
		c-1.771-0.629-3.838-1.166-6.052-1.544c-2.214-0.376-4.576-0.555-6.938-0.557c-2.362,0.009-4.724,0.191-6.938,0.57
		c-2.214,0.382-4.281,0.917-6.052,1.545c-1.771,0.621-3.248,1.318-4.281,1.885c-0.517,0.272-0.922,0.552-1.199,0.713
		c-0.276,0.174-0.424,0.286-0.424,0.286s0.147,0.112,0.424,0.286C60.668,59.467,61.074,59.747,61.59,60.019z"/>
	<path fill="#FFFFFF" d="M138.472,139.306c-1.033-0.57-2.509-1.271-4.28-1.894c-1.771-0.629-3.838-1.165-6.052-1.543
		c-2.214-0.376-4.576-0.556-6.938-0.558c-2.361,0.009-4.724,0.191-6.938,0.569c-2.214,0.383-4.28,0.918-6.052,1.546
		c-1.771,0.62-3.247,1.317-4.28,1.885c-0.517,0.271-0.923,0.552-1.199,0.713c-0.277,0.175-0.425,0.286-0.425,0.286
		s0.147,0.111,0.425,0.286c0.276,0.161,0.683,0.441,1.199,0.713c1.033,0.567,2.509,1.265,4.28,1.885
		c1.771,0.628,3.838,1.163,6.052,1.546c2.214,0.378,4.576,0.561,6.938,0.569c2.361-0.002,4.724-0.182,6.938-0.558
		c2.214-0.378,4.28-0.914,6.052-1.543c1.771-0.622,3.247-1.323,4.28-1.894c0.517-0.273,0.923-0.555,1.199-0.718
		c0.277-0.175,0.425-0.287,0.425-0.287s-0.147-0.112-0.425-0.287C139.395,139.86,138.989,139.579,138.472,139.306z"/>
	<path fill="#FFFFFF" d="M68.212,101.73c2.474,0.628,5.359,1.163,8.451,1.546c3.092,0.378,6.39,0.561,9.688,0.569
		c3.299-0.002,6.597-0.182,9.688-0.558c3.092-0.378,5.978-0.914,8.451-1.543c2.474-0.622,4.535-1.323,5.978-1.894
		c0.722-0.273,1.288-0.555,1.675-0.718c0.387-0.175,0.593-0.287,0.593-0.287s-0.206-0.112-0.593-0.287
		c-0.387-0.163-0.953-0.444-1.675-0.718c-1.442-0.57-3.504-1.271-5.978-1.894c-2.474-0.629-5.359-1.165-8.451-1.543
		c-3.092-0.376-6.39-0.556-9.688-0.558c-3.298,0.009-6.596,0.191-9.688,0.569c-3.092,0.383-5.978,0.918-8.451,1.546
		c-2.474,0.62-4.535,1.317-5.978,1.885c-0.722,0.271-1.289,0.552-1.675,0.713c-0.387,0.175-0.593,0.286-0.593,0.286
		s0.206,0.111,0.593,0.286c0.386,0.161,0.953,0.441,1.675,0.713C63.677,100.413,65.739,101.11,68.212,101.73z"/>
</g>
<g>
	<path fill="#FFFFFF" d="M153.284,151.481l-0.003-0.131l-0.013-0.524l-0.025-1.045c-0.268-11.13-0.521-21.653-0.754-31.366
		c-0.483-19.427-0.822-35.615-1.165-46.948c-0.197-7.037-0.343-12.196-0.424-15.101c0.329-0.181,0.64-0.405,0.903-0.702
		c1.238-1.393,1.113-3.526-0.279-4.765c-1.809-1.607-3.651-3.178-5.528-4.712c-1.866-1.545-3.783-3.037-5.726-4.501
		c-0.971-0.733-1.958-1.447-2.948-2.159c-0.995-0.707-1.998-1.405-3.017-2.086c-0.859-0.576-1.736-1.134-2.621-1.683
		c0.277-0.051,0.502-0.273,0.533-0.567c0.038-0.359-0.222-0.681-0.581-0.719c0,0-0.872-0.093-2.52-0.268
		c-0.372-0.215-0.741-0.433-1.126-0.634c0.116,0.189,0.241,0.369,0.362,0.553c-0.081-0.009-0.153-0.016-0.238-0.025
		c-0.044-0.176-0.077-0.352-0.124-0.527c-0.045,0.167-0.076,0.334-0.118,0.502c-0.284-0.03-0.575-0.061-0.891-0.095
		c-3.035-0.309-7.487-0.727-13.153-1.186c-2.834-0.221-5.97-0.466-9.385-0.733c-3.415-0.228-7.108-0.474-11.055-0.737
		c-3.946-0.288-8.145-0.462-12.571-0.718c-4.428-0.243-9.082-0.501-13.938-0.701c-2.429-0.102-4.908-0.206-7.435-0.313
		c-1.263-0.048-2.538-0.097-3.824-0.146l-0.967-0.037c-0.428-0.004-0.988,0.012-1.478,0.031c-1.014,0.073-2.032,0.229-3.034,0.495
		c-4.009,1.062-7.632,3.785-9.779,7.56c-0.255,0.478-0.502,0.963-0.735,1.456c-0.205,0.505-0.41,1.015-0.588,1.533
		c-0.155,0.536-0.306,1.034-0.436,1.616l-0.165,0.972l-0.067,0.489c-0.02,0.154-0.046,0.362-0.047,0.413l-0.039,0.513l-0.02,0.257
		l-0.01,0.129l-0.014,0.444l-0.026,1.034c-0.017,0.691-0.034,1.384-0.052,2.08c-0.31,11.13-0.457,22.867-0.46,35.009
		c0.056,12.141,0.32,24.687,0.682,37.436c0.087,3.416,0.175,6.848,0.263,10.288c-1.736-0.063-4.104-0.151-7.03-0.26
		c-3.311-0.112-7.332-0.249-11.944-0.405c-1.152-0.036-2.343-0.074-3.567-0.113c-1.293-0.018-2.352-0.098-3.352-0.424
		c-2.097-0.635-4.019-2.179-5.071-4.278c-0.529-1.044-0.821-2.217-0.858-3.414c-0.021-0.536,0.019-1.362,0.039-2.098
		c0.024-0.752,0.048-1.51,0.072-2.275c0.097-3.06,0.197-6.223,0.3-9.476c0.184-6.504,0.377-13.363,0.577-20.459
		c0.181-7.095,0.368-14.427,0.559-21.877c0.166-7.45,0.334-15.019,0.503-22.588c0.172-7.569,0.419-15.138,0.685-22.588
		c0.064-1.863,0.128-3.718,0.192-5.564c0.031,0.141,0.06-1.025,0.125-0.889c0.026-0.059,0.043-0.116,0.052-0.178
		c0.041-0.11,0.077-0.221,0.109-0.332c0.146-0.439,0.34-0.861,0.609-1.234c0.499-0.773,1.241-1.351,2.01-1.769
		c0.4-0.183,0.809-0.341,1.235-0.42c0.211-0.046,0.429-0.061,0.644-0.088c0.258,0.007,0.319-0.021,0.867-0.012
		c7.096-0.002,13.954-0.116,20.459-0.354c6.504-0.216,12.654-0.504,18.33-0.84c5.677-0.325,10.88-0.698,15.492-1.091
		c2.307-0.203,4.465-0.392,6.46-0.567c1.997-0.205,3.83-0.394,5.485-0.563c2.501-0.267,4.596-0.516,6.237-0.724
		c-0.14,0.778-0.271,1.557-0.401,2.335c-0.257,1.652-0.489,3.303-0.683,4.955c-0.396,3.303-0.69,6.606-0.91,9.91l-0.001,0.021
		c-0.074,1.294,0.914,2.404,2.209,2.479l0.31,0.018c1.768,0.102,3.534,0.214,5.302,0.274c1.767,0.084,3.534,0.117,5.302,0.161
		c3.534,0.055,7.068,0.063,10.603-0.029l0.149-0.004c0.766-0.023,1.521-0.348,2.072-0.963c1.067-1.192,0.967-3.024-0.226-4.092
		c-1.803-1.614-3.635-3.196-5.496-4.747c-1.853-1.56-3.748-3.074-5.665-4.565c-1.925-1.484-3.869-2.946-5.871-4.347
		c-0.935-0.658-1.883-1.301-2.845-1.93c0.206-0.029,0.321-0.045,0.321-0.045c0.218-0.031,0.398-0.202,0.43-0.43
		c0.039-0.276-0.153-0.531-0.43-0.57c0,0-0.887-0.124-2.537-0.355c-0.372-0.229-0.73-0.474-1.109-0.696
		c0.142,0.208,0.296,0.401,0.439,0.606c-0.107-0.014-0.213-0.028-0.326-0.042c-0.04-0.188-0.07-0.375-0.113-0.563
		c-0.041,0.178-0.069,0.356-0.107,0.535c-1.698-0.219-3.932-0.487-6.653-0.777c-1.655-0.17-3.488-0.358-5.485-0.563
		c-1.995-0.175-4.153-0.364-6.46-0.567c-4.612-0.394-9.815-0.767-15.492-1.091c-5.676-0.335-11.826-0.624-18.33-0.84
		C29.358,0.119,22.5,0.006,15.404,0.003c-0.341-0.012-1.165,0.035-1.798,0.08c-0.667,0.078-1.339,0.175-1.996,0.333
		C10.287,0.72,9.013,1.225,7.81,1.86C5.424,3.167,3.39,5.123,2.03,7.499C1.331,8.673,0.813,9.96,0.468,11.287L0.234,12.29
		c-0.061,0.393-0.113,0.79-0.156,1.187C-0.034,14.519,0.04,14.283,0,15.343c0.063,1.846,0.128,3.701,0.192,5.564
		c0.266,7.45,0.513,15.019,0.684,22.588c0.169,7.569,0.338,15.138,0.504,22.588c0.19,7.451,0.377,14.783,0.558,21.877
		c0.2,7.096,0.394,13.955,0.577,20.459c0.104,3.253,0.203,6.416,0.301,9.476c0.023,0.766,0.048,1.523,0.071,2.275
		c0.03,0.769,0.026,1.435,0.113,2.371c0.169,1.746,0.715,3.419,1.563,4.857c1.696,2.893,4.504,4.824,7.401,5.502
		c1.499,0.377,2.99,0.345,4.143,0.29c1.225-0.039,2.415-0.077,3.567-0.113c4.612-0.156,8.634-0.293,11.944-0.405
		c2.944-0.109,5.323-0.197,7.063-0.262c0.065,2.567,0.131,5.137,0.197,7.714c0.07,3.226,0.141,6.457,0.212,9.691l0.022,1.213
		l0.015,0.633l0.053,0.922c0.079,1.229,0.348,2.448,0.711,3.628c0.783,2.348,2.127,4.485,3.868,6.202
		c1.759,1.701,3.918,2.983,6.256,3.701c0.61,0.157,1.136,0.312,1.827,0.425c0.654,0.102,1.566,0.209,1.833,0.195l0.606,0.021
		l0.407,0.006l0.152-0.002l0.303-0.006l1.214-0.021c3.234-0.055,6.466-0.109,9.69-0.164c6.451-0.109,12.877-0.218,19.251-0.326
		c12.749-0.247,25.296-0.49,37.438-0.726c3.035-0.063,6.046-0.125,9.027-0.187c1.491-0.031,2.975-0.062,4.451-0.092
		c0.738-0.016,1.474-0.031,2.208-0.046l1.101-0.022l0.553-0.013l0.731-0.044c3.92-0.248,7.601-2.303,9.831-5.347
		c1.133-1.51,1.924-3.255,2.325-5.065c0.117-0.424,0.179-0.972,0.241-1.477l0.043-0.384c0.014-0.127,0.008-0.187,0.013-0.282
		l0.014-0.526l0.007-0.262C153.292,151.412,153.283,151.596,153.284,151.481z M89.318,6.092c0.276-0.039,0.524-0.073,0.761-0.106
		c0.164,0.219,0.317,0.45,0.483,0.667c0.736,0.983,1.493,1.944,2.262,2.893c1.533,1.903,3.122,3.745,4.732,5.564
		c1.617,1.812,3.256,3.602,4.938,5.344c0.016,0.016,0.032,0.032,0.048,0.048c-1.183,0.006-2.365,0.009-3.547,0.027
		c-1.768,0.043-3.535,0.077-5.302,0.161c-0.998,0.034-1.995,0.085-2.992,0.141c-0.192-2.42-0.412-4.839-0.702-7.259
		c-0.193-1.652-0.426-3.303-0.683-4.955c-0.138-0.823-0.274-1.645-0.424-2.468C89.036,6.129,89.184,6.11,89.318,6.092z
		 M129.608,35.989c0.158,0.219,0.318,0.437,0.474,0.659c0.712,1.01,1.447,1.994,2.196,2.963c0.749,0.97,1.513,1.924,2.285,2.869
		c0.776,0.94,1.556,1.877,2.353,2.796c1.365,1.577,2.756,3.127,4.174,4.647c-0.832,0.008-1.665,0.008-2.497,0.023
		c-1.767,0.051-3.533,0.09-5.301,0.187c-0.879,0.035-1.758,0.085-2.637,0.142c-0.058-0.613-0.113-1.226-0.181-1.839
		c-0.174-1.652-0.372-3.303-0.608-4.955c-0.226-1.652-0.497-3.303-0.796-4.955c-0.158-0.81-0.316-1.619-0.486-2.429
		C128.957,36.058,129.301,36.021,129.608,35.989z M147.858,118.415c-0.233,9.713-0.486,20.236-0.754,31.366l-0.025,1.045
		l-0.013,0.524l-0.003,0.131c0-0.026-0.005,0.245-0.001-0.026l-0.02,0.262l-0.039,0.524c-0.008,0.079-0.01,0.195-0.022,0.242
		l-0.037,0.138c-0.052,0.188-0.055,0.344-0.145,0.596c-0.258,0.93-0.719,1.798-1.331,2.547c-1.221,1.517-3.108,2.432-5.036,2.461
		c-5.782-0.113-11.688-0.229-17.695-0.347c-12.142-0.235-24.688-0.479-37.438-0.726c-6.374-0.108-12.8-0.217-19.251-0.326
		c-3.225-0.055-6.456-0.109-9.69-0.164l-1.214-0.021l-0.303-0.006l-0.043-0.001c-0.003,0,0,0-0.005,0l-0.605-0.041
		c-0.545-0.018-0.428-0.087-0.574-0.094c-0.106-0.02-0.356-0.11-0.529-0.15c-0.743-0.275-1.42-0.722-1.971-1.29
		c-0.528-0.593-0.912-1.29-1.124-2.023c-0.078-0.376-0.159-0.748-0.153-1.137l-0.008-0.29l0.009-0.581l0.023-1.213
		c0.07-3.234,0.141-6.466,0.212-9.691c0.164-6.45,0.329-12.875,0.492-19.25c0.361-12.749,0.626-25.295,0.682-37.436
		c-0.004-12.142-0.151-23.879-0.46-35.009c-0.018-0.695-0.035-1.389-0.053-2.08l-0.026-1.034c0.005-0.246-0.005,0.049-0.008,0.16
		l0.003-0.104l0.006-0.258l0.014-0.515c0-0.122,0.01-0.082,0.014-0.098l0.01-0.019c0.004-0.013-0.001-0.026-0.01-0.042
		c0.011-0.086,0.051-0.245,0.059-0.37c0.036-0.127,0.079-0.251,0.104-0.385c0.054-0.122,0.103-0.245,0.145-0.375
		c0.438-0.989,1.318-1.808,2.346-2.186c0.257-0.099,0.525-0.169,0.803-0.227l0.463-0.06l0.967-0.037
		c1.286-0.049,2.562-0.098,3.824-0.146c2.526-0.106,5.006-0.21,7.435-0.313c4.856-0.2,9.511-0.458,13.938-0.701
		c4.427-0.256,8.625-0.43,12.571-0.718c3.946-0.263,7.64-0.509,11.055-0.737c3.415-0.267,6.551-0.512,9.385-0.733
		c5.666-0.459,10.118-0.877,13.153-1.186c0.139-0.015,0.258-0.027,0.391-0.042c-0.16,0.767-0.311,1.534-0.461,2.3
		c-0.299,1.652-0.57,3.303-0.796,4.955c-0.236,1.652-0.435,3.303-0.608,4.955c-0.181,1.651-0.316,3.303-0.454,4.955
		c0,0.009-0.002,0.032-0.003,0.042c-0.1,1.483,1.022,2.767,2.506,2.866l0.435,0.029c1.768,0.119,3.534,0.25,5.301,0.321
		c1.768,0.097,3.534,0.136,5.301,0.187c1.768,0.033,3.534,0.05,5.302,0.05c1.767-0.021,3.534-0.019,5.301-0.084l0.223-0.008
		c0.006,0,0.012-0.002,0.018-0.002c-0.083,2.968-0.224,7.96-0.412,14.676C148.68,82.8,148.341,98.988,147.858,118.415z"/>
	<path fill="#FFFFFF" d="M136.652,78.897c-2.19-0.57-5.32-1.271-9.077-1.893c-3.756-0.626-8.138-1.173-12.833-1.537
		c-1.174-0.109-2.367-0.168-3.575-0.242c-1.208-0.081-2.431-0.14-3.663-0.174c-2.465-0.113-4.969-0.121-7.473-0.148
		c-2.504,0.028-5.008,0.044-7.473,0.156c-1.232,0.033-2.455,0.102-3.663,0.178c-1.208,0.069-2.401,0.136-3.575,0.244
		c-4.695,0.366-9.078,0.913-12.834,1.537c-3.756,0.621-6.886,1.318-9.077,1.885c-1.096,0.272-1.956,0.552-2.543,0.713
		c-0.587,0.174-0.9,0.286-0.9,0.286s0.313,0.112,0.9,0.286c0.587,0.162,1.447,0.441,2.543,0.713
		c2.191,0.567,5.321,1.265,9.077,1.885c3.756,0.624,8.139,1.17,12.834,1.537c1.174,0.107,2.367,0.174,3.575,0.243
		c1.208,0.076,2.431,0.145,3.663,0.178c2.465,0.112,4.969,0.128,7.473,0.155c2.504-0.026,5.008-0.035,7.473-0.147
		c1.232-0.034,2.455-0.094,3.663-0.175c1.208-0.073,2.401-0.132,3.575-0.24c4.695-0.364,9.077-0.911,12.833-1.537
		c3.757-0.622,6.887-1.323,9.077-1.893c1.096-0.274,1.957-0.554,2.544-0.717c0.586-0.175,0.899-0.288,0.899-0.288
		s-0.313-0.113-0.899-0.288C138.609,79.452,137.748,79.171,136.652,78.897z"/>
	<path fill="#FFFFFF" d="M107.253,124.776c4.054-0.364,7.837-0.91,11.079-1.536c3.242-0.622,5.944-1.323,7.836-1.894
		c0.946-0.273,1.689-0.555,2.195-0.718c0.507-0.175,0.777-0.287,0.777-0.287s-0.271-0.112-0.777-0.287
		c-0.506-0.163-1.249-0.444-2.195-0.718c-1.892-0.57-4.594-1.271-7.836-1.894c-3.242-0.626-7.025-1.172-11.079-1.536
		c-1.013-0.109-2.043-0.168-3.086-0.241c-1.043-0.081-2.099-0.141-3.162-0.175c-2.128-0.104-4.29-0.147-6.452-0.148
		c-2.161,0-4.323,0.056-6.451,0.156c-1.063,0.033-2.119,0.102-3.162,0.178c-1.043,0.069-2.073,0.137-3.086,0.244
		c-4.054,0.366-7.837,0.913-11.08,1.537c-3.242,0.62-5.944,1.317-7.836,1.885c-0.946,0.271-1.688,0.552-2.195,0.713
		c-0.507,0.175-0.777,0.286-0.777,0.286s0.271,0.111,0.777,0.286c0.507,0.161,1.249,0.441,2.195,0.713
		c1.892,0.567,4.594,1.265,7.836,1.885c3.243,0.624,7.026,1.171,11.08,1.537c1.013,0.107,2.043,0.175,3.086,0.244
		c1.043,0.076,2.099,0.145,3.162,0.178c2.128,0.101,4.29,0.156,6.451,0.156c2.162-0.001,4.324-0.045,6.452-0.148
		c1.063-0.034,2.119-0.094,3.162-0.175C105.21,124.944,106.241,124.886,107.253,124.776z"/>
	<path fill="#FFFFFF" d="M61.589,60.021c1.033,0.567,2.509,1.265,4.28,1.885c1.771,0.627,3.838,1.163,6.052,1.545
		c2.214,0.379,4.576,0.561,6.938,0.57c2.361-0.002,4.724-0.181,6.938-0.557c2.214-0.378,4.28-0.915,6.052-1.544
		c1.771-0.622,3.247-1.323,4.28-1.893c0.517-0.274,0.923-0.554,1.199-0.717c0.277-0.175,0.425-0.288,0.425-0.288
		s-0.147-0.113-0.425-0.288c-0.276-0.163-0.683-0.443-1.199-0.717c-1.033-0.57-2.509-1.271-4.28-1.893
		c-1.771-0.629-3.838-1.166-6.052-1.544c-2.214-0.376-4.576-0.555-6.938-0.557c-2.362,0.009-4.725,0.191-6.938,0.57
		c-2.214,0.382-4.28,0.917-6.052,1.545c-1.771,0.621-3.247,1.318-4.28,1.885c-0.517,0.272-0.923,0.552-1.199,0.713
		c-0.277,0.174-0.425,0.286-0.425,0.286s0.147,0.112,0.425,0.286C60.667,59.469,61.073,59.749,61.589,60.021z"/>
	<path fill="#FFFFFF" d="M138.471,139.307c-1.033-0.57-2.509-1.271-4.28-1.894c-1.771-0.629-3.838-1.165-6.052-1.543
		c-2.214-0.376-4.576-0.556-6.938-0.558c-2.361,0.009-4.724,0.191-6.938,0.569c-2.214,0.383-4.28,0.918-6.052,1.546
		c-1.771,0.62-3.247,1.317-4.28,1.885c-0.517,0.271-0.923,0.552-1.199,0.713c-0.277,0.175-0.425,0.286-0.425,0.286
		s0.147,0.111,0.425,0.286c0.276,0.161,0.683,0.441,1.199,0.713c1.033,0.567,2.509,1.265,4.28,1.885
		c1.771,0.628,3.838,1.163,6.052,1.546c2.214,0.378,4.576,0.561,6.938,0.569c2.361-0.002,4.724-0.182,6.938-0.558
		c2.214-0.378,4.28-0.914,6.052-1.543c1.771-0.622,3.247-1.323,4.28-1.894c0.517-0.273,0.923-0.555,1.199-0.718
		c0.277-0.175,0.425-0.287,0.425-0.287s-0.147-0.112-0.425-0.287C139.394,139.861,138.988,139.58,138.471,139.307z"/>
	<path fill="#FFFFFF" d="M68.21,101.731c2.474,0.628,5.359,1.163,8.451,1.546c3.093,0.378,6.391,0.561,9.688,0.569
		c3.299-0.002,6.597-0.182,9.688-0.558c3.092-0.378,5.978-0.914,8.451-1.543c2.474-0.622,4.535-1.323,5.978-1.894
		c0.722-0.273,1.288-0.555,1.675-0.718c0.387-0.175,0.593-0.287,0.593-0.287s-0.206-0.112-0.593-0.287
		c-0.387-0.163-0.953-0.444-1.675-0.718c-1.442-0.57-3.504-1.271-5.978-1.894c-2.474-0.629-5.359-1.165-8.451-1.543
		c-3.092-0.376-6.39-0.556-9.688-0.558c-3.298,0.009-6.596,0.191-9.688,0.569c-3.092,0.383-5.978,0.918-8.451,1.546
		c-2.474,0.62-4.534,1.317-5.978,1.885c-0.722,0.271-1.288,0.552-1.675,0.713c-0.387,0.175-0.593,0.286-0.593,0.286
		s0.206,0.111,0.593,0.286c0.387,0.161,0.953,0.441,1.675,0.713C63.676,100.414,65.737,101.111,68.21,101.731z"/>
</g>
</svg>
