<svg version="1.1" id="Calque_1" xmlns="http://www.w3.org/2000/svg" xmlns:xlink="http://www.w3.org/1999/xlink" x="0px" y="0px"
	 viewBox="0 0 212.258 179.125" enable-background="new 0 0 212.258 179.125"
	 xml:space="preserve">
<path fill="#FFFFFF" d="M212.221,155.416c-0.151-0.482-0.666-0.751-1.148-0.599c0,0-1.371,0.431-3.905,1.306
	c-0.635,0.219-1.342,0.462-2.121,0.73c-0.388,0.136-0.791,0.294-1.214,0.43c-0.423,0.119-0.862,0.243-1.32,0.372
	c-1.803,0.506-3.875,1.087-6.196,1.738c-2.388,0.499-4.95,1.217-7.795,1.756c-1.422,0.252-2.901,0.515-4.437,0.787
	c-0.768,0.123-1.531,0.304-2.329,0.407c-0.799,0.097-1.61,0.194-2.436,0.293c-1.638,0.201-3.328,0.409-5.069,0.623
	c-1.745,0.117-3.541,0.237-5.385,0.36c-1.825,0.193-3.723,0.17-5.649,0.193c-1.93-0.015-3.882,0.161-5.895,0.004
	c-2.008-0.09-4.049-0.179-6.122-0.233c-1.047-0.088-2.104-0.177-3.171-0.267c-1.123-0.09-2.281-0.174-3.268-0.326
	c-1.028-0.123-2.065-0.246-3.11-0.37s-2.149-0.331-3.232-0.492c-2.184-0.311-4.369-0.789-6.592-1.191
	c-4.413-0.98-8.899-2.114-13.384-3.551c-4.474-1.461-8.973-3.115-13.429-5.058c-8.875-3.929-17.672-8.862-25.571-15.264
	c-2.597-2.121-5.067-4.429-7.398-6.878c3.052-0.951,6.131-1.994,9.24-3.081c4.781-1.668,9.646-3.328,14.54-4.878
	c4.895-1.547,9.79-3.094,14.608-4.616c4.824-1.5,9.546-3.076,14.122-4.573c4.574-1.508,8.995-2.966,13.188-4.348
	c4.187-1.406,8.146-2.735,11.799-3.962c3.648-1.246,6.993-2.389,9.957-3.401c2.965-1.012,5.546-1.905,7.667-2.66
	c4.246-1.494,6.673-2.348,6.673-2.348c0.342-0.12,0.557-0.473,0.491-0.841c-0.072-0.409-0.463-0.683-0.872-0.61
	c0,0-2.533,0.448-6.966,1.232c-2.218,0.385-4.905,0.874-7.984,1.449c-3.08,0.573-6.555,1.222-10.345,1.928
	c-3.785,0.726-7.886,1.513-12.223,2.345c-4.331,0.855-8.898,1.757-13.623,2.69c-4.722,0.943-9.608,1.89-14.547,2.953
	c-4.945,1.041-9.968,2.098-14.992,3.154c-5.024,1.054-10.078,1.997-15.061,2.894c-4.984,0.892-9.875,1.821-14.535,3.001
	c-0.42,0.107-0.828,0.224-1.244,0.334c-0.632-1.085-1.234-2.186-1.802-3.306c-2.838-5.558-4.86-11.51-6-17.609
	c2.612-0.785,5.245-1.641,7.902-2.533c4.433-1.486,8.943-2.962,13.481-4.327c4.539-1.362,9.077-2.724,13.545-4.064
	c4.474-1.317,8.851-2.715,13.095-4.039c4.241-1.337,8.348-2.592,12.228-3.849c3.882-1.247,7.552-2.426,10.939-3.515
	c3.383-1.108,6.483-2.124,9.232-3.024c2.749-0.899,5.143-1.696,7.109-2.369c3.937-1.333,6.187-2.095,6.187-2.095
	c0.34-0.115,0.559-0.459,0.503-0.826c-0.062-0.411-0.445-0.694-0.856-0.632c0,0-2.349,0.354-6.459,0.974
	c-2.057,0.303-4.549,0.692-7.404,1.152c-2.855,0.46-6.077,0.978-9.592,1.544c-3.51,0.585-7.313,1.219-11.334,1.89
	c-4.024,0.66-8.25,1.428-12.632,2.183c-4.378,0.769-8.91,1.532-13.489,2.412c-4.585,0.856-9.244,1.726-13.902,2.596
	c-4.659,0.867-9.345,1.622-13.965,2.333c-1.873,0.287-3.726,0.585-5.562,0.899c0.499-8.932,2.822-17.67,6.622-25.546
	c4.267-8.93,10.38-16.638,17-23.122c3.353-3.213,6.875-6.086,10.43-8.691c3.58-2.572,7.222-4.821,10.819-6.823
	c7.228-3.945,14.307-6.801,20.747-8.833c6.448-2.031,12.253-3.252,17.064-4.1c4.825-0.769,8.662-1.167,11.283-1.355
	c2.626-0.172,4.026-0.264,4.026-0.264l0.042-0.002c0.458-0.032,0.825-0.408,0.836-0.876c0.012-0.497-0.381-0.909-0.878-0.921
	c0,0-1.424-0.034-4.094-0.097c-2.673-0.047-6.599,0.008-11.599,0.354c-4.991,0.408-11.06,1.16-17.907,2.737
	c-6.837,1.582-14.489,3.908-22.437,7.53c-3.959,1.836-8.01,3.942-12.049,6.418c-4.016,2.509-8.049,5.332-11.962,8.568
	c-7.761,6.519-15.104,14.675-20.685,24.553c-5.527,9.755-9.264,21.231-9.93,33.253c-2.604,0.718-5.131,1.49-7.55,2.309
	c-3.875,1.274-7.51,2.601-10.84,3.927c-6.666,2.627-12.116,5.25-15.886,7.274c-1.882,1.022-3.352,1.86-4.345,2.473
	c-0.996,0.602-1.518,0.956-1.518,0.956c-0.184,0.125-0.317,0.329-0.346,0.567c-0.053,0.438,0.26,0.837,0.699,0.89
	c0,0,0.627,0.075,1.787,0.154c1.163,0.089,2.854,0.159,4.996,0.206c4.278,0.071,10.324-0.096,17.453-0.815
	c3.567-0.348,7.406-0.834,11.434-1.478c1.567-0.237,3.167-0.515,4.783-0.816c1.03,7.064,3.03,14.044,5.95,20.604
	c0.236,0.537,0.503,1.058,0.75,1.589c-3.411,1.205-6.644,2.433-9.638,3.652c-7.189,2.901-13.067,5.751-17.133,7.933
	c-2.03,1.103-3.616,2.002-4.687,2.656c-1.073,0.644-1.637,1.02-1.637,1.02c-0.194,0.131-0.332,0.349-0.351,0.601
	c-0.033,0.437,0.294,0.817,0.731,0.851c0,0,0.676,0.051,1.927,0.084c1.254,0.044,3.077,0.049,5.387,0.012
	c4.613-0.097,11.133-0.502,18.821-1.506c3.847-0.49,7.986-1.129,12.33-1.935c0.559-0.099,1.129-0.212,1.694-0.318
	c3.795,5.549,8.136,10.688,12.88,15.302c8.711,8.433,18.767,15.112,29.212,19.848c5.245,2.319,10.563,4.196,15.86,5.645
	c5.3,1.452,10.588,2.385,15.739,3.072c2.585,0.271,5.125,0.603,7.645,0.689c1.266,0.062,2.483,0.161,3.757,0.186
	c1.271,0.019,2.534,0.038,3.786,0.058c1.292,0.026,2.399-0.033,3.521-0.078c1.178-0.046,2.345-0.091,3.501-0.136
	c2.334-0.195,4.616-0.423,6.844-0.649c1.115-0.103,2.215-0.217,3.297-0.42c1.082-0.183,2.151-0.362,3.208-0.541
	c2.109-0.372,4.167-0.692,6.141-1.224c1.969-0.496,3.888-0.979,5.753-1.448c1.844-0.547,3.613-1.154,5.322-1.724
	c0.854-0.286,1.692-0.567,2.518-0.844c0.821-0.284,1.609-0.637,2.388-0.955c1.548-0.649,3.039-1.274,4.472-1.876
	c0.72-0.28,1.402-0.619,2.063-0.967c0.663-0.339,1.311-0.669,1.944-0.992c1.257-0.652,2.454-1.273,3.591-1.863
	c2.251-1.267,4.187-2.563,5.869-3.604c1.724-1.019,2.952-2.076,4.044-2.875c2.14-1.616,3.262-2.515,3.262-2.515
	C212.204,156.175,212.337,155.786,212.221,155.416z"/>
<path fill="#FFFFFF" d="M212.222,155.417c-0.15-0.482-0.666-0.751-1.148-0.599c0,0-1.371,0.431-3.904,1.306
	c-0.635,0.219-1.342,0.462-2.121,0.73c-0.389,0.136-0.791,0.294-1.215,0.43c-0.422,0.119-0.861,0.243-1.32,0.372
	c-1.803,0.506-3.875,1.087-6.195,1.738c-2.389,0.499-4.951,1.217-7.796,1.756c-1.422,0.252-2.902,0.515-4.438,0.787
	c-0.768,0.123-1.531,0.304-2.328,0.407c-0.799,0.097-1.611,0.194-2.436,0.293c-1.639,0.201-3.328,0.409-5.07,0.623
	c-1.744,0.117-3.541,0.237-5.385,0.36c-1.825,0.193-3.723,0.17-5.649,0.193c-1.93-0.015-3.882,0.161-5.895,0.004
	c-2.008-0.09-4.049-0.179-6.122-0.233c-1.047-0.088-2.104-0.177-3.171-0.267c-1.123-0.09-2.281-0.174-3.268-0.326
	c-1.028-0.123-2.065-0.246-3.11-0.37s-2.149-0.331-3.232-0.492c-2.184-0.311-4.369-0.789-6.592-1.191
	c-4.413-0.98-8.899-2.114-13.384-3.551c-4.474-1.461-8.973-3.115-13.429-5.058c-8.875-3.929-17.672-8.862-25.571-15.264
	c-2.597-2.121-5.067-4.429-7.398-6.878c3.052-0.951,6.131-1.994,9.24-3.081c4.781-1.668,9.646-3.328,14.54-4.878
	c4.895-1.547,9.79-3.094,14.608-4.616c4.824-1.5,9.546-3.076,14.122-4.573c4.574-1.508,8.995-2.966,13.188-4.348
	c4.187-1.406,8.146-2.735,11.799-3.962c3.648-1.246,6.993-2.389,9.957-3.401c2.965-1.012,5.546-1.905,7.667-2.66
	c4.246-1.494,6.674-2.348,6.674-2.348c0.342-0.121,0.557-0.473,0.49-0.842c-0.072-0.408-0.463-0.682-0.871-0.609
	c0,0-2.533,0.447-6.967,1.232c-2.218,0.385-4.905,0.873-7.984,1.449c-3.08,0.572-6.555,1.222-10.345,1.928
	c-3.785,0.726-7.886,1.513-12.223,2.345c-4.331,0.855-8.898,1.757-13.623,2.69c-4.722,0.943-9.608,1.89-14.547,2.953
	c-4.945,1.041-9.968,2.098-14.992,3.154c-5.024,1.054-10.078,1.997-15.061,2.894c-4.984,0.892-9.876,1.821-14.536,3.001
	c-0.42,0.107-0.828,0.224-1.244,0.334c-0.632-1.085-1.234-2.186-1.803-3.306c-2.838-5.558-4.86-11.51-6-17.61
	c2.612-0.785,5.245-1.641,7.902-2.533c4.433-1.486,8.944-2.962,13.482-4.327c4.539-1.362,9.077-2.724,13.545-4.064
	c4.474-1.317,8.851-2.715,13.095-4.039c4.241-1.337,8.348-2.592,12.228-3.849c3.882-1.247,7.552-2.426,10.939-3.515
	c3.383-1.108,6.483-2.124,9.232-3.024c2.749-0.899,5.143-1.696,7.109-2.369c3.937-1.333,6.187-2.095,6.187-2.095
	c0.34-0.115,0.559-0.459,0.503-0.826c-0.062-0.411-0.445-0.694-0.856-0.632c0,0-2.349,0.354-6.459,0.974
	c-2.057,0.303-4.549,0.692-7.404,1.152c-2.855,0.46-6.077,0.978-9.592,1.544c-3.51,0.585-7.313,1.219-11.334,1.89
	c-4.024,0.66-8.25,1.428-12.632,2.183c-4.378,0.769-8.91,1.532-13.489,2.412c-4.585,0.856-9.244,1.726-13.902,2.596
	c-4.659,0.867-9.345,1.622-13.965,2.333c-1.874,0.287-3.726,0.585-5.563,0.899c0.499-8.932,2.822-17.67,6.622-25.546
	c4.267-8.931,10.38-16.639,17.001-23.123c3.353-3.213,6.875-6.086,10.43-8.691c3.58-2.572,7.222-4.821,10.819-6.823
	c7.228-3.945,14.307-6.801,20.747-8.833c6.448-2.031,12.253-3.252,17.064-4.1c4.825-0.769,8.662-1.167,11.283-1.355
	c2.626-0.172,4.026-0.264,4.026-0.264l0.042-0.002c0.458-0.032,0.825-0.408,0.836-0.876c0.012-0.497-0.381-0.909-0.878-0.921
	c0,0-1.424-0.034-4.094-0.097c-2.673-0.047-6.599,0.008-11.599,0.354c-4.991,0.408-11.06,1.16-17.907,2.737
	c-6.837,1.582-14.489,3.908-22.437,7.53c-3.959,1.836-8.01,3.942-12.049,6.418c-4.016,2.509-8.049,5.332-11.963,8.568
	C63.344,32.142,56,40.298,50.419,50.176c-5.527,9.755-9.264,21.231-9.93,33.253c-2.604,0.718-5.131,1.49-7.55,2.309
	c-3.875,1.274-7.51,2.601-10.84,3.927c-6.666,2.627-12.116,5.25-15.886,7.274c-1.882,1.023-3.352,1.861-4.345,2.474
	c-0.995,0.602-1.518,0.956-1.518,0.956c-0.185,0.125-0.317,0.329-0.346,0.567c-0.053,0.438,0.26,0.837,0.699,0.89
	c0,0,0.627,0.075,1.787,0.154c1.163,0.089,2.854,0.159,4.996,0.206c4.278,0.071,10.324-0.096,17.453-0.815
	c3.567-0.348,7.406-0.834,11.434-1.478c1.567-0.237,3.167-0.515,4.783-0.816c1.03,7.064,3.03,14.044,5.95,20.604
	c0.236,0.537,0.503,1.058,0.75,1.589c-3.411,1.205-6.644,2.433-9.638,3.652c-7.189,2.901-13.067,5.751-17.133,7.933
	c-2.03,1.103-3.616,2.002-4.687,2.656c-1.073,0.644-1.637,1.02-1.637,1.02c-0.194,0.131-0.332,0.349-0.351,0.601
	c-0.033,0.437,0.294,0.817,0.731,0.851c0,0,0.676,0.051,1.927,0.084c1.254,0.044,3.077,0.049,5.387,0.012
	c4.613-0.097,11.133-0.502,18.821-1.506c3.847-0.49,7.986-1.129,12.33-1.935c0.559-0.099,1.129-0.212,1.694-0.318
	c3.795,5.549,8.136,10.688,12.88,15.302c8.711,8.433,18.768,15.112,29.213,19.848c5.245,2.319,10.563,4.196,15.86,5.645
	c5.3,1.452,10.588,2.385,15.739,3.072c2.585,0.271,5.125,0.603,7.645,0.689c1.266,0.062,2.483,0.161,3.757,0.186
	c1.271,0.019,2.534,0.038,3.786,0.058c1.292,0.026,2.399-0.033,3.521-0.078c1.178-0.046,2.345-0.091,3.501-0.136
	c2.334-0.195,4.616-0.423,6.844-0.649c1.115-0.103,2.215-0.217,3.297-0.42c1.082-0.183,2.151-0.362,3.208-0.541
	c2.109-0.372,4.167-0.692,6.142-1.224c1.969-0.496,3.887-0.979,5.752-1.448c1.844-0.547,3.613-1.154,5.322-1.724
	c0.854-0.286,1.693-0.567,2.518-0.844c0.822-0.284,1.609-0.637,2.389-0.955c1.548-0.649,3.039-1.274,4.472-1.876
	c0.72-0.28,1.402-0.619,2.064-0.967c0.662-0.339,1.311-0.669,1.943-0.992c1.258-0.652,2.455-1.273,3.592-1.863
	c2.25-1.267,4.186-2.563,5.869-3.604c1.723-1.019,2.951-2.076,4.043-2.875c2.141-1.616,3.262-2.515,3.262-2.515
	C212.206,156.177,212.339,155.788,212.222,155.417z"/>
</svg>
