<svg version="1.1" id="Calque_1" xmlns="http://www.w3.org/2000/svg" xmlns:xlink="http://www.w3.org/1999/xlink" x="0px" y="0px"
	viewBox="0 0 173.965 173.965" enable-background="new 0 0 173.965 173.965"
	xml:space="preserve">
<g>
	<circle fill="#035BA1" cx="86.982" cy="86.983" r="86.983"/>
	<g>
		<path fill="#FFFFFF" stroke="#FFFFFF" stroke-miterlimit="10" d="M71.472,94.707l-0.004,0.075
			c2.324-8.962,3.524-14.09,3.601-15.387c0.217-3.686,1.309-6.722,3.273-9.105s4.571-3.48,7.816-3.289
			c3.805,0.224,6.723,1.195,8.755,2.914c2.032,1.72,2.991,3.577,2.874,5.569c-0.117,1.993-1.396,6.042-3.832,12.147l-0.6,1.614
			c-3.646,9.435-5.953,17.173-6.926,23.214c-0.975,6.043-1.571,10.932-1.791,14.668c-0.179,3.04,0.17,7.135,1.046,12.286
			c0.116,0.906,0.156,1.659,0.121,2.257c-0.068,1.146-1.377,2.617-3.925,4.418c-2.548,1.8-5.222,2.616-8.019,2.452
			c-7.387-0.436-10.786-5.634-10.199-15.598c0.498-8.47,2.449-18.704,5.851-30.702C70.23,99.583,70.883,97.072,71.472,94.707z
			 M115.627,35.664c-0.208,3.539-2.182,6.533-5.918,8.987c-3.739,2.456-6.923,3.605-9.553,3.45
			c-3.357-0.197-6.265-1.617-8.718-4.263c-2.455-2.645-3.61-5.211-3.464-7.703c0.211-3.587,1.669-6.413,4.373-8.479
			c2.705-2.064,6.463-2.957,11.275-2.673c3.748,0.221,6.726,1.383,8.933,3.486C114.761,30.577,115.785,32.975,115.627,35.664z"/>
	</g>
</g>
</svg>
