<svg id="Calque_1" data-name="Calque 1" xmlns="http://www.w3.org/2000/svg" viewBox="0 0 196.72 45.35"><defs><style>.cls-1{fill:#0063a8;}.cls-2{fill:#e4572f;}</style></defs><title>autoentrepreneur</title><path class="cls-1" d="M333,402.79a1.2,1.2,0,0,1-.34.79,3,3,0,0,0-1.65-.42c-1,0-1.63.44-1.63,1.16a2.49,2.49,0,0,0,.77,1.66l1.82,2.07a4,4,0,0,1,1.13,2.84c0,1.7-.72,3.16-3,3.16-1.53,0-2.2-.54-2.2-1a1.74,1.74,0,0,1,.35-1,2.53,2.53,0,0,0,1.73.59,1.49,1.49,0,0,0,1.65-1.71,3.06,3.06,0,0,0-1-2.19l-1.7-2a3.71,3.71,0,0,1-1-2.42c0-1.41,1-2.42,2.89-2.42C332.42,402,333,402.32,333,402.79Z" transform="translate(-198.97 -398.22)"/><path class="cls-1" d="M341.83,412.66c0,1.14,0,1.23-.27,1.23h-4V402.41s0-.29.29-.29h4c0,1.11,0,1.23-.25,1.23H339v3.51h2.52c0,1,0,1.26-.25,1.26H339v4.54Zm-2.71-12.47a11.17,11.17,0,0,1,2.25-2c.32,0,.57.62.62,1a15.79,15.79,0,0,1-2.35,1.71C339.34,401,339.12,400.19,339.12,400.19Z" transform="translate(-198.97 -398.22)"/><path class="cls-1" d="M350.94,402.83a1.7,1.7,0,0,1-.22.82,1.71,1.71,0,0,0-1.09-.42c-1.06,0-2.13.76-2.13,5.19,0,3.41.69,4.17,1.68,4.17a2.6,2.6,0,0,0,1.55-.52,2.12,2.12,0,0,1,.2.82c0,.66-.84,1.21-2.08,1.21-1.6,0-2.79-.72-2.79-5.61,0-5.75,1.82-6.59,3.31-6.59C350.61,401.9,350.94,402.39,350.94,402.83Z" transform="translate(-198.97 -398.22)"/><path class="cls-1" d="M356.68,410.49c0,1.36.2,2.3,1.61,2.3a3.61,3.61,0,0,0,1.48-.3V402.41c0-.29,0-.29,1.38-.29v11.33a6.11,6.11,0,0,1-2.86.6c-2.69,0-3-1.65-3-3.6v-8.05c0-.29,0-.29,1.41-.29Z" transform="translate(-198.97 -398.22)"/><path class="cls-1" d="M365.94,402.41a.28.28,0,0,1,.29-.29h1.66c2.12,0,3.09,1,3.09,3.33,0,1.8-.59,2.81-1.46,3.29a8.73,8.73,0,0,1,1.58,4.84c0,.25-.05.34-.69.34l-.81,0a9,9,0,0,0-1.38-4.79,2.43,2.43,0,0,1-.34,0h-.59v4.5c0,.27,0,.27-1.36.27Zm2.2.91h-.84v4.54H368c.94,0,1.43-.69,1.43-2.47C369.47,404.1,369.13,403.32,368.14,403.32Z" transform="translate(-198.97 -398.22)"/><path class="cls-1" d="M375.52,402.74c0-.62,0-.62,1.38-.62v11.5c0,.27,0,.27-1.38.27Z" transform="translate(-198.97 -398.22)"/><path class="cls-1" d="M384.73,403.4v10.22c0,.27,0,.27-1.36.27V403.4h-2.29v-1c0-.2.08-.29.29-.29h5.71v1c0,.2-.08.27-.29.27Z" transform="translate(-198.97 -398.22)"/><path class="cls-1" d="M395.53,412.66c0,1.14,0,1.23-.27,1.23h-4V402.41s0-.29.29-.29h4c0,1.11,0,1.23-.25,1.23h-2.67v3.51h2.52c0,1,0,1.26-.25,1.26h-2.27v4.54Zm-2.71-12.47a11.17,11.17,0,0,1,2.25-2c.32,0,.57.62.62,1a15.79,15.79,0,0,1-2.35,1.71C393,401,392.82,400.19,392.82,400.19Z" transform="translate(-198.97 -398.22)"/><path class="cls-1" d="M333,419.44a1.2,1.2,0,0,1-.34.79,3,3,0,0,0-1.65-.42c-1,0-1.63.44-1.63,1.16a2.49,2.49,0,0,0,.77,1.66L332,424.7a4,4,0,0,1,1.13,2.84c0,1.7-.72,3.16-3,3.16-1.53,0-2.2-.54-2.2-1a1.74,1.74,0,0,1,.35-1,2.53,2.53,0,0,0,1.73.59,1.49,1.49,0,0,0,1.65-1.71,3.06,3.06,0,0,0-1-2.19l-1.7-2a3.71,3.71,0,0,1-1-2.42c0-1.41,1-2.42,2.89-2.42C332.42,418.6,333,419,333,419.44Z" transform="translate(-198.97 -398.22)"/><path class="cls-1" d="M342,418.62c2.19,0,3,1.38,3,5.92s-1,6.15-3.18,6.15-3-1.26-3-6.1C338.79,420.11,339.83,418.62,342,418.62Zm-.12,10.67c1.21,0,1.63-1.29,1.63-4.72S343.18,420,342,420s-1.65,1.28-1.65,4.91C340.32,428,340.69,429.29,341.88,429.29Z" transform="translate(-198.97 -398.22)"/><path class="cls-1" d="M355.66,419.47a1.7,1.7,0,0,1-.22.82,1.71,1.71,0,0,0-1.09-.42c-1.06,0-2.13.76-2.13,5.19,0,3.41.69,4.17,1.68,4.17a2.6,2.6,0,0,0,1.55-.52,2.12,2.12,0,0,1,.2.82c0,.66-.84,1.21-2.08,1.21-1.6,0-2.79-.72-2.79-5.61,0-5.75,1.82-6.59,3.31-6.59C355.33,418.55,355.66,419,355.66,419.47Z" transform="translate(-198.97 -398.22)"/><path class="cls-1" d="M361.44,419.39c0-.62,0-.62,1.38-.62v11.5c0,.27,0,.27-1.38.27Z" transform="translate(-198.97 -398.22)"/><path class="cls-1" d="M373.44,427.54h-2.89l-.66,2.76c-.05.18-.1.27-.64.27-.18,0-.54,0-.86-.05l3-11.56c0-.17.22-.23.52-.23a3.53,3.53,0,0,1,.64,0l3,11.51c0,.18-.05.29-.59.29a7.68,7.68,0,0,1-.81,0Zm-2.61-1.24h2.32l-.57-2.39a28,28,0,0,1-.59-3.23c-.1.81-.34,2.1-.59,3.23Z" transform="translate(-198.97 -398.22)"/><path class="cls-1" d="M382.53,429.25h2.89v1c0,.22-.12.27-.29.27h-4V419.15c0-.39,0-.39,1.38-.39Z" transform="translate(-198.97 -398.22)"/><path class="cls-1" d="M395.53,429.31c0,1.14,0,1.23-.27,1.23h-4V419.05s0-.29.29-.29h4c0,1.11,0,1.23-.25,1.23h-2.67v3.51h2.52c0,1,0,1.26-.25,1.26h-2.27v4.54Z" transform="translate(-198.97 -398.22)"/><path class="cls-1" d="M328,435.74c0-.43,0-.43,1-.43v8c0,.19,0,.19-1,.19Z" transform="translate(-198.97 -398.22)"/><path class="cls-1" d="M333.43,440.26c-.21-.52-.81-2.39-1.11-3.29.07.76.12,3,.12,3.48v2.83c0,.19,0,.19-.94.19v-7.95c0-.14.06-.2.2-.2h.72l1.3,3.14c.23.61.83,2.41,1.11,3.28v0c-.08-.7-.12-2.91-.12-3.46v-2.74c0-.2,0-.2,1-.2v8a.17.17,0,0,1-.2.19h-.71Z" transform="translate(-198.97 -398.22)"/><path class="cls-1" d="M339.67,435.31c1.52,0,2.28.83,2.28,3.65,0,3.41-.84,4.49-2.27,4.49h-1.45v-7.93c0-.14.06-.22.31-.22Zm0,.87h-.54v6.38h.52c.61,0,1.18-.47,1.18-3.69C340.87,436.72,340.48,436.19,339.7,436.19Z" transform="translate(-198.97 -398.22)"/><path class="cls-1" d="M347.29,442.61c0,.79,0,.85-.19.85h-2.76v-7.95s0-.2.2-.2h2.78c0,.77,0,.85-.17.85H345.3v2.43H347c0,.72,0,.87-.17.87H345.3v3.14ZM345.41,434a7.76,7.76,0,0,1,1.56-1.36c.22,0,.4.43.43.71a11,11,0,0,1-1.63,1.19C345.56,434.51,345.41,434,345.41,434Z" transform="translate(-198.97 -398.22)"/><path class="cls-1" d="M349.6,435.51c0-.14,0-.2.2-.2H351c1.47,0,2.14.69,2.14,2.3,0,1.92-1,2.54-2.14,2.54h-.41v3.12c0,.19,0,.19-.94.19Zm1.52.63h-.58v3.14h.51c.65,0,1-.48,1-1.77C352,436.69,351.81,436.14,351.13,436.14Z" transform="translate(-198.97 -398.22)"/><path class="cls-1" d="M358.29,442.61c0,.79,0,.85-.19.85h-2.76v-7.95s0-.2.2-.2h2.78c0,.77,0,.85-.17.85H356.3v2.43H358c0,.72,0,.87-.17.87H356.3v3.14Z" transform="translate(-198.97 -398.22)"/><path class="cls-1" d="M362.54,440.26c-.21-.52-.81-2.39-1.11-3.29.07.76.12,3,.12,3.48v2.83c0,.19,0,.19-.94.19v-7.95c0-.14.06-.2.2-.2h.72l1.3,3.14c.23.61.83,2.41,1.11,3.28v0c-.08-.7-.12-2.91-.12-3.46v-2.74c0-.2,0-.2,1-.2v8a.17.17,0,0,1-.2.19h-.71Z" transform="translate(-198.97 -398.22)"/><path class="cls-1" d="M368.77,435.31c1.52,0,2.28.83,2.28,3.65,0,3.41-.84,4.49-2.27,4.49h-1.46v-7.93c0-.14.06-.22.31-.22Zm0,.87h-.54v6.38h.52c.61,0,1.18-.47,1.18-3.69C370,436.72,369.59,436.19,368.81,436.19Z" transform="translate(-198.97 -398.22)"/><path class="cls-1" d="M376.07,441.39h-2l-.45,1.91c0,.13-.07.19-.44.19l-.59,0,2.07-8c0-.12.15-.16.36-.16a2.43,2.43,0,0,1,.44,0l2.08,8c0,.13,0,.2-.41.2a5.27,5.27,0,0,1-.56,0Zm-1.8-.86h1.61l-.4-1.65a19.34,19.34,0,0,1-.41-2.23c-.07.56-.23,1.45-.41,2.23Z" transform="translate(-198.97 -398.22)"/><path class="cls-1" d="M381.58,440.26c-.21-.52-.81-2.39-1.11-3.29.07.76.12,3,.12,3.48v2.83c0,.19,0,.19-.94.19v-7.95c0-.14.06-.2.2-.2h.72l1.3,3.14c.23.61.83,2.41,1.11,3.28v0c-.08-.7-.12-2.91-.12-3.46v-2.74c0-.2,0-.2,1-.2v8a.18.18,0,0,1-.2.19h-.71Z" transform="translate(-198.97 -398.22)"/><path class="cls-1" d="M388.48,436.2v7.08c0,.19,0,.19-.94.19V436.2H386v-.69c0-.14.06-.2.2-.2h4v.7c0,.14-.06.19-.2.19Z" transform="translate(-198.97 -398.22)"/><path class="cls-1" d="M395.57,435.78a.83.83,0,0,1-.23.55,2.08,2.08,0,0,0-1.14-.29c-.69,0-1.13.3-1.13.8a1.72,1.72,0,0,0,.54,1.15l1.26,1.43a2.74,2.74,0,0,1,.78,2,1.92,1.92,0,0,1-2.08,2.19c-1.06,0-1.53-.37-1.53-.7a1.2,1.2,0,0,1,.24-.67,1.75,1.75,0,0,0,1.2.41c.83,0,1.14-.48,1.14-1.19a2.12,2.12,0,0,0-.67-1.51l-1.18-1.36a2.57,2.57,0,0,1-.72-1.68c0-1,.7-1.68,2-1.68C395.16,435.2,395.57,435.45,395.57,435.78Z" transform="translate(-198.97 -398.22)"/><path class="cls-1" d="M231.71,443.58c-1.38,0-2.1-.84-2.1-2.44v-3.44h.65v3.43c0,1.25.48,1.87,1.48,1.87s1.4-.61,1.4-1.86v-3.44h.65v3.43C233.79,442.72,233.1,443.58,231.71,443.58Z" transform="translate(-198.97 -398.22)"/><path class="cls-1" d="M237.51,443.49v-2.54c0-.94-.33-1.36-1-1.36s-1.08.41-1.08,1.36v2.54h-.62v-4.35h.62v.53a1.41,1.41,0,0,1,1.2-.62c.92,0,1.52.54,1.52,1.79v2.65Z" transform="translate(-198.97 -398.22)"/><path class="cls-1" d="M242,443.58a2.44,2.44,0,0,1-1.53-.56l.36-.46A1.79,1.79,0,0,0,242,443c.6,0,.88-.25.88-.67s-.26-.55-1-.89-1.23-.64-1.23-1.33S241.23,439,242,439a2.14,2.14,0,0,1,1.39.46l-.35.45a1.58,1.58,0,0,0-1.08-.39c-.46,0-.72.22-.72.54s.22.51,1,.85,1.3.61,1.3,1.39S242.78,443.58,242,443.58Z" transform="translate(-198.97 -398.22)"/><path class="cls-1" d="M247.49,441.52h-2.9c.06.93.5,1.51,1.21,1.51a1.94,1.94,0,0,0,1.2-.41l.29.45a2.58,2.58,0,0,1-1.56.5c-.8,0-1.76-.58-1.76-2.29,0-1.38.76-2.24,1.8-2.24s1.75.89,1.75,2.14A1.91,1.91,0,0,1,247.49,441.52Zm-1.73-1.94c-.65,0-1.09.46-1.17,1.43h2.34C246.88,440.17,246.52,439.58,245.76,439.58Z" transform="translate(-198.97 -398.22)"/><path class="cls-1" d="M250.49,439.78a1.23,1.23,0,0,0-.65-.17c-.6,0-.94.49-.94,1.32v2.55h-.62v-4.35h.62v.54A1.27,1.27,0,0,1,250,439a1.68,1.68,0,0,1,.68.11Z" transform="translate(-198.97 -398.22)"/><path class="cls-1" d="M253,443.49h-.55l-1.56-4.35h.66l1.11,3.42.07.21.07-.21,1.11-3.42h.65Z" transform="translate(-198.97 -398.22)"/><path class="cls-1" d="M255.51,438.36a.44.44,0,1,1,.43-.44A.44.44,0,0,1,255.51,438.36Zm-.32,5.13v-4.35h.62v4.35Z" transform="translate(-198.97 -398.22)"/><path class="cls-1" d="M259.46,440a1.45,1.45,0,0,0-1-.44c-.68,0-1.2.61-1.2,1.7s.46,1.76,1.23,1.76a1.35,1.35,0,0,0,1-.46l.37.4a1.84,1.84,0,0,1-1.4.6c-1,0-1.83-.73-1.83-2.24s1-2.29,1.87-2.29a2,2,0,0,1,1.37.51Z" transform="translate(-198.97 -398.22)"/><path class="cls-1" d="M263.66,441.52h-2.9c.06.93.5,1.51,1.21,1.51a1.94,1.94,0,0,0,1.2-.41l.29.45a2.58,2.58,0,0,1-1.56.5c-.8,0-1.76-.58-1.76-2.29,0-1.38.76-2.24,1.8-2.24s1.75.89,1.75,2.14A1.9,1.9,0,0,1,263.66,441.52Zm-1.73-1.94c-.65,0-1.09.46-1.17,1.43h2.34C263.05,440.17,262.69,439.58,261.93,439.58Z" transform="translate(-198.97 -398.22)"/><path class="cls-1" d="M268.81,443.49V443a1.73,1.73,0,0,1-1.31.62c-.87,0-1.56-.66-1.56-2.19s.73-2.33,1.64-2.33a1.55,1.55,0,0,1,1.23.58V437.8l.62-.35v6Zm0-3.25a1.42,1.42,0,0,0-1.18-.65c-.72,0-1.08.62-1.08,1.79s.41,1.66,1.1,1.66a1.48,1.48,0,0,0,1.15-.63Z" transform="translate(-198.97 -398.22)"/><path class="cls-1" d="M273.69,441.52h-2.9c.06.93.5,1.51,1.21,1.51a1.94,1.94,0,0,0,1.2-.41l.29.45a2.58,2.58,0,0,1-1.56.5c-.8,0-1.76-.58-1.76-2.29,0-1.38.76-2.24,1.8-2.24s1.75.89,1.75,2.14A1.9,1.9,0,0,1,273.69,441.52ZM272,439.58c-.65,0-1.09.46-1.17,1.43h2.34C273.09,440.17,272.72,439.58,272,439.58Z" transform="translate(-198.97 -398.22)"/><path class="cls-1" d="M275.59,443.58a2.44,2.44,0,0,1-1.53-.56l.36-.46a1.79,1.79,0,0,0,1.18.48c.6,0,.88-.25.88-.67s-.26-.55-1-.89-1.23-.64-1.23-1.33.57-1.11,1.36-1.11a2.14,2.14,0,0,1,1.39.46l-.35.45a1.58,1.58,0,0,0-1.08-.39c-.46,0-.72.22-.72.54s.22.51,1,.85,1.3.61,1.3,1.39S276.34,443.58,275.59,443.58Z" transform="translate(-198.97 -398.22)"/><path class="cls-1" d="M281.72,443.58c-1.38,0-2.1-.84-2.1-2.44v-3.44h.65v3.43c0,1.25.48,1.87,1.48,1.87s1.4-.61,1.4-1.86v-3.44h.65v3.43C283.8,442.72,283.11,443.58,281.72,443.58Z" transform="translate(-198.97 -398.22)"/><path class="cls-1" d="M287,439.78a1.23,1.23,0,0,0-.65-.17c-.6,0-.94.49-.94,1.32v2.55h-.62v-4.35h.62v.54a1.27,1.27,0,0,1,1.08-.63,1.68,1.68,0,0,1,.68.11Z" transform="translate(-198.97 -398.22)"/><path class="cls-1" d="M288.8,443.58a2.44,2.44,0,0,1-1.53-.56l.36-.46a1.79,1.79,0,0,0,1.18.48c.6,0,.88-.25.88-.67s-.26-.55-1-.89-1.23-.64-1.23-1.33S288,439,288.79,439a2.14,2.14,0,0,1,1.39.46l-.35.45a1.58,1.58,0,0,0-1.08-.39c-.46,0-.72.22-.72.54s.22.51,1,.85,1.3.61,1.3,1.39S289.55,443.58,288.8,443.58Z" transform="translate(-198.97 -398.22)"/><path class="cls-1" d="M292.18,443.58a2.44,2.44,0,0,1-1.53-.56l.36-.46a1.79,1.79,0,0,0,1.18.48c.6,0,.88-.25.88-.67s-.26-.55-1-.89-1.23-.64-1.23-1.33.57-1.11,1.36-1.11a2.14,2.14,0,0,1,1.39.46l-.35.45a1.58,1.58,0,0,0-1.08-.39c-.46,0-.72.22-.72.54s.22.51,1,.85,1.3.61,1.3,1.39S292.93,443.58,292.18,443.58Z" transform="translate(-198.97 -398.22)"/><path class="cls-1" d="M296.89,443.49V443a1.79,1.79,0,0,1-1.36.62,1.28,1.28,0,0,1-1.39-1.39c0-1,.8-1.39,1.66-1.39a2.33,2.33,0,0,1,1.08.25v-.51a.84.84,0,0,0-.94-1,2.26,2.26,0,0,0-1.18.33l-.23-.51A3.11,3.11,0,0,1,296,439c.94,0,1.52.4,1.52,1.41v3Zm0-1.95a2.11,2.11,0,0,0-1.12-.25c-.64,0-1,.31-1,.85a.82.82,0,0,0,.89.93,1.52,1.52,0,0,0,1.25-.65Z" transform="translate(-198.97 -398.22)"/><path class="cls-1" d="M299.82,438c-.26,0-.45.09-.45.46v.64h.85v.52h-.85v3.83h-.62v-3.83h-.6v-.52h.6v-.6a.93.93,0,0,1,1-1.07,1.64,1.64,0,0,1,.55.07v.59A1.18,1.18,0,0,0,299.82,438Z" transform="translate(-198.97 -398.22)"/><path class="cls-2" d="M282.51,398.24s13.06-.71,20.06,7c4.59,5.09,4.75,9.56,4.75,9.56l-6.87.16a21.33,21.33,0,0,0-3.46-9c-5.32-7.53-14.48-7.71-14.48-7.71" transform="translate(-198.97 -398.22)"/><path class="cls-1" d="M199,418.95h6.3A26.43,26.43,0,0,0,211.55,431c4.94,5.06,8.9,6.77,8.9,6.77s-7.29,0-14.94-6.89a21,21,0,0,1-6.53-12" transform="translate(-198.97 -398.22)"/><path class="cls-1" d="M250.91,415.9H247l-.79,2.34h-1.66l3.75-10.48h1.31l3.75,10.48H251.7Zm-.45-1.41L249,409.91h0l-1.49,4.59Z" transform="translate(-198.97 -398.22)"/><path class="cls-1" d="M254.34,410.78h1.47v4.45a1.61,1.61,0,0,0,.42,1.18,1.39,1.39,0,0,0,1,.43,1.37,1.37,0,0,0,1-.43,1.63,1.63,0,0,0,.41-1.18v-4.45h1.47v7.46h-1.47v-.8h0a2.35,2.35,0,0,1-1.9.88,2.47,2.47,0,0,1-1.65-.67,2.34,2.34,0,0,1-.81-1.91Z" transform="translate(-198.97 -398.22)"/><path class="cls-1" d="M262.46,408.51h1.47v2.27H265v1.15h-1.08v4.35c0,.38.16.56.52.55H265v1.41h-.77a1.71,1.71,0,0,1-1.78-1.84v-4.47h-.74v-1.15h.74Z" transform="translate(-198.97 -398.22)"/><path class="cls-1" d="M266.17,414.51a6.62,6.62,0,0,1,.19-1.82,2.63,2.63,0,0,1,.61-1,2.77,2.77,0,0,1,.85-.67,3.11,3.11,0,0,1,1.38-.29,3.17,3.17,0,0,1,1.41.3,2.65,2.65,0,0,1,.82.67,2.36,2.36,0,0,1,.62,1,7.12,7.12,0,0,1,.18,1.81,6.92,6.92,0,0,1-.18,1.8,2.56,2.56,0,0,1-.62,1.07,2.31,2.31,0,0,1-.35.32,1.61,1.61,0,0,1-.47.31,2.9,2.9,0,0,1-1.41.32,2.84,2.84,0,0,1-1.38-.32,2.79,2.79,0,0,1-.85-.63,2.88,2.88,0,0,1-.61-1.07A6.43,6.43,0,0,1,266.17,414.51Zm4.58,0a6.83,6.83,0,0,0-.07-1.17,1.39,1.39,0,0,0-.29-.62,1.09,1.09,0,0,0-.48-.4,1.7,1.7,0,0,0-1.4,0,1.31,1.31,0,0,0-.5.4,1.74,1.74,0,0,0-.28.62,5.59,5.59,0,0,0-.09,1.15,5.44,5.44,0,0,0,.09,1.14,1.89,1.89,0,0,0,.28.65,1.81,1.81,0,0,0,.5.38,1.54,1.54,0,0,0,.69.16,1.51,1.51,0,0,0,.71-.16,1.4,1.4,0,0,0,.48-.38,1.5,1.5,0,0,0,.29-.65A6.41,6.41,0,0,0,270.75,414.52Z" transform="translate(-198.97 -398.22)"/><path class="cls-1" d="M219.42,427.48a1.76,1.76,0,0,0,.51,1.37,1.69,1.69,0,0,0,1.25.48,2.19,2.19,0,0,0,1.61-.73l1.07.93a3.44,3.44,0,0,1-2.65,1.21,3.77,3.77,0,0,1-1.13-.17,2.68,2.68,0,0,1-.54-.25A2.59,2.59,0,0,1,219,430a3,3,0,0,1-.76-1.16,4.66,4.66,0,0,1-.32-1.87,5.28,5.28,0,0,1,.28-1.84,3.21,3.21,0,0,1,.71-1.18,2.63,2.63,0,0,1,1-.63,3.11,3.11,0,0,1,1.06-.19,3,3,0,0,1,2.13.84,3.09,3.09,0,0,1,.9,2.32v1.23Zm3.11-1.23a1.93,1.93,0,0,0-.46-1.32,1.61,1.61,0,0,0-2.18,0,2,2,0,0,0-.46,1.32Z" transform="translate(-198.97 -398.22)"/><path class="cls-1" d="M225.79,423.18h1.47V424h0a2.35,2.35,0,0,1,1.91-.88,2.5,2.5,0,0,1,1.67.65,2.55,2.55,0,0,1,.78,1.94v5h-1.47v-4.45a1.62,1.62,0,0,0-.41-1.19,1.38,1.38,0,0,0-1-.42,1.41,1.41,0,0,0-1,.42,1.6,1.6,0,0,0-.42,1.19v4.45h-1.47Z" transform="translate(-198.97 -398.22)"/><path class="cls-1" d="M233.92,420.91h1.47v2.27h1.08v1.15h-1.08v4.35c0,.38.16.56.52.55h.55v1.41h-.77a1.71,1.71,0,0,1-1.78-1.84v-4.47h-.74v-1.15h.74Z" transform="translate(-198.97 -398.22)"/><path class="cls-1" d="M238,423.18h1.47V424h0a2.44,2.44,0,0,1,3.45-.31l-1.08,1.3a1.54,1.54,0,0,0-1-.38,1.38,1.38,0,0,0-1,.37,1.48,1.48,0,0,0-.47,1.19v4.5H238Z" transform="translate(-198.97 -398.22)"/><path class="cls-1" d="M244.65,427.48a1.76,1.76,0,0,0,.51,1.37,1.69,1.69,0,0,0,1.25.48,2.19,2.19,0,0,0,1.61-.73l1.07.93a3.44,3.44,0,0,1-2.65,1.21,3.77,3.77,0,0,1-1.13-.17,2.68,2.68,0,0,1-.54-.25,2.59,2.59,0,0,1-.52-.34,3,3,0,0,1-.76-1.16,4.66,4.66,0,0,1-.32-1.87,5.28,5.28,0,0,1,.28-1.84,3.21,3.21,0,0,1,.71-1.18,2.63,2.63,0,0,1,1-.63,3.11,3.11,0,0,1,1.06-.19,3,3,0,0,1,2.13.84,3.09,3.09,0,0,1,.9,2.32v1.23Zm3.11-1.23a1.93,1.93,0,0,0-.46-1.32,1.61,1.61,0,0,0-2.18,0,2,2,0,0,0-.46,1.32Z" transform="translate(-198.97 -398.22)"/><path class="cls-1" d="M251,423.18h1.47V424a2.52,2.52,0,0,1,1.9-.87,2.27,2.27,0,0,1,2,1,2,2,0,0,1,.42.93,12,12,0,0,1,.11,1.93,11.84,11.84,0,0,1-.11,1.9,2.07,2.07,0,0,1-.42.94,2.22,2.22,0,0,1-.8.69,2.53,2.53,0,0,1-1.17.28,2,2,0,0,1-1-.25,3.21,3.21,0,0,1-.88-.63v3.81H251Zm2.93,6.05a1.48,1.48,0,0,0,.83-.2,1.15,1.15,0,0,0,.43-.53,2.82,2.82,0,0,0,.19-.75q0-.4,0-.83t0-.87a2.65,2.65,0,0,0-.19-.75,1.06,1.06,0,0,0-.43-.53,1.62,1.62,0,0,0-.83-.18,1.32,1.32,0,0,0-.79.21,1.22,1.22,0,0,0-.45.55,2.8,2.8,0,0,0-.18.74,8.43,8.43,0,0,0,0,.84,7.52,7.52,0,0,0,0,.79,2.81,2.81,0,0,0,.18.76,1.23,1.23,0,0,0,.45.55A1.29,1.29,0,0,0,253.94,429.23Z" transform="translate(-198.97 -398.22)"/><path class="cls-1" d="M258.78,423.18h1.47V424h0a2.44,2.44,0,0,1,3.45-.31l-1.08,1.3a1.54,1.54,0,0,0-1-.38,1.38,1.38,0,0,0-1,.37,1.48,1.48,0,0,0-.47,1.19v4.5h-1.47Z" transform="translate(-198.97 -398.22)"/><path class="cls-1" d="M265.44,427.48a1.76,1.76,0,0,0,.51,1.37,1.69,1.69,0,0,0,1.25.48,2.19,2.19,0,0,0,1.61-.73l1.07.93a3.44,3.44,0,0,1-2.65,1.21,3.77,3.77,0,0,1-1.13-.17,2.68,2.68,0,0,1-.54-.25A2.59,2.59,0,0,1,265,430a3,3,0,0,1-.76-1.16,4.66,4.66,0,0,1-.32-1.87,5.28,5.28,0,0,1,.28-1.84,3.21,3.21,0,0,1,.71-1.18,2.63,2.63,0,0,1,1-.63,3.11,3.11,0,0,1,1.06-.19,3,3,0,0,1,2.13.84,3.09,3.09,0,0,1,.9,2.32v1.23Zm3.11-1.23a1.93,1.93,0,0,0-.46-1.32,1.61,1.61,0,0,0-2.18,0,2,2,0,0,0-.46,1.32Z" transform="translate(-198.97 -398.22)"/><path class="cls-1" d="M271.81,423.18h1.47V424h0a2.35,2.35,0,0,1,1.91-.88,2.5,2.5,0,0,1,1.67.65,2.55,2.55,0,0,1,.78,1.94v5h-1.47v-4.45a1.62,1.62,0,0,0-.41-1.19,1.38,1.38,0,0,0-1-.42,1.41,1.41,0,0,0-1,.42,1.6,1.6,0,0,0-.42,1.19v4.45h-1.47Z" transform="translate(-198.97 -398.22)"/><path class="cls-1" d="M281,427.48a1.76,1.76,0,0,0,.51,1.37,1.69,1.69,0,0,0,1.25.48,2.19,2.19,0,0,0,1.61-.73l1.07.93a3.44,3.44,0,0,1-2.65,1.21,3.77,3.77,0,0,1-1.13-.17,2.68,2.68,0,0,1-.54-.25,2.59,2.59,0,0,1-.52-.34,3,3,0,0,1-.76-1.16,4.66,4.66,0,0,1-.32-1.87,5.28,5.28,0,0,1,.28-1.84,3.21,3.21,0,0,1,.71-1.18,2.63,2.63,0,0,1,1-.63,3.11,3.11,0,0,1,1.06-.19,3,3,0,0,1,2.13.84,3.09,3.09,0,0,1,.9,2.32v1.23Zm3.11-1.23a1.93,1.93,0,0,0-.46-1.32,1.61,1.61,0,0,0-2.18,0,2,2,0,0,0-.46,1.32Z" transform="translate(-198.97 -398.22)"/><path class="cls-1" d="M287.33,423.18h1.47v4.45a1.61,1.61,0,0,0,.42,1.18,1.39,1.39,0,0,0,1,.43,1.37,1.37,0,0,0,1-.43,1.63,1.63,0,0,0,.41-1.18v-4.45h1.47v7.46h-1.47v-.8h0a2.35,2.35,0,0,1-1.9.88,2.47,2.47,0,0,1-1.65-.67,2.34,2.34,0,0,1-.81-1.91Z" transform="translate(-198.97 -398.22)"/><path class="cls-1" d="M295.37,423.18h1.47V424h0a2.44,2.44,0,0,1,3.45-.31l-1.08,1.3a1.54,1.54,0,0,0-1-.38,1.38,1.38,0,0,0-1,.37,1.48,1.48,0,0,0-.47,1.19v4.5h-1.47Z" transform="translate(-198.97 -398.22)"/></svg>