<svg version="1.1" id="Calque_1" xmlns="http://www.w3.org/2000/svg" xmlns:xlink="http://www.w3.org/1999/xlink" x="0px" y="0px"
	 viewBox="0 0 167.666 183.543" enable-background="new 0 0 167.666 183.543"
	 xml:space="preserve">
<path fill="#FFFFFF" d="M59.823,87.807c-1.84,0.183-3.732,0.538-5.55,0.993c-1.825,0.466-3.617,1.006-5.357,1.659
	c-3.476,1.319-6.759,2.993-9.754,4.998c-2.991,2.018-5.686,4.368-8.049,6.969c-2.358,2.61-4.392,5.459-6.127,8.479
	c-0.865,1.513-1.652,3.066-2.378,4.654c-0.71,1.597-1.385,3.206-1.95,4.871c-0.581,1.654-1.083,3.345-1.45,5.078
	c-0.391,1.725-0.684,3.479-0.917,5.242c-0.254,1.758-0.414,3.536-0.631,5.298c-0.187,1.772-0.409,3.535-0.678,5.302
	c-0.262,1.77-0.548,3.543-0.896,5.325c-0.146,0.896-0.339,1.788-0.509,2.688c-0.163,0.901-0.341,1.805-0.54,2.709l-0.872-3.887
	c0.089,0.251,0.138,0.535,0.262,0.792c0.09,0.274,0.229,0.545,0.362,0.834c0.16,0.276,0.323,0.568,0.541,0.851
	c0.204,0.286,0.435,0.591,0.698,0.884c0.259,0.298,0.556,0.588,0.874,0.877c0.325,0.288,0.648,0.6,1.024,0.875
	c0.357,0.297,0.764,0.55,1.157,0.847c0.414,0.271,0.829,0.557,1.277,0.813c0.438,0.265,0.901,0.524,1.368,0.785
	c0.47,0.26,0.957,0.494,1.451,0.746c0.991,0.49,2.026,0.956,3.094,1.412c1.068,0.454,2.169,0.894,3.297,1.337l3.456,1.276
	l0.123,1.596c-0.617,0.302-1.213,0.529-1.83,0.769c-0.613,0.243-1.234,0.417-1.861,0.607c-1.254,0.381-2.533,0.673-3.836,0.888
	c-1.304,0.217-2.63,0.352-3.983,0.411c-0.678,0.035-1.357,0.024-2.047,0.011c-0.689-0.025-1.387-0.043-2.086-0.131
	c-1.4-0.141-2.835-0.372-4.279-0.783c-0.723-0.185-1.454-0.434-2.185-0.697c-0.727-0.286-1.455-0.603-2.182-0.976
	c-0.723-0.373-1.458-0.772-2.158-1.262c-0.708-0.471-1.392-1.017-2.066-1.592c-0.651-0.605-1.326-1.212-1.901-1.929
	c-0.609-0.687-1.128-1.453-1.654-2.222l-0.626-0.916l-0.246-2.972c-0.169-2.047-0.232-4.102-0.204-6.164
	c0.024-2.063,0.189-4.127,0.473-6.184c0.285-2.057,0.726-4.102,1.28-6.121c0.572-2.021,1.261-4.013,2.017-5.985
	c0.388-0.983,0.769-1.965,1.198-2.936c0.401-0.976,0.83-1.943,1.273-2.904c0.889-1.92,1.79-3.833,2.772-5.713
	c0.959-1.886,2.048-3.72,3.182-5.517c1.138-1.798,2.414-3.517,3.741-5.184c2.672-3.327,5.758-6.333,9.139-8.898
	c3.379-2.57,7.074-4.673,10.926-6.248c3.845-1.589,7.841-2.671,11.864-3.215c2.011-0.272,4.022-0.446,6.033-0.45
	c2.017-0.004,3.992,0.077,6.014,0.413L59.823,87.807z"/>
<path fill="#FFFFFF" d="M34.991,123.083c0.53,1.498,0.929,3.035,1.357,4.564c0.415,1.535,0.744,3.079,1.09,4.629
	c0.358,1.549,0.597,3.106,0.901,4.666c0.289,1.561,0.502,3.125,0.733,4.692c0.201,1.568,0.445,3.141,0.596,4.714l0.448,4.729
	c0.168,1.579,0.198,3.157,0.299,4.739c0.093,1.582,0.156,3.165,0.215,4.75l-1.956-3.826c1.966,1.137,3.824,2.267,5.659,3.379
	c1.839,1.105,3.666,2.157,5.482,3.176c1.813,1.032,3.667,1.932,5.496,2.844c1.842,0.882,3.701,1.702,5.585,2.412
	c1.869,0.757,3.774,1.38,5.688,1.953c0.969,0.235,1.924,0.532,2.892,0.764c0.974,0.204,1.935,0.481,2.918,0.634
	c0.981,0.161,1.955,0.38,2.947,0.477c0.986,0.132,1.97,0.305,2.967,0.366c1.985,0.208,3.987,0.265,5.997,0.29
	c2.012,0.036,4.03-0.103,6.057-0.235l3.046-0.294c1.013-0.149,2.024-0.316,3.047-0.444c2.031-0.344,4.074-0.7,6.103-1.196
	c2.052-0.408,4.056-1.037,6.109-1.555c1.017-0.294,2.022-0.629,3.039-0.942l1.534-0.459l1.514-0.526
	c1.009-0.357,2.026-0.703,3.053-1.041l3.03-1.147c2.053-0.718,4.038-1.603,6.097-2.385c2.04-0.816,4.059-1.7,6.153-2.498
	c-0.79,0.785-1.611,1.533-2.429,2.294c-0.821,0.755-1.631,1.535-2.501,2.227c-1.733,1.396-3.451,2.849-5.299,4.113
	c-0.908,0.659-1.836,1.289-2.76,1.935c-0.946,0.605-1.901,1.205-2.865,1.791c-1.899,1.229-3.933,2.234-5.94,3.307
	c-2.051,0.991-4.121,1.96-6.27,2.781c-1.063,0.44-2.139,0.848-3.243,1.19c-1.101,0.348-2.188,0.749-3.309,1.054
	c-1.119,0.313-2.25,0.588-3.378,0.881l-3.439,0.696c-2.311,0.401-4.65,0.682-7.012,0.833c-1.177,0.118-2.365,0.112-3.55,0.125
	c-1.187,0.037-2.373-0.041-3.562-0.089c-2.376-0.101-4.749-0.382-7.095-0.799c-2.347-0.411-4.672-0.94-6.953-1.615
	c-2.266-0.71-4.508-1.486-6.682-2.402c-2.178-0.91-4.275-1.966-6.333-3.062c-2.053-1.1-4.024-2.327-5.937-3.585
	c-1.927-1.242-3.763-2.585-5.548-3.926c-1.795-1.327-3.521-2.704-5.19-3.999l-2.127-1.649l0.171-2.177
	c0.241-3.059,0.629-6.122,0.888-9.194l0.415-4.614c0.178-1.542,0.265-3.082,0.395-4.628c0.135-1.545,0.293-3.096,0.386-4.644
	l0.373-4.663L34.991,123.083z"/>
<path fill="#FFFFFF" d="M136.244,123.168c-0.334,2.917-0.57,5.854-0.75,8.784c-0.168,2.933-0.322,5.86-0.367,8.784
	c-0.006,1.462-0.033,2.923,0.007,4.379c0.019,0.728,0.013,1.457,0.055,2.182l0.097,2.175c0.11,1.441,0.182,2.889,0.367,4.31
	c0.09,0.711,0.139,1.431,0.267,2.129l0.335,2.103l-1.674-1.832c1.276,0.22,2.554,0.443,3.818,0.628
	c1.267,0.187,2.526,0.359,3.763,0.476c1.241,0.132,2.462,0.196,3.655,0.189c0.603,0.023,1.182-0.046,1.77-0.066
	c0.584-0.034,1.15-0.135,1.724-0.193c0.563-0.121,1.127-0.204,1.681-0.35c0.551-0.165,1.106-0.271,1.648-0.486
	c0.545-0.191,1.09-0.368,1.627-0.616c0.54-0.222,1.077-0.454,1.61-0.733c0.535-0.256,1.067-0.527,1.599-0.833
	c0.532-0.29,1.065-0.573,1.593-0.904c0.528-0.326,1.061-0.618,1.585-0.971l1.575-1.021l-1.679,3.128
	c-0.167-1.954-0.275-3.917-0.504-5.856c-0.182-1.947-0.446-3.876-0.708-5.803c-0.302-1.915-0.601-3.832-1.008-5.711
	c-0.188-0.945-0.376-1.889-0.629-2.812c-0.246-0.924-0.441-1.864-0.729-2.77c-0.513-1.835-1.115-3.625-1.749-5.391l-1.027-2.602
	l-1.119-2.534c-0.796-1.653-1.618-3.276-2.502-4.846c-0.928-1.541-1.819-3.095-2.869-4.531c-0.257-0.363-0.524-0.718-0.771-1.09
	l-0.807-1.06c-0.521-0.723-1.111-1.386-1.689-2.063c-0.569-0.686-1.206-1.311-1.801-1.981c-0.631-0.635-1.275-1.261-1.933-1.879
	c-1.331-1.222-2.729-2.391-4.21-3.494l-1.112-0.83l-1.154-0.786c-0.755-0.551-1.563-1.036-2.358-1.545
	c-1.597-1.015-3.27-1.944-4.961-2.883c-0.856-0.448-1.722-0.891-2.581-1.36l-2.639-1.307c-0.898-0.403-1.789-0.837-2.686-1.271
	l-2.725-1.243c-1.821-0.845-3.671-1.649-5.518-2.529l0.221-0.976c1.026,0.015,2.05,0.061,3.075,0.109l3.068,0.244
	c2.03,0.249,4.087,0.479,6.112,0.878l3.048,0.625c1.015,0.235,2.027,0.49,3.037,0.765c2.017,0.571,4.021,1.233,6.003,2.017
	c1.974,0.796,3.944,1.664,5.838,2.726c1.925,1.002,3.746,2.227,5.549,3.497c1.756,1.33,3.48,2.739,5.046,4.323
	c0.776,0.798,1.563,1.589,2.274,2.446l1.091,1.269c0.344,0.437,0.665,0.892,0.997,1.338c1.319,1.792,2.509,3.669,3.531,5.623
	c0.523,0.97,0.972,1.97,1.452,2.955c0.432,1.005,0.818,2.021,1.226,3.03c0.371,1.018,0.708,2.044,1.043,3.069l0.87,3.097
	l0.732,3.105c0.232,1.035,0.403,2.075,0.61,3.109c0.368,2.07,0.682,4.144,0.934,6.207c0.29,2.064,0.447,4.128,0.641,6.186
	c0.144,2.058,0.287,4.112,0.344,6.162c0.104,2.052,0.085,4.096,0.123,6.14l0.041,2.179l-1.72,0.949l-1.797,0.993
	c-0.59,0.337-1.229,0.636-1.84,0.955c-0.608,0.321-1.253,0.611-1.894,0.903c-0.631,0.299-1.294,0.563-1.964,0.818
	c-0.656,0.271-1.343,0.503-2.038,0.721c-0.68,0.239-1.397,0.413-2.108,0.593c-0.702,0.2-1.447,0.294-2.168,0.436
	c-0.728,0.121-1.469,0.174-2.2,0.256c-0.733,0.02-1.47,0.074-2.194,0.056c-0.722-0.031-1.454-0.021-2.157-0.105
	c-1.424-0.116-2.813-0.316-4.16-0.577c-1.358-0.24-2.673-0.56-3.974-0.889c-1.304-0.327-2.579-0.686-3.857-1.041l-1.581-0.438
	l-0.094-1.394l-0.156-2.293c-0.067-0.764-0.052-1.521-0.078-2.279c-0.057-1.519,0.004-3.022,0.026-4.527l0.104-2.248
	c0.025-0.749,0.099-1.493,0.147-2.239c0.095-1.492,0.257-2.975,0.398-4.457c0.329-2.961,0.71-5.907,1.207-8.834
	c0.494-2.928,1.041-5.837,1.689-8.734L136.244,123.168z"/>
<path fill="#FFFFFF" d="M60.309,97.979c0.613,1.963,1.241,3.896,1.958,5.784c0.355,0.943,0.728,1.873,1.142,2.771
	c0.415,0.898,0.852,1.775,1.359,2.6c0.238,0.422,0.512,0.819,0.78,1.218c0.26,0.402,0.567,0.776,0.844,1.165
	c0.594,0.756,1.224,1.484,1.897,2.189c1.346,1.41,2.826,2.747,4.343,4.073l-3.634,0.768l0.561-1.608
	c0.193-0.535,0.366-1.079,0.578-1.607c0.439-1.052,0.825-2.131,1.316-3.167l0.718-1.565c0.238-0.523,0.519-1.026,0.778-1.542
	c0.268-0.511,0.517-1.033,0.814-1.53l0.865-1.509c0.3-0.497,0.626-0.979,0.94-1.471c0.309-0.494,0.648-0.97,0.988-1.447
	c0.337-0.479,0.674-0.958,1.042-1.419c0.362-0.465,0.711-0.938,1.101-1.388c0.757-0.912,1.543-1.808,2.403-2.666
	c0.419-0.437,0.871-0.854,1.331-1.276c0.238-0.209,0.462-0.417,0.722-0.627c0.267-0.22,0.466-0.39,0.872-0.68l1.794-1.287l2.1,1.262
	c0.649,0.391,1.113,0.686,1.629,1.036c0.507,0.336,0.987,0.688,1.476,1.037c0.97,0.697,1.913,1.423,2.832,2.181
	c0.922,0.754,1.812,1.549,2.69,2.36l1.282,1.259c0.437,0.414,0.831,0.868,1.233,1.315c0.816,0.884,1.563,1.838,2.3,2.798
	l1.031,1.501c0.354,0.493,0.646,1.029,0.953,1.555c0.303,0.53,0.608,1.057,0.882,1.602l0.775,1.662
	c0.518,1.105,0.89,2.284,1.299,3.431l-7.35-1.473l0.969-0.925c0.313-0.317,0.678-0.597,0.974-0.93
	c0.607-0.652,1.273-1.273,1.853-1.961c0.61-0.668,1.196-1.358,1.764-2.073c0.297-0.35,0.568-0.716,0.842-1.083
	c0.271-0.369,0.567-0.729,0.821-1.113c0.537-0.753,1.055-1.528,1.555-2.325c0.267-0.394,0.482-0.807,0.734-1.214
	c0.257-0.405,0.467-0.827,0.709-1.246c0.246-0.417,0.464-0.846,0.682-1.28c0.229-0.433,0.414-0.876,0.644-1.319
	c0.411-0.888,0.812-1.819,1.167-2.746l0.9,0.002c0.294,1.07,0.419,2.121,0.494,3.199c0.073,1.074,0.04,2.151-0.03,3.23
	c-0.028,0.543-0.091,1.081-0.171,1.615c-0.075,0.537-0.147,1.081-0.269,1.607c-0.114,0.53-0.214,1.072-0.357,1.598l-0.449,1.578
	c-0.159,0.526-0.364,1.03-0.548,1.551c-0.182,0.521-0.382,1.034-0.619,1.528l-0.686,1.508l-0.791,1.453
	c-0.268,0.484-0.528,0.977-0.842,1.43l-0.914,1.386c-0.296,0.474-0.649,0.895-0.984,1.335l-1.026,1.309l-3.82,4.873l-3.53-6.347
	c-0.477-0.856-0.842-1.75-1.334-2.592c-0.232-0.426-0.475-0.847-0.696-1.277c-0.227-0.429-0.505-0.833-0.741-1.258
	c-0.465-0.854-1.029-1.656-1.525-2.501l-0.815-1.23c-0.259-0.421-0.547-0.822-0.839-1.224c-0.297-0.396-0.558-0.822-0.867-1.213
	l-0.902-1.197c-0.629-0.779-1.271-1.553-1.947-2.299c-0.681-0.74-1.387-1.46-2.112-2.151c-0.372-0.331-0.742-0.671-1.119-0.982
	c-0.358-0.311-0.793-0.646-1.059-0.857l3.895-0.024c-0.05,0.016-0.291,0.173-0.458,0.287c-0.181,0.117-0.373,0.266-0.563,0.4
	c-0.377,0.285-0.764,0.575-1.137,0.898c-0.758,0.621-1.492,1.312-2.207,2.022c-0.366,0.347-0.705,0.728-1.055,1.097
	c-0.354,0.364-0.687,0.753-1.02,1.143c-0.683,0.763-1.303,1.589-1.942,2.4l-0.925,1.25c-0.318,0.411-0.594,0.854-0.889,1.284
	c-0.286,0.436-0.595,0.858-0.864,1.308l-0.817,1.343c-0.56,0.89-1.023,1.837-1.544,2.757c-0.485,0.938-0.929,1.899-1.407,2.849
	l-1.57,3.123l-2.064-2.354c-1.372-1.565-2.738-3.17-4.004-4.907c-0.632-0.868-1.229-1.775-1.78-2.713
	c-0.257-0.482-0.545-0.943-0.77-1.441c-0.235-0.491-0.474-0.979-0.669-1.483c-0.426-0.995-0.76-2.016-1.06-3.03
	c-0.163-0.507-0.275-1.02-0.411-1.527c-0.138-0.509-0.235-1.02-0.35-1.529c-0.418-2.039-0.734-4.086-1.023-6.109L60.309,97.979z"/>
<path fill="#FFFFFF" d="M52.39,44.54c0,0,0.052-0.913,0.149-2.625c0.024-0.428,0.051-0.906,0.081-1.432
	c0.036-0.527,0.127-1.107,0.198-1.732c0.165-1.248,0.287-2.695,0.632-4.271c0.151-0.793,0.311-1.628,0.478-2.505
	c0.227-0.864,0.465-1.768,0.712-2.71c0.215-0.954,0.542-1.914,0.889-2.911c0.35-0.995,0.643-2.056,1.123-3.083
	c1.665-4.204,4.12-8.832,7.968-13.112c0.489-0.529,0.983-1.064,1.482-1.604c0.554-0.491,1.112-0.986,1.677-1.486
	c1.087-1.064,2.436-1.854,3.725-2.782c0.672-0.422,1.398-0.772,2.11-1.165l1.084-0.577c0.368-0.183,0.763-0.311,1.147-0.47
	c0.773-0.306,1.564-0.595,2.362-0.884c0.828-0.197,1.662-0.395,2.502-0.594c0.838-0.238,1.707-0.309,2.583-0.396l1.32-0.133
	l0.666-0.064c-0.134-0.007,0.275,0,0.26,0l0.075,0.003l0.151,0.005l0.302,0.01c0.807,0.027,1.617,0.055,2.433,0.083
	c0.379-0.014,0.904,0.109,1.361,0.169l1.426,0.233c0.474,0.084,0.963,0.155,1.427,0.259l1.329,0.395l1.338,0.405
	c0.451,0.126,0.895,0.274,1.315,0.478c0.857,0.376,1.719,0.755,2.584,1.135c0.835,0.433,1.636,0.933,2.461,1.406
	c6.478,3.988,11.636,10.171,14.995,17.192l0.653,1.314l0.549,1.356c0.359,0.908,0.737,1.814,1.079,2.734
	c0.552,1.874,1.247,3.73,1.61,5.663c0.979,3.824,1.306,7.773,1.512,11.717l-0.032,2.916l-0.015,1.371
	c-0.016,0.472-0.079,1.014-0.117,1.518l-0.284,3.081c-0.124,1.005-0.308,1.969-0.462,2.957c-0.257,1.977-0.852,3.89-1.303,5.833
	c-0.292,0.955-0.621,1.899-0.934,2.849l-0.48,1.42l-0.588,1.383c-3.013,7.393-7.997,14.211-14.815,18.74
	c-3.354,2.309-7.256,3.835-11.18,4.637c-0.993,0.166-1.971,0.396-2.962,0.463c-0.993,0.042-1.98,0.084-2.962,0.126l-0.366,0.012
	l-0.184,0.006l-0.091,0.002c0.044,0.005-0.731-0.025-0.438-0.017l-0.6-0.064l-1.192-0.127l-1.185-0.127l-0.301-0.035l-0.382-0.076
	l-0.761-0.157c-1.01-0.226-2.006-0.468-2.983-0.721c-0.877-0.324-1.734-0.646-2.577-0.994c-0.417-0.179-0.846-0.328-1.245-0.532
	l-1.173-0.64c-0.771-0.432-1.55-0.838-2.265-1.315c-1.374-1.032-2.801-1.936-3.934-3.109c-0.585-0.557-1.166-1.108-1.74-1.654
	c-0.509-0.597-1.013-1.187-1.512-1.771c-3.89-4.735-6.152-9.717-7.596-14.156c-0.424-1.088-0.66-2.2-0.953-3.241
	c-0.291-1.042-0.56-2.044-0.721-3.031c-0.192-0.973-0.377-1.906-0.554-2.798c-0.117-0.898-0.229-1.754-0.334-2.567
	c-0.253-1.614-0.298-3.072-0.396-4.329c-0.111-1.256-0.118-2.327-0.116-3.196c-0.012-1.732-0.018-2.657-0.018-2.657V44.54z
	 M53.489,44.562c0,0,0.065,0.903,0.188,2.596c0.03,0.422,0.064,0.894,0.101,1.413c0.047,0.518,0.172,1.076,0.266,1.681
	c0.216,1.208,0.385,2.606,0.857,4.115c0.211,0.758,0.412,1.559,0.659,2.387c0.306,0.809,0.626,1.655,0.959,2.538
	c0.305,0.888,0.752,1.762,1.202,2.666c0.446,0.905,0.888,1.846,1.484,2.744c2.187,3.67,5.265,7.428,9.219,10.388
	c0.489,0.366,0.983,0.736,1.482,1.11c0.527,0.318,1.059,0.638,1.596,0.962l0.794,0.489c0.265,0.163,0.563,0.267,0.84,0.408
	c0.555,0.27,1.115,0.543,1.679,0.818c0.573,0.244,1.177,0.41,1.753,0.64l0.874,0.327c0.294,0.101,0.605,0.144,0.907,0.22
	c0.607,0.13,1.207,0.303,1.804,0.453c0.544,0.046,1.079,0.105,1.61,0.184l0.397,0.071l0.199,0.038l0.289,0.009l1.191,0.028
	l1.199,0.028l0.603,0.014c0.344,0.01-0.382-0.011-0.287-0.012l0.059-0.007l0.118-0.014l0.236-0.027
	c0.627-0.063,1.259-0.126,1.894-0.19c0.632-0.075,1.248-0.287,1.879-0.401c2.483-0.648,4.991-1.603,7.292-3.196
	c4.68-2.993,8.815-7.743,11.719-13.436l0.563-1.062l0.472-1.113l0.944-2.244c0.475-1.56,1.104-3.088,1.426-4.715
	c0.185-0.801,0.411-1.617,0.569-2.413l0.359-2.357c0.057-0.404,0.138-0.766,0.179-1.206l0.093-1.368l0.093-1.369l0.046-0.684
	l0.023-0.342l0.012-0.171l0.006-0.085c0,0.048,0.007-0.229,0.002,0.087c-0.02-3.354-0.103-6.749-0.78-10.033
	c-0.216-1.671-0.744-3.257-1.118-4.885l-0.799-2.358l-0.403-1.177l-0.497-1.131c-2.557-6.063-6.52-11.449-11.539-14.982
	c-2.439-1.835-5.331-3.033-8.019-3.754l-0.996-0.244c-0.352-0.071-0.615-0.202-1.058-0.218c-0.813-0.078-1.62-0.156-2.423-0.233
	l-0.301-0.029L85.254,5.5l-0.075-0.007c-0.064-0.005,0.294,0.011,0.11,0.005l-0.537,0.014l-1.071,0.022
	c-0.714,0.011-1.429-0.003-2.122,0.146c-0.702,0.104-1.399,0.208-2.091,0.31c-0.676,0.185-1.343,0.391-2.019,0.563
	c-0.334,0.096-0.68,0.161-1.004,0.282l-0.963,0.39c-0.636,0.269-1.292,0.491-1.909,0.79c-0.605,0.329-1.205,0.655-1.799,0.979
	c-0.295,0.168-0.61,0.303-0.89,0.493l-0.834,0.571c-0.558,0.38-1.111,0.757-1.659,1.129c-0.509,0.43-1.013,0.855-1.512,1.277
	c-3.995,3.415-6.88,7.526-8.846,11.433c-0.542,0.958-0.925,1.95-1.315,2.901c-0.394,0.949-0.784,1.864-1.034,2.785
	c-0.278,0.913-0.545,1.789-0.801,2.626c-0.18,0.856-0.352,1.673-0.516,2.449c-0.379,1.546-0.471,2.956-0.619,4.172
	c-0.061,0.611-0.153,1.168-0.173,1.693c-0.012,0.527-0.022,1.005-0.031,1.434c-0.037,1.714-0.057,2.628-0.057,2.628V44.562z"/>
<path fill="#FFFFFF" d="M119.907,47.385c0,0-0.179,0.097-0.516,0.279c-0.385,0.213-0.894,0.455-1.529,0.747
	c-0.644,0.283-1.417,0.619-2.318,0.95c-0.899,0.333-1.917,0.689-3.044,1.003c-1.111,0.365-2.356,0.6-3.646,0.917
	c-0.654,0.112-1.327,0.228-2.016,0.345c-0.684,0.127-1.386,0.229-2.107,0.285c-0.717,0.07-1.445,0.141-2.183,0.213
	c-0.739,0.04-1.49,0.042-2.242,0.064c-1.503,0.086-3.03-0.064-4.545-0.14c-0.76-0.017-1.511-0.151-2.259-0.254
	c-0.745-0.107-1.488-0.213-2.225-0.319c-1.46-0.277-2.874-0.655-4.242-0.964c-1.352-0.388-2.629-0.859-3.846-1.252
	c-0.303-0.104-0.604-0.196-0.895-0.306c-0.285-0.125-0.566-0.249-0.842-0.37c-0.55-0.243-1.082-0.477-1.592-0.701
	c-1.013-0.462-1.966-0.818-2.739-1.294c-0.787-0.438-1.474-0.819-2.039-1.133c-1.125-0.625-1.768-0.982-1.768-0.982
	s0.684,0.273,1.88,0.751c0.595,0.237,1.318,0.526,2.148,0.857c0.811,0.368,1.8,0.6,2.844,0.923c0.523,0.155,1.069,0.316,1.633,0.483
	c0.281,0.083,0.567,0.168,0.857,0.254c0.295,0.071,0.6,0.122,0.906,0.185c1.228,0.229,2.506,0.524,3.841,0.729
	c1.35,0.125,2.729,0.313,4.135,0.399c0.704,0.01,1.414,0.02,2.127,0.03c0.711,0.007,1.421,0.045,2.133-0.033
	c1.421-0.114,2.836-0.148,4.209-0.41c0.688-0.109,1.37-0.197,2.037-0.318c0.662-0.152,1.315-0.302,1.958-0.45
	c0.645-0.13,1.267-0.305,1.869-0.5c0.603-0.184,1.191-0.364,1.766-0.54c1.118-0.439,2.194-0.78,3.132-1.232
	c0.958-0.403,1.803-0.828,2.542-1.215c0.739-0.384,1.358-0.755,1.859-1.055c0.498-0.313,0.875-0.556,1.074-0.707
	c0.25-0.18,0.384-0.275,0.384-0.275L119.907,47.385z"/>
<g>
	<path fill="#FFFFFF" d="M120.838,165.195l-3.03,1.147c-1.026,0.338-2.044,0.684-3.053,1.041l-1.514,0.526l-1.534,0.459
		c-1.017,0.313-2.022,0.648-3.039,0.942c-2.054,0.518-4.058,1.146-6.109,1.555c-2.028,0.496-4.071,0.853-6.103,1.196
		c-1.022,0.128-2.034,0.295-3.047,0.444l-3.046,0.294c-2.027,0.133-4.045,0.271-6.057,0.235c-2.01-0.025-4.011-0.082-5.997-0.29
		c-0.997-0.062-1.98-0.234-2.967-0.366c-0.992-0.097-1.965-0.315-2.947-0.477c-0.984-0.152-1.945-0.43-2.918-0.634
		c-0.968-0.231-1.922-0.528-2.892-0.764c-1.914-0.573-3.819-1.196-5.688-1.953c-1.885-0.71-3.743-1.53-5.585-2.412
		c-1.829-0.912-3.683-1.812-5.496-2.844c-1.816-1.019-3.643-2.07-5.482-3.176c-1.251-0.759-2.528-1.527-3.828-2.299
		c-0.03-0.668-0.051-1.336-0.091-2.004c-0.101-1.582-0.131-3.16-0.299-4.739l-0.448-4.729c-0.151-1.573-0.395-3.146-0.596-4.714
		c-0.23-1.567-0.444-3.132-0.733-4.692c-0.305-1.56-0.543-3.117-0.901-4.666c-0.346-1.55-0.675-3.094-1.09-4.629
		c-0.429-1.529-0.828-3.066-1.357-4.564l-0.695,9.409l-0.373,4.663c-0.093,1.548-0.251,3.099-0.386,4.644
		c-0.129,1.546-0.217,3.086-0.395,4.628l-0.415,4.614c-0.254,3.021-0.631,6.032-0.873,9.04l-2.284-0.844
		c-1.128-0.443-2.229-0.883-3.297-1.337c-1.068-0.456-2.103-0.922-3.094-1.412c-0.494-0.252-0.981-0.486-1.451-0.746
		c-0.467-0.261-0.93-0.521-1.368-0.785c-0.448-0.256-0.863-0.541-1.277-0.813c-0.394-0.297-0.8-0.55-1.157-0.847
		c-0.376-0.275-0.699-0.587-1.024-0.875c-0.317-0.289-0.615-0.579-0.874-0.877c-0.263-0.293-0.494-0.598-0.698-0.884
		c-0.003-0.005-0.006-0.009-0.009-0.014c0.084-0.429,0.179-0.857,0.256-1.285c0.17-0.899,0.363-1.791,0.509-2.688
		c0.348-1.782,0.634-3.556,0.896-5.325c0.269-1.767,0.491-3.529,0.678-5.302c0.218-1.762,0.377-3.54,0.631-5.298
		c0.233-1.764,0.525-3.518,0.917-5.242c0.367-1.733,0.869-3.424,1.45-5.078c0.564-1.665,1.24-3.274,1.95-4.871
		c0.726-1.588,1.513-3.142,2.378-4.654c1.735-3.021,3.77-5.869,6.127-8.479c2.363-2.601,5.058-4.952,8.049-6.969
		c2.996-2.005,6.279-3.679,9.755-4.998c1.741-0.653,3.533-1.193,5.357-1.659c1.817-0.455,3.71-0.81,5.55-0.993l0.096-1.597
		c-2.022-0.336-3.998-0.417-6.014-0.413c-2.011,0.004-4.022,0.178-6.033,0.45c-4.023,0.544-8.02,1.626-11.865,3.215
		c-3.852,1.575-7.547,3.678-10.926,6.248c-3.38,2.565-6.467,5.571-9.139,8.898c-1.327,1.667-2.603,3.386-3.741,5.184
		c-1.133,1.797-2.223,3.631-3.182,5.517c-0.982,1.88-1.883,3.793-2.772,5.713c-0.443,0.961-0.872,1.929-1.273,2.904
		c-0.429,0.971-0.81,1.952-1.198,2.936c-0.756,1.973-1.445,3.964-2.017,5.985c-0.554,2.02-0.995,4.064-1.28,6.121
		c-0.283,2.057-0.449,4.121-0.473,6.184c-0.029,2.063,0.035,4.117,0.204,6.164l0.246,2.972l0.626,0.916
		c0.526,0.769,1.045,1.535,1.654,2.222c0.575,0.717,1.25,1.323,1.901,1.929c0.674,0.575,1.357,1.121,2.066,1.592
		c0.699,0.489,1.435,0.889,2.158,1.262c0.727,0.373,1.455,0.689,2.182,0.976c0.73,0.264,1.462,0.513,2.185,0.697
		c1.443,0.411,2.878,0.643,4.279,0.783c0.7,0.088,1.397,0.105,2.086,0.131c0.69,0.014,1.369,0.024,2.047-0.011
		c1.353-0.06,2.68-0.194,3.983-0.411c1.303-0.215,2.582-0.507,3.836-0.888c0.626-0.19,1.248-0.364,1.861-0.607
		c0.212-0.082,0.42-0.165,0.629-0.248l1.846,1.432c1.669,1.295,3.395,2.672,5.19,3.999c1.785,1.341,3.621,2.684,5.548,3.926
		c1.912,1.258,3.884,2.485,5.937,3.585c2.057,1.096,4.154,2.151,6.333,3.062c2.173,0.916,4.416,1.692,6.682,2.402
		c2.28,0.675,4.606,1.204,6.953,1.615c2.346,0.417,4.718,0.698,7.095,0.799c1.188,0.048,2.375,0.126,3.562,0.089
		c1.186-0.013,2.373-0.007,3.55-0.125c2.361-0.151,4.701-0.432,7.012-0.833l3.439-0.696c1.128-0.293,2.259-0.568,3.378-0.881
		c1.12-0.305,2.208-0.706,3.309-1.054c1.104-0.343,2.181-0.75,3.243-1.19c2.148-0.821,4.219-1.79,6.27-2.781
		c2.008-1.072,4.041-2.078,5.94-3.307c0.964-0.586,1.919-1.186,2.865-1.791c0.924-0.646,1.852-1.275,2.76-1.935
		c1.848-1.265,3.565-2.717,5.299-4.113c0.87-0.691,1.68-1.472,2.501-2.227c0.817-0.761,1.639-1.509,2.429-2.294
		c-2.095,0.798-4.113,1.682-6.153,2.498C124.876,163.593,122.891,164.478,120.838,165.195z"/>
	<path fill="#FFFFFF" d="M167.628,154.197c-0.038-2.044-0.019-4.088-0.123-6.14c-0.057-2.05-0.2-4.104-0.344-6.162
		c-0.193-2.058-0.351-4.121-0.641-6.186c-0.252-2.063-0.565-4.137-0.934-6.207c-0.207-1.034-0.378-2.074-0.61-3.109l-0.732-3.105
		l-0.87-3.097c-0.335-1.025-0.673-2.052-1.044-3.069c-0.406-1.009-0.793-2.025-1.225-3.03c-0.48-0.985-0.93-1.985-1.453-2.955
		c-1.021-1.954-2.211-3.831-3.531-5.623c-0.332-0.446-0.652-0.901-0.996-1.338l-1.092-1.269c-0.712-0.857-1.498-1.648-2.274-2.446
		c-1.565-1.584-3.29-2.993-5.046-4.324c-1.803-1.269-3.624-2.493-5.549-3.496c-1.894-1.062-3.864-1.93-5.838-2.726
		c-1.981-0.784-3.986-1.446-6.003-2.017c-1.01-0.275-2.022-0.529-3.037-0.765l-3.048-0.625c-2.025-0.399-4.082-0.63-6.112-0.878
		l-3.068-0.244c-1.025-0.048-2.049-0.094-3.075-0.109l-0.221,0.976c1.847,0.88,3.696,1.684,5.518,2.529l2.725,1.243
		c0.896,0.435,1.787,0.869,2.686,1.271l2.639,1.307c0.859,0.469,1.725,0.912,2.581,1.359c1.691,0.939,3.364,1.868,4.961,2.884
		c0.796,0.508,1.604,0.994,2.358,1.544l1.154,0.787l1.112,0.83c1.481,1.104,2.879,2.272,4.21,3.494
		c0.657,0.618,1.302,1.244,1.933,1.879c0.595,0.671,1.231,1.296,1.801,1.981c0.578,0.677,1.169,1.34,1.689,2.063l0.807,1.06
		c0.246,0.372,0.514,0.727,0.771,1.09c1.05,1.437,1.941,2.99,2.869,4.531c0.884,1.569,1.706,3.192,2.502,4.846l1.119,2.534
		l1.027,2.602c0.635,1.766,1.236,3.556,1.75,5.391c0.287,0.905,0.482,1.846,0.729,2.77c0.252,0.923,0.441,1.866,0.629,2.812
		c0.406,1.879,0.705,3.796,1.008,5.711c0.262,1.927,0.525,3.855,0.707,5.803c0.152,1.296,0.254,2.603,0.353,3.91
		c-0.441,0.281-0.887,0.537-1.329,0.811c-0.527,0.331-1.061,0.614-1.594,0.904c-0.531,0.306-1.063,0.577-1.598,0.833
		c-0.533,0.279-1.07,0.512-1.611,0.733c-0.537,0.248-1.082,0.425-1.627,0.616c-0.542,0.215-1.098,0.321-1.648,0.486
		c-0.554,0.146-1.118,0.229-1.681,0.35c-0.573,0.059-1.14,0.159-1.724,0.193c-0.588,0.021-1.167,0.09-1.77,0.066
		c-1.193,0.007-2.414-0.058-3.655-0.189c-1.236-0.116-2.496-0.289-3.763-0.476c-0.795-0.116-1.596-0.249-2.397-0.385l-0.082-0.514
		c-0.128-0.698-0.177-1.418-0.267-2.129c-0.186-1.421-0.257-2.868-0.367-4.31l-0.097-2.175c-0.042-0.725-0.036-1.454-0.055-2.182
		c-0.04-1.456-0.013-2.917-0.007-4.379c0.045-2.924,0.199-5.852,0.367-8.784c0.18-2.93,0.416-5.867,0.75-8.784l-0.984-0.17
		c-0.648,2.897-1.195,5.807-1.689,8.734c-0.497,2.927-0.878,5.873-1.207,8.834c-0.142,1.482-0.304,2.965-0.398,4.457
		c-0.049,0.746-0.122,1.49-0.147,2.239l-0.104,2.248c-0.022,1.505-0.083,3.009-0.026,4.527c0.026,0.759,0.011,1.516,0.078,2.279
		l0.156,2.293l0.094,1.394l1.581,0.438c1.278,0.355,2.554,0.714,3.857,1.041c1.301,0.329,2.615,0.648,3.974,0.889
		c1.348,0.261,2.736,0.461,4.16,0.577c0.703,0.084,1.436,0.074,2.157,0.105c0.725,0.019,1.461-0.036,2.194-0.056
		c0.731-0.082,1.473-0.135,2.2-0.256c0.721-0.142,1.466-0.235,2.169-0.436c0.711-0.18,1.428-0.354,2.107-0.593
		c0.695-0.218,1.383-0.449,2.039-0.721c0.67-0.255,1.332-0.52,1.963-0.818c0.641-0.292,1.285-0.582,1.895-0.903
		c0.611-0.319,1.25-0.618,1.84-0.955l1.797-0.993l1.72-0.949L167.628,154.197z"/>
	<path fill="#FFFFFF" d="M108.465,103.659c-0.252,0.407-0.468,0.82-0.734,1.214c-0.5,0.797-1.018,1.572-1.555,2.325
		c-0.254,0.384-0.551,0.744-0.821,1.113c-0.273,0.367-0.545,0.733-0.842,1.083c-0.299,0.377-0.62,0.729-0.931,1.094
		c-0.08-0.142-0.153-0.285-0.234-0.427c-0.308-0.525-0.6-1.062-0.953-1.555l-1.031-1.501c-0.736-0.96-1.483-1.914-2.3-2.798
		c-0.402-0.447-0.797-0.901-1.233-1.315l-1.282-1.259c-0.879-0.812-1.769-1.606-2.69-2.36c-0.919-0.758-1.862-1.484-2.832-2.181
		c-0.488-0.35-0.969-0.701-1.476-1.037c-0.516-0.351-0.979-0.646-1.629-1.036l-2.1-1.262l-1.794,1.286
		c-0.405,0.291-0.604,0.46-0.872,0.681c-0.26,0.21-0.484,0.418-0.722,0.627c-0.46,0.422-0.912,0.84-1.331,1.275
		c-0.86,0.859-1.646,1.755-2.403,2.667c-0.389,0.449-0.738,0.923-1.101,1.388c-0.368,0.461-0.705,0.94-1.042,1.419
		c-0.34,0.478-0.68,0.953-0.988,1.447c-0.313,0.491-0.64,0.974-0.94,1.471l-0.865,1.509c-0.297,0.497-0.546,1.02-0.814,1.53
		c-0.259,0.516-0.54,1.019-0.778,1.542l-0.718,1.565c-0.491,1.036-0.877,2.115-1.316,3.167c-0.019,0.046-0.033,0.093-0.051,0.139
		c-0.615-0.58-1.223-1.162-1.796-1.764c-0.673-0.705-1.303-1.434-1.897-2.189c-0.277-0.389-0.584-0.763-0.844-1.165
		c-0.268-0.398-0.542-0.796-0.78-1.218c-0.507-0.824-0.944-1.701-1.359-2.6c-0.414-0.898-0.786-1.828-1.142-2.771
		c-0.718-1.889-1.346-3.821-1.958-5.785l-0.877,0.202c0.289,2.024,0.604,4.071,1.023,6.11c0.114,0.51,0.211,1.021,0.35,1.529
		c0.136,0.508,0.249,1.021,0.411,1.527c0.3,1.015,0.634,2.035,1.06,3.03c0.196,0.505,0.434,0.992,0.669,1.483
		c0.225,0.498,0.513,0.959,0.77,1.441c0.551,0.938,1.148,1.845,1.78,2.713c1.266,1.737,2.632,3.342,4.004,4.907l2.064,2.354
		l1.57-3.123c0.478-0.949,0.921-1.911,1.407-2.849c0.521-0.92,0.984-1.867,1.544-2.757l0.817-1.343
		c0.269-0.449,0.578-0.872,0.864-1.308c0.295-0.431,0.57-0.873,0.889-1.284l0.925-1.25c0.639-0.812,1.259-1.638,1.942-2.4
		c0.333-0.39,0.666-0.778,1.02-1.143c0.35-0.369,0.688-0.75,1.055-1.097c0.715-0.711,1.449-1.401,2.207-2.022
		c0.021-0.019,0.044-0.033,0.064-0.051c0.125,0.111,0.251,0.218,0.376,0.329c0.726,0.691,1.432,1.411,2.112,2.151
		c0.677,0.746,1.318,1.52,1.947,2.299l0.902,1.197c0.31,0.391,0.57,0.817,0.867,1.213c0.292,0.401,0.58,0.803,0.839,1.224
		l0.815,1.23c0.496,0.845,1.061,1.647,1.525,2.501c0.236,0.425,0.515,0.829,0.741,1.258c0.222,0.431,0.464,0.852,0.696,1.277
		c0.492,0.842,0.857,1.735,1.334,2.592l3.53,6.347l3.82-4.873l1.026-1.309c0.335-0.44,0.688-0.861,0.984-1.335l0.914-1.386
		c0.313-0.453,0.574-0.945,0.842-1.43l0.791-1.453l0.686-1.508c0.237-0.494,0.438-1.008,0.619-1.528
		c0.184-0.521,0.389-1.024,0.548-1.551l0.449-1.578c0.144-0.525,0.243-1.067,0.357-1.598c0.121-0.526,0.193-1.07,0.269-1.607
		c0.08-0.534,0.143-1.072,0.171-1.615c0.07-1.079,0.104-2.156,0.03-3.23c-0.075-1.078-0.2-2.13-0.494-3.199l-0.9-0.002
		c-0.355,0.927-0.756,1.858-1.167,2.746c-0.229,0.443-0.415,0.887-0.644,1.319c-0.218,0.435-0.436,0.863-0.682,1.28
		C108.932,102.832,108.722,103.254,108.465,103.659z"/>
	<path fill="#FFFFFF" d="M52.523,50.415c0.098,1.257,0.143,2.715,0.396,4.329c0.105,0.813,0.217,1.669,0.334,2.567
		c0.177,0.892,0.361,1.825,0.554,2.798c0.161,0.987,0.43,1.989,0.721,3.031c0.293,1.041,0.529,2.153,0.953,3.241
		c1.443,4.439,3.706,9.421,7.596,14.156c0.499,0.584,1.003,1.175,1.512,1.771c0.574,0.546,1.155,1.097,1.74,1.654
		c1.133,1.173,2.56,2.077,3.934,3.109c0.715,0.477,1.494,0.883,2.265,1.315l1.173,0.64c0.399,0.204,0.828,0.353,1.245,0.532
		c0.842,0.348,1.7,0.669,2.577,0.994c0.977,0.253,1.973,0.496,2.983,0.721l0.761,0.157l0.382,0.076l0.301,0.035l1.185,0.127
		l1.192,0.127l0.6,0.064c-0.294-0.009,0.481,0.022,0.438,0.017l0.091-0.002l0.184-0.006l0.366-0.012
		c0.981-0.042,1.969-0.084,2.962-0.126c0.991-0.067,1.969-0.297,2.962-0.463c3.924-0.801,7.826-2.328,11.18-4.637
		c6.818-4.528,11.803-11.347,14.815-18.74l0.588-1.383l0.48-1.42c0.313-0.949,0.642-1.894,0.934-2.849
		c0.451-1.942,1.046-3.855,1.303-5.833c0.154-0.987,0.338-1.951,0.462-2.957l0.284-3.081c0.038-0.504,0.102-1.046,0.117-1.518
		l0.015-1.371l0.032-2.916c-0.206-3.944-0.532-7.893-1.512-11.717c-0.363-1.933-1.059-3.789-1.61-5.663
		c-0.342-0.919-0.72-1.826-1.079-2.734l-0.549-1.356l-0.653-1.314c-3.359-7.021-8.518-13.205-14.995-17.192
		c-0.825-0.473-1.626-0.973-2.461-1.406c-0.865-0.38-1.727-0.759-2.584-1.135c-0.421-0.203-0.864-0.351-1.315-0.478l-1.338-0.405
		l-1.329-0.395c-0.464-0.104-0.953-0.175-1.427-0.259l-1.426-0.233c-0.457-0.06-0.982-0.183-1.361-0.169
		c-0.815-0.028-1.626-0.056-2.433-0.083l-0.302-0.01l-0.151-0.005l-0.075-0.003c0.016-0.001-0.394-0.007-0.26,0l-0.666,0.064
		l-1.32,0.133c-0.876,0.087-1.745,0.158-2.583,0.396c-0.84,0.199-1.674,0.397-2.502,0.594c-0.798,0.289-1.589,0.578-2.362,0.884
		c-0.384,0.159-0.78,0.287-1.147,0.47l-1.084,0.577c-0.712,0.393-1.438,0.743-2.11,1.165c-1.289,0.928-2.638,1.717-3.725,2.782
		c-0.564,0.5-1.123,0.996-1.677,1.486c-0.499,0.54-0.993,1.075-1.482,1.604c-3.849,4.281-6.304,8.909-7.968,13.112
		c-0.479,1.028-0.773,2.088-1.123,3.083c-0.347,0.997-0.674,1.958-0.889,2.911c-0.248,0.942-0.485,1.846-0.712,2.71
		c-0.167,0.876-0.326,1.712-0.478,2.505c-0.346,1.576-0.468,3.024-0.632,4.271c-0.07,0.625-0.162,1.206-0.198,1.732
		c-0.03,0.526-0.057,1.004-0.081,1.432c-0.097,1.711-0.149,2.625-0.149,2.625v0.021c0,0,0.006,0.924,0.018,2.657
		C52.406,48.087,52.412,49.158,52.523,50.415z M53.577,40.522c0.02-0.525,0.112-1.082,0.173-1.693
		c0.148-1.217,0.24-2.627,0.619-4.173c0.164-0.775,0.335-1.592,0.516-2.449c0.255-0.837,0.522-1.713,0.801-2.626
		c0.25-0.921,0.64-1.836,1.034-2.785c0.39-0.951,0.773-1.943,1.315-2.901c1.965-3.906,4.851-8.018,8.846-11.433
		c0.499-0.421,1.002-0.847,1.512-1.277c0.548-0.373,1.101-0.749,1.659-1.129l0.834-0.571c0.279-0.19,0.595-0.325,0.89-0.493
		c0.594-0.324,1.194-0.65,1.799-0.979c0.616-0.299,1.272-0.521,1.909-0.79l0.963-0.39c0.325-0.121,0.67-0.186,1.004-0.282
		c0.676-0.171,1.343-0.377,2.019-0.563c0.692-0.103,1.389-0.206,2.091-0.31c0.693-0.149,1.408-0.135,2.122-0.146l1.071-0.022
		L85.245,5.5L85.254,5.5l0.15,0.014l0.301,0.029c0.803,0.077,1.61,0.155,2.423,0.233c0.442,0.016,0.706,0.147,1.058,0.218
		l0.996,0.244c2.688,0.721,5.579,1.919,8.019,3.754c5.02,3.533,8.982,8.919,11.539,14.982l0.497,1.131l0.403,1.177l0.799,2.358
		c0.374,1.628,0.902,3.214,1.118,4.885c0.666,3.227,0.756,6.559,0.777,9.855c0,0-0.001,0.001-0.002,0.001
		c-0.739,0.387-1.584,0.812-2.542,1.215c-0.938,0.452-2.014,0.793-3.132,1.232c-0.574,0.175-1.163,0.355-1.766,0.54
		c-0.603,0.196-1.225,0.37-1.869,0.5c-0.643,0.148-1.296,0.298-1.958,0.45c-0.667,0.122-1.35,0.209-2.037,0.318
		c-1.373,0.261-2.788,0.296-4.209,0.41c-0.712,0.078-1.422,0.04-2.133,0.033c-0.713-0.01-1.423-0.021-2.127-0.03
		c-1.406-0.085-2.785-0.273-4.135-0.399c-1.335-0.204-2.613-0.5-3.841-0.729c-0.306-0.063-0.611-0.114-0.906-0.185
		c-0.29-0.086-0.576-0.17-0.857-0.254c-0.564-0.167-1.11-0.328-1.633-0.483c-1.044-0.323-2.033-0.555-2.844-0.923
		c-0.83-0.331-1.553-0.62-2.148-0.857c-1.197-0.478-1.88-0.751-1.88-0.751s0.643,0.357,1.768,0.982
		c0.565,0.314,1.251,0.695,2.039,1.133c0.773,0.476,1.726,0.832,2.739,1.294c0.51,0.225,1.042,0.458,1.592,0.701
		c0.276,0.121,0.557,0.245,0.842,0.37c0.29,0.11,0.592,0.202,0.895,0.306c1.217,0.393,2.494,0.864,3.846,1.252
		c1.368,0.309,2.782,0.687,4.242,0.964c0.736,0.106,1.479,0.212,2.225,0.319c0.748,0.103,1.499,0.237,2.259,0.254
		c1.515,0.076,3.042,0.226,4.545,0.14c0.752-0.021,1.503-0.024,2.242-0.064c0.737-0.072,1.466-0.143,2.183-0.213
		c0.722-0.055,1.424-0.157,2.107-0.285c0.688-0.118,1.361-0.233,2.016-0.345c1.29-0.318,2.535-0.552,3.646-0.917
		c0.104-0.029,0.194-0.062,0.297-0.091l-0.272,1.784c-0.158,0.795-0.385,1.611-0.569,2.413c-0.322,1.627-0.951,3.156-1.426,4.715
		l-0.944,2.244l-0.472,1.113l-0.563,1.062c-2.903,5.692-7.039,10.442-11.719,13.436c-2.301,1.593-4.809,2.547-7.292,3.196
		c-0.631,0.114-1.247,0.326-1.879,0.401c-0.635,0.064-1.267,0.127-1.894,0.19l-0.236,0.027l-0.118,0.014l-0.059,0.007
		c-0.095,0.001,0.631,0.022,0.287,0.012l-0.603-0.014l-1.199-0.028l-1.191-0.028l-0.289-0.009l-0.199-0.038l-0.397-0.071
		c-0.531-0.078-1.066-0.137-1.61-0.184c-0.597-0.149-1.197-0.323-1.804-0.453c-0.301-0.076-0.613-0.119-0.907-0.22l-0.874-0.327
		c-0.577-0.23-1.181-0.396-1.753-0.64c-0.564-0.275-1.125-0.548-1.679-0.818c-0.277-0.141-0.575-0.246-0.84-0.408l-0.794-0.489
		c-0.537-0.324-1.069-0.644-1.596-0.962c-0.499-0.374-0.993-0.744-1.482-1.11c-3.954-2.96-7.032-6.718-9.219-10.388
		c-0.596-0.898-1.039-1.839-1.484-2.744c-0.45-0.904-0.897-1.778-1.202-2.666c-0.333-0.882-0.654-1.729-0.959-2.538
		c-0.247-0.828-0.448-1.629-0.659-2.387c-0.473-1.508-0.641-2.907-0.857-4.115c-0.094-0.605-0.219-1.164-0.266-1.681
		c-0.037-0.519-0.071-0.991-0.101-1.413c-0.12-1.668-0.185-2.565-0.187-2.591c0.001-0.084,0.021-0.981,0.056-2.611
		C53.555,41.527,53.565,41.049,53.577,40.522z"/>
</g>
</svg>
