<svg version="1.1" id="Calque_1" xmlns="http://www.w3.org/2000/svg" xmlns:xlink="http://www.w3.org/1999/xlink" x="0px" y="0px"
	 viewBox="0 0 255.246 255.246" enable-background="new 0 0 255.246 255.246"
	 xml:space="preserve">
<circle fill="#005AA1" cx="127.623" cy="127.622" r="127.623"/>
<g>
	<g>
		<path fill="#FFFFFF" d="M54.243,191.154c0,0-0.821-0.948-2.098-2.737c-0.635-0.901-1.377-2.018-2.108-3.413
			c-0.369-0.696-0.719-1.476-1.036-2.354c-0.268-0.906-0.578-1.909-0.384-3.256c0.096-0.355,0.161-0.684,0.337-1.071
			c0.101-0.214,0.203-0.43,0.305-0.648c0.205-0.436,0.415-0.88,0.627-1.332c0.429-0.904,1.061-1.873,1.624-2.859
			c0.596-0.962,1.259-1.859,1.922-2.825c0.696-0.924,1.438-1.839,2.182-2.789c0.789-0.903,1.591-1.821,2.403-2.75
			c0.847-0.891,1.723-1.779,2.612-2.669c0.919-0.855,1.846-1.717,2.777-2.583c0.964-0.824,1.92-1.674,2.906-2.486
			c1.981-1.613,3.984-3.218,6.033-4.729c2.054-1.503,4.162-2.903,6.378-3.997c1.116-0.534,2.206-1.061,3.366-1.443
			c0.566-0.211,1.137-0.393,1.694-0.586c0.575-0.169,1.166-0.299,1.733-0.444c1.113-0.322,2.302-0.469,3.432-0.622
			c0.388-0.047,0.772-0.092,1.153-0.138c0.247,0.01,0.491,0.019,0.733,0.027l0.362,0.014c0.159,0.01,0.406,0.034,0.603,0.06
			c0.417,0.054,0.825,0.121,1.219,0.2c2.681,0.729,4.254,2.184,5.459,3.437c1.19,1.282,1.933,2.532,2.487,3.566
			c0.543,1.043,0.871,1.896,1.07,2.488c0.198,0.59,0.273,0.927,0.273,0.926l-0.674,0.432c0,0-0.257-0.185-0.738-0.529
			c-0.485-0.339-1.188-0.833-2.073-1.408c-0.885-0.569-1.986-1.199-3.184-1.743c-1.179-0.529-2.586-0.932-3.58-0.815
			c-0.066,0.037-0.123,0.063-0.177,0.073c-0.038,0.011-0.027-0.004-0.105,0.008l-0.354,0.076c-0.237,0.05-0.477,0.101-0.718,0.152
			c0.134-0.018-0.332,0.045,0.295-0.038l-0.019,0.008l-0.038,0.015l-0.076,0.03l-0.151,0.06l-0.303,0.12
			c-0.405,0.146-0.816,0.296-1.235,0.448c-0.413,0.146-0.851,0.374-1.285,0.549c-0.435,0.188-0.875,0.379-1.322,0.572
			c-0.45,0.216-0.899,0.447-1.364,0.655c-0.924,0.402-1.868,0.895-2.841,1.348c-1.948,0.913-4.006,1.863-6.097,2.885
			c-1.049,0.503-2.069,1.092-3.115,1.647c-1.042,0.564-2.025,1.234-3.048,1.85c-0.997,0.652-1.967,1.344-2.952,2.013
			c-0.954,0.709-1.904,1.416-2.847,2.117c-0.914,0.738-1.821,1.47-2.717,2.193c-0.865,0.757-1.721,1.505-2.562,2.241
			c-0.792,0.776-1.594,1.53-2.349,2.292c-0.705,0.788-1.451,1.554-2.099,2.307c-0.604,0.78-1.239,1.448-1.797,2.275
			c-0.277,0.416-0.551,0.824-0.818,1.226c-0.134,0.2-0.267,0.399-0.398,0.596c-0.026,0.037-0.069,0.17-0.13,0.247
			c-0.17,0.479-0.146,1.265-0.042,1.99c0.139,0.745,0.325,1.475,0.555,2.156c0.456,1.366,0.976,2.551,1.416,3.52
			c0.907,1.934,1.529,2.989,1.529,2.989L54.243,191.154z"/>
		<path fill="#FFFFFF" d="M167.025,167.044l5.369-5.82c0.916-0.955,1.723-1.991,2.563-2.999l2.503-3.034
			c1.701-1.99,3.179-4.178,4.757-6.269c1.584-2.091,2.979-4.315,4.419-6.501c1.455-2.176,2.726-4.468,4.038-6.723
			c1.351-2.233,2.497-4.581,3.686-6.894c0.61-1.148,1.145-2.335,1.675-3.521l1.605-3.542c0.514-1.188,0.972-2.4,1.457-3.597
			c0.47-1.203,0.985-2.385,1.383-3.612l1.268-3.641c0.421-1.212,0.746-2.453,1.124-3.673l0.558-1.831l0.479-1.846
			c0.298-1.233,0.67-2.451,0.909-3.689c0.249-1.235,0.524-2.465,0.754-3.695l0.585-3.681c0.295-2.421,0.547-4.889,0.504-7.102
			l-0.003-0.834v-0.104v-0.052c-0.003-0.097,0.027,0.753,0.013,0.379l-0.003-0.031l-0.029-0.246l-0.059-0.492l-0.117-0.984
			l-0.059-0.492c-0.025-0.136-0.069-0.18-0.101-0.274c-0.137-0.333-0.233-0.64-0.324-0.997l-0.554-1.375
			c-0.833-1.851-2.018-3.711-3.367-5.542c-1.374-1.827-2.985-3.567-4.656-5.268c-0.835-0.851-1.713-1.676-2.607-2.47
			c-0.443-0.406-0.9-0.783-1.352-1.171c-0.436-0.36-0.948-0.778-1.285-1.031l8.628-1.169l-4.198,5.72l-4.256,5.677
			c-2.826,3.792-5.676,7.567-8.563,11.313c-2.864,3.764-5.754,7.509-8.67,11.234c-2.897,3.739-5.823,7.457-8.754,11.171
			l-1.145-8.084l0.438,0.356l0.338,0.294c0.23,0.197,0.448,0.395,0.648,0.591c0.413,0.393,0.825,0.786,1.204,1.208
			c0.385,0.419,0.778,0.818,1.135,1.281l0.542,0.676c0.178,0.231,0.365,0.438,0.531,0.692l0.994,1.497
			c0.336,0.483,0.603,1.099,0.895,1.647l0.42,0.85c0.142,0.278,0.236,0.626,0.352,0.938c0.22,0.642,0.427,1.288,0.62,1.934
			l0.533,1.789l-0.815,1.733l-2.16,4.593c-0.691,1.531-1.517,3.055-2.286,4.583l-1.177,2.289l-1.3,2.271l-1.306,2.267l-1.453,2.223
			c-0.497,0.732-0.941,1.494-1.483,2.2l-1.603,2.132l-0.802,1.063l-0.854,1.01l-1.717,2.007c-1.155,1.316-2.366,2.527-3.547,3.793
			l-3.608,3.566l-3.634,3.456c-1.312,1.154-2.58,2.347-3.93,3.462l-2.048,1.649l-1.028,0.818l-1.08,0.767l-2.161,1.527
			c-0.716,0.517-1.486,0.937-2.227,1.407l-2.243,1.374l-2.288,1.228l-2.289,1.221l-2.31,1.099c-1.541,0.721-3.077,1.484-4.626,2.12
			l-4.638,1.989l-1.463,0.627l-1.243-0.41c-0.592-0.196-1.183-0.402-1.769-0.617c-0.285-0.114-0.601-0.204-0.857-0.344l-0.78-0.413
			c-0.504-0.288-1.065-0.541-1.511-0.872l-1.377-0.97c-0.232-0.16-0.424-0.346-0.637-0.519l-0.622-0.528
			c-0.426-0.346-0.792-0.731-1.177-1.105c-0.389-0.368-0.748-0.769-1.106-1.167c-0.18-0.194-0.359-0.403-0.536-0.622
			c-0.174-0.21-0.348-0.418-0.572-0.717l5.749,0.814L61.443,198.42l0.604-4.457c0.683,0.902,1.532,1.916,2.354,2.841
			c0.83,0.943,1.692,1.866,2.584,2.748c1.782,1.77,3.634,3.463,5.606,4.945c1.978,1.466,4.057,2.738,6.212,3.67l1.629,0.62
			l1.643,0.425c0.275,0.091,0.548,0.125,0.821,0.146l0.821,0.093l0.412,0.05l0.206,0.026l0.026,0.003c0.094,0-0.1,0.005-0.068,0.004
			h0.062l0.124-0.002l0.99-0.011c1.367,0.021,2.529-0.115,3.753-0.201c1.226-0.106,2.513-0.326,3.771-0.482l3.791-0.698
			c1.26-0.27,2.515-0.584,3.775-0.874c1.264-0.28,2.498-0.689,3.75-1.028l1.873-0.539l1.85-0.619
			c1.229-0.425,2.48-0.799,3.697-1.267l3.654-1.407c1.23-0.444,2.411-1.005,3.613-1.521c1.196-0.529,2.401-1.042,3.584-1.604
			l3.518-1.753c1.177-0.579,2.353-1.161,3.488-1.819c2.288-1.281,4.606-2.524,6.804-3.966c2.22-1.403,4.474-2.764,6.604-4.306
			c2.141-1.528,4.313-3.017,6.353-4.68c2.051-1.647,4.194-3.184,6.142-4.958l2.959-2.614c0.983-0.874,1.988-1.725,2.916-2.66
			l5.673-5.49L167.025,167.044z M167.883,167.882l-5.772,5.451c-0.944,0.927-1.966,1.771-2.966,2.638l-3.007,2.59
			c-1.957,1.783-4.071,3.38-6.116,5.061c-2.027,1.704-4.195,3.227-6.321,4.806c-2.086,1.637-4.299,3.095-6.483,4.599
			c-2.155,1.551-4.465,2.861-6.69,4.312c-1.11,0.731-2.265,1.39-3.42,2.046l-3.463,1.983c-1.164,0.644-2.363,1.225-3.54,1.85
			c-1.186,0.607-2.352,1.261-3.572,1.801l-3.632,1.691c-1.212,0.563-2.465,1.035-3.698,1.558l-1.858,0.767l-1.891,0.688
			c-1.269,0.439-2.514,0.947-3.807,1.329c-1.288,0.393-2.571,0.808-3.87,1.181c-1.312,0.333-2.621,0.683-3.943,0.994
			c-1.349,0.253-2.652,0.558-4.046,0.765c-1.4,0.19-2.855,0.415-4.131,0.469l-0.988,0.069l-0.124,0.009l-0.062,0.005l-0.129,0.002
			l-0.036-0.002l-0.287-0.013l-0.575-0.026l-1.153-0.062c-0.387-0.014-0.77-0.044-1.134-0.131c-0.738-0.144-1.485-0.276-2.218-0.446
			l-2.106-0.689c-2.743-1.038-5.25-2.441-7.584-4.015c-2.317-1.596-4.471-3.36-6.491-5.249c-1.016-0.94-1.991-1.916-2.939-2.921
			c-0.964-1.019-1.85-1.996-2.801-3.166l-1.984-2.44l2.588-2.017l44.768-34.902l3-2.339l2.749,3.153l0.289,0.332
			c0.111,0.131,0.23,0.263,0.363,0.395c0.255,0.266,0.505,0.535,0.784,0.779c0.273,0.247,0.533,0.517,0.822,0.728l0.422,0.339
			c0.142,0.106,0.276,0.24,0.422,0.327l0.86,0.567c0.283,0.211,0.574,0.292,0.854,0.453l0.421,0.219
			c0.14,0.08,0.274,0.086,0.409,0.137c0.27,0.08,0.534,0.17,0.796,0.271l-2.706,0.217l4.403-2.035
			c1.487-0.657,2.885-1.406,4.313-2.122l2.131-1.085l2.045-1.168l2.042-1.166l1.94-1.269c0.638-0.433,1.314-0.816,1.922-1.286
			l1.841-1.382l0.921-0.688l0.885-0.75l1.766-1.504c1.166-1.017,2.271-2.121,3.41-3.173l3.444-3.461l3.309-3.511
			c1.025-1.187,2.111-2.349,3.088-3.548l1.437-1.807l0.714-0.903l0.652-0.938l1.308-1.871c0.443-0.616,0.803-1.301,1.21-1.947
			l1.189-1.962l1.088-2.063l1.088-2.063l1.008-2.15c0.666-1.44,1.354-2.851,1.956-4.355l1.864-4.448l-0.282,3.522
			c-0.103-0.209-0.192-0.418-0.269-0.631c-0.049-0.108-0.05-0.211-0.129-0.328l-0.212-0.352c-0.156-0.235-0.225-0.473-0.431-0.718
			l-0.542-0.74c-0.082-0.126-0.213-0.245-0.315-0.368l-0.324-0.369c-0.201-0.252-0.463-0.48-0.698-0.719
			c-0.233-0.245-0.49-0.461-0.742-0.682c-0.127-0.117-0.25-0.217-0.369-0.308l-0.179-0.144c-0.064-0.052-0.061-0.041-0.093-0.067
			l-4.383-3.579l3.238-4.505c2.762-3.841,5.528-7.679,8.324-11.495c2.776-3.83,5.579-7.641,8.407-11.432
			c2.805-3.809,5.648-7.589,8.514-11.352l4.283-5.656l4.341-5.613l3.853-4.983l4.775,3.814c0.702,0.561,1.197,0.994,1.768,1.489
			c0.538,0.485,1.084,0.965,1.603,1.463c1.054,0.986,2.074,1.997,3.063,3.054c1.987,2.101,3.834,4.366,5.537,6.829
			c1.689,2.481,3.181,5.208,4.317,8.255l0.756,2.36c0.221,0.925,0.392,1.912,0.547,2.864c0.033,0.229,0.083,0.504,0.1,0.694
			l0.018,0.495l0.037,0.99l0.019,0.495l0.009,0.247l0.017,0.472l-0.005,0.071l-0.01,0.143l-0.084,1.144
			c-0.191,3.069-0.806,5.825-1.412,8.6c-0.343,1.364-0.733,2.707-1.108,4.053c-0.412,1.329-0.867,2.637-1.3,3.951
			c-0.423,1.318-0.97,2.58-1.448,3.867l-0.747,1.917l-0.828,1.877c-0.569,1.243-1.09,2.505-1.7,3.722l-1.832,3.644
			c-0.587,1.225-1.285,2.389-1.938,3.573c-0.669,1.177-1.305,2.368-1.996,3.527l-2.131,3.438c-0.705,1.146-1.411,2.29-2.189,3.388
			c-1.545,2.201-2.951,4.48-4.592,6.601c-1.596,2.149-3.144,4.323-4.867,6.365c-1.668,2.081-3.282,4.195-5.066,6.173
			c-1.75,2.005-3.405,4.075-5.262,5.989c-1.818,1.937-3.565,3.952-5.436,5.813l-5.572,5.626L167.883,167.882z"/>
		<path fill="#FFFFFF" d="M190.667,54.94c0,0-1.063-0.609-3.005-1.494c-0.973-0.428-2.162-0.934-3.526-1.373
			c-0.682-0.222-1.407-0.397-2.144-0.525c-0.715-0.094-1.487-0.1-1.911,0.069c-0.06,0.059-0.182,0.1-0.196,0.117
			c-0.195,0.133-0.393,0.268-0.592,0.404c-0.399,0.272-0.806,0.549-1.219,0.831c-0.823,0.567-1.472,1.201-2.24,1.808
			c-0.739,0.651-1.497,1.403-2.273,2.11c-0.752,0.759-1.496,1.564-2.262,2.359c-0.725,0.845-1.463,1.703-2.209,2.572
			c-0.714,0.898-1.436,1.807-2.164,2.723c-0.691,0.944-1.389,1.896-2.088,2.851c-0.659,0.987-1.341,1.958-1.982,2.955
			c-0.604,1.024-1.265,2.007-1.815,3.052c-0.542,1.048-1.117,2.07-1.605,3.12c-0.958,2.07-1.901,4.107-2.814,6.079
			c-0.448,0.965-0.938,1.899-1.343,2.809c-0.207,0.458-0.441,0.899-0.659,1.343c-0.196,0.438-0.39,0.87-0.58,1.296
			c-0.178,0.425-0.409,0.856-0.56,1.259c-0.156,0.408-0.31,0.809-0.461,1.204l-0.124,0.296l-0.063,0.147l-0.031,0.073l-0.015,0.037
			c0.019-0.153-0.054,0.369,0.039-0.339l-0.005,0.023c-0.055,0.241-0.109,0.48-0.163,0.716l-0.081,0.354
			c-0.014,0.071,0,0.045-0.012,0.073c-0.015,0.031-0.047,0.065-0.092,0.112c-0.168,0.889,0.169,2.285,0.652,3.462
			c0.499,1.199,1.09,2.322,1.63,3.228c0.547,0.906,1.018,1.632,1.341,2.136c0.329,0.5,0.504,0.767,0.504,0.767l-0.484,0.759
			c0,0-0.346-0.064-0.951-0.244c-0.607-0.182-1.483-0.486-2.556-1.008c-1.063-0.534-2.353-1.254-3.681-2.444
			c-1.298-1.206-2.819-2.791-3.601-5.576c-0.087-0.414-0.16-0.845-0.218-1.284c-0.028-0.207-0.053-0.469-0.064-0.636l-0.019-0.362
			c-0.013-0.243-0.025-0.487-0.038-0.734c0.044-0.399,0.088-0.801,0.133-1.207c0.146-1.149,0.282-2.36,0.6-3.489
			c0.143-0.576,0.27-1.176,0.437-1.759c0.19-0.563,0.369-1.142,0.581-1.715c0.382-1.174,0.91-2.273,1.449-3.398
			c1.105-2.233,2.533-4.343,4.066-6.396c1.541-2.046,3.172-4.045,4.806-6.025c0.822-0.986,1.683-1.94,2.517-2.903
			c0.875-0.929,1.747-1.854,2.611-2.772c0.899-0.888,1.797-1.762,2.698-2.605c0.94-0.809,1.869-1.607,2.782-2.393
			c0.961-0.741,1.887-1.479,2.82-2.171c0.978-0.661,1.883-1.318,2.857-1.911c0.999-0.56,1.987-1.192,2.896-1.613
			c0.455-0.208,0.901-0.414,1.34-0.615c0.22-0.101,0.437-0.2,0.651-0.299c0.409-0.186,0.749-0.251,1.123-0.35
			c1.4-0.196,2.417,0.131,3.335,0.41c0.886,0.328,1.669,0.688,2.365,1.066c1.397,0.749,2.511,1.504,3.407,2.151
			c1.779,1.3,2.721,2.134,2.721,2.134L190.667,54.94z"/>
	</g>
	<g>
		<path fill="#FFFFFF" d="M129.293,43.605c0,0-0.51,0.078-1.464,0.223c-0.953,0.146-2.367,0.334-4.101,0.718
			c-1.742,0.33-3.853,0.852-6.244,1.491c-2.384,0.679-5.048,1.52-7.878,2.632c-1.416,0.552-2.883,1.137-4.365,1.835
			c-1.502,0.643-3.004,1.42-4.551,2.203c-0.781,0.373-1.537,0.827-2.316,1.254c-0.774,0.438-1.573,0.847-2.35,1.319
			c-1.547,0.956-3.151,1.882-4.697,2.964c-3.152,2.063-6.22,4.463-9.25,6.978c-3.033,2.518-5.884,5.333-8.649,8.206l-2.004,2.257
			l-1.015,1.151L69.5,77.985c-0.603,0.771-1.218,1.512-1.805,2.295c-0.577,0.798-1.152,1.593-1.725,2.385
			c-2.223,3.213-4.309,6.421-6.174,9.609c-0.993,1.559-1.847,3.159-2.767,4.682c-0.446,0.769-0.854,1.547-1.277,2.307
			c-0.417,0.762-0.867,1.499-1.233,2.262c-0.761,1.514-1.565,2.965-2.213,4.427c-0.343,0.723-0.711,1.425-1.021,2.133
			c-0.313,0.709-0.62,1.405-0.92,2.086c-1.2,2.734-2.196,5.299-3.048,7.604c-0.807,2.313-1.549,4.352-2.053,6.064
			c-0.245,0.856-0.547,1.616-0.717,2.291c-0.187,0.673-0.348,1.247-0.495,1.714c-0.291,0.937-0.445,1.436-0.445,1.436l-0.798-0.057
			c0,0-0.056-0.524-0.16-1.508c-0.094-0.985-0.239-2.44-0.224-4.29c-0.041-1.857,0.054-4.113,0.321-6.695
			c0.291-2.577,0.743-5.486,1.526-8.597c0.375-1.561,0.822-3.174,1.364-4.818c0.516-1.657,1.145-3.333,1.829-5.045
			c0.678-1.714,1.477-3.434,2.321-5.176c0.898-1.713,1.81-3.473,2.896-5.165c2.098-3.432,4.643-6.73,7.399-9.9
			c0.699-0.784,1.4-1.57,2.103-2.359c0.719-0.783,1.484-1.552,2.226-2.327c1.525-1.625,2.912-2.877,4.492-4.438
			c3.133-2.859,6.341-5.628,9.713-8.075c3.354-2.464,6.792-4.696,10.26-6.595c3.439-1.946,6.89-3.589,10.23-4.956
			c1.681-0.663,3.306-1.318,4.921-1.839c1.594-0.576,3.165-1.038,4.674-1.47c3.015-0.871,5.825-1.478,8.321-1.942
			c2.504-0.434,4.689-0.75,6.517-0.883c1.821-0.197,3.229-0.229,4.195-0.271c0.965-0.041,1.479-0.063,1.479-0.063L129.293,43.605z"
			/>
		<path fill="#FFFFFF" d="M129.969,60.993c0,0-1.549,0.436-4.258,1.2c-1.378,0.333-2.947,0.964-4.762,1.609
			c-0.901,0.345-1.876,0.636-2.867,1.079c-0.987,0.447-2.025,0.917-3.109,1.408c-2.198,0.895-4.397,2.26-6.783,3.529
			c-0.603,0.306-1.174,0.691-1.757,1.071c-0.584,0.375-1.175,0.754-1.773,1.138c-1.184,0.784-2.444,1.495-3.594,2.425
			c-1.174,0.884-2.368,1.783-3.577,2.693c-1.191,0.927-2.313,1.976-3.49,2.965c-0.583,0.501-1.167,1.005-1.753,1.51
			c-0.578,0.514-1.104,1.09-1.661,1.633c-1.098,1.099-2.199,2.202-3.301,3.305c-1.016,1.2-2.032,2.4-3.044,3.596
			c-0.5,0.617-1.054,1.225-1.505,1.845c-0.435,0.62-0.868,1.239-1.299,1.854c-0.852,1.243-1.736,2.408-2.543,3.652
			c-0.774,1.275-1.592,2.494-2.381,3.702c-0.876,1.154-1.493,2.437-2.266,3.593c-0.37,0.589-0.736,1.171-1.097,1.747
			c-0.369,0.572-0.753,1.127-1.052,1.718c-0.632,1.163-1.29,2.276-1.91,3.366c-0.681,1.064-1.184,2.162-1.719,3.199
			c-0.524,1.042-1.053,2.035-1.557,2.985c-0.512,0.947-0.856,1.897-1.293,2.76c-0.804,1.744-1.595,3.264-2.081,4.567
			c-1.072,2.584-1.813,4.086-1.813,4.086l-0.689-0.121c0,0-0.06-1.637,0.061-4.544c0.048-0.723,0.035-1.544,0.181-2.399
			c0.133-0.864,0.277-1.799,0.432-2.797c0.165-0.999,0.313-2.081,0.59-3.182c0.294-1.095,0.605-2.251,0.956-3.453
			c0.607-2.447,1.721-4.917,2.805-7.586c0.53-1.343,1.3-2.603,1.993-3.945c0.713-1.331,1.441-2.697,2.35-3.974
			c0.909-1.278,1.818-2.587,2.792-3.87c0.972-1.291,2.156-2.493,3.243-3.747c0.555-0.619,1.112-1.241,1.67-1.864
			c0.561-0.607,1.144-1.125,1.717-1.693l1.718-1.684l1.784-1.771c1.251-1.082,2.503-2.164,3.75-3.242
			c0.629-0.53,1.228-1.091,1.878-1.589c0.657-0.488,1.313-0.975,1.965-1.459c1.319-0.949,2.564-1.97,3.909-2.821
			c1.35-0.838,2.683-1.666,3.995-2.48c1.281-0.855,2.67-1.488,3.973-2.19c1.326-0.662,2.567-1.408,3.879-1.934
			c2.615-1.063,5.007-2.214,7.369-2.904c1.16-0.385,2.272-0.754,3.329-1.105c1.058-0.346,2.114-0.548,3.074-0.804
			c1.936-0.476,3.606-0.933,5.002-1.085c2.782-0.429,4.372-0.674,4.372-0.674L129.969,60.993z"/>
	</g>
</g>
</svg>
