<svg version="1.1" id="Calque_1" xmlns="http://www.w3.org/2000/svg" xmlns:xlink="http://www.w3.org/1999/xlink" x="0px" y="0px"
	 viewBox="0 0 168.859 166.167" enable-background="new 0 0 168.859 166.167"
	 xml:space="preserve">
<g>
	<path fill="#FFFFFF" d="M3.396,135.804c-0.23-0.682-0.416-1.411-0.555-2.155c-0.104-0.727-0.128-1.513,0.042-1.991
		c0.061-0.077,0.104-0.21,0.13-0.247c0.132-0.196,0.264-0.396,0.398-0.596c0.268-0.401,0.541-0.81,0.818-1.226
		c0.559-0.827,1.193-1.495,1.797-2.275c0.647-0.753,1.394-1.519,2.099-2.307c0.754-0.762,1.556-1.516,2.349-2.292
		c0.841-0.736,1.696-1.484,2.562-2.241c0.896-0.724,1.802-1.456,2.716-2.193c0.943-0.701,1.893-1.408,2.847-2.118
		c0.985-0.668,1.956-1.359,2.952-2.012c1.022-0.615,2.006-1.285,3.048-1.85c1.046-0.557,2.066-1.145,3.115-1.647
		c2.091-1.021,4.148-1.972,6.097-2.885c0.974-0.453,1.917-0.945,2.842-1.349c0.464-0.207,0.913-0.438,1.363-0.655
		c0.446-0.193,0.887-0.384,1.322-0.572c0.434-0.175,0.872-0.401,1.285-0.548c0.418-0.152,0.83-0.302,1.234-0.448l0.303-0.12
		l0.151-0.06l0.075-0.03l0.038-0.015c-0.135,0.017,0.33-0.048-0.299,0.035l0.023-0.005c0.241-0.052,0.48-0.103,0.717-0.153
		l0.354-0.075c0.077-0.012,0.066,0.003,0.104-0.008c0.053-0.01,0.11-0.036,0.176-0.073c0.994-0.115,2.401,0.287,3.58,0.815
		c1.198,0.545,2.299,1.175,3.184,1.744c0.885,0.575,1.588,1.069,2.073,1.408c0.481,0.345,0.738,0.529,0.738,0.529l0.674-0.432
		c0,0.001-0.075-0.336-0.273-0.926c-0.199-0.592-0.527-1.445-1.07-2.488c-0.554-1.034-1.297-2.285-2.487-3.566
		c-1.205-1.253-2.778-2.708-5.458-3.437c-0.394-0.08-0.802-0.147-1.219-0.201c-0.197-0.025-0.443-0.05-0.604-0.06l-0.361-0.014
		c-0.242-0.009-0.487-0.018-0.733-0.027c-0.381,0.046-0.765,0.091-1.153,0.137c-1.13,0.154-2.318,0.301-3.432,0.623
		c-0.568,0.146-1.158,0.275-1.733,0.444c-0.557,0.192-1.127,0.374-1.694,0.586c-1.159,0.383-2.25,0.909-3.366,1.443
		c-2.216,1.094-4.324,2.494-6.378,3.997c-2.049,1.511-4.052,3.115-6.033,4.729c-0.987,0.813-1.942,1.662-2.906,2.486
		c-0.931,0.865-1.857,1.728-2.777,2.583c-0.889,0.89-1.765,1.778-2.612,2.669c-0.812,0.929-1.614,1.847-2.403,2.749
		c-0.744,0.95-1.486,1.866-2.182,2.79c-0.664,0.966-1.326,1.863-1.922,2.824c-0.562,0.986-1.194,1.956-1.624,2.86
		c-0.213,0.452-0.422,0.896-0.627,1.332c-0.103,0.219-0.205,0.435-0.305,0.648c-0.177,0.388-0.241,0.715-0.337,1.071
		c-0.194,1.347,0.116,2.35,0.383,3.256c0.317,0.878,0.667,1.658,1.037,2.354c0.731,1.396,1.473,2.513,2.108,3.413
		c1.277,1.789,2.098,2.737,2.098,2.737l0.655-0.459c0,0-0.622-1.056-1.529-2.989C4.373,138.355,3.853,137.17,3.396,135.804z"/>
	<path fill="#FFFFFF" d="M168.844,35.537l-0.009-0.247l-0.019-0.495l-0.037-0.99l-0.018-0.495c-0.017-0.19-0.066-0.465-0.1-0.694
		c-0.155-0.953-0.326-1.939-0.547-2.864l-0.756-2.36c-1.136-3.048-2.628-5.773-4.317-8.255c-1.703-2.463-3.55-4.729-5.537-6.829
		c-0.988-1.058-2.009-2.069-3.063-3.054c-0.519-0.498-1.064-0.978-1.604-1.463c-0.57-0.495-1.064-0.928-1.767-1.489l-4.775-3.813
		l-3.853,4.982l-4.341,5.613l-4.283,5.656c-2.865,3.763-5.709,7.542-8.513,11.352c-2.828,3.791-5.631,7.602-8.408,11.432
		c-2.795,3.816-5.562,7.653-8.323,11.495l-3.238,4.504l4.384,3.58c0.031,0.026,0.027,0.015,0.092,0.067l0.179,0.144
		c0.119,0.09,0.242,0.19,0.369,0.308c0.251,0.221,0.509,0.436,0.741,0.682c0.236,0.239,0.498,0.466,0.698,0.719l0.325,0.368
		c0.103,0.123,0.233,0.242,0.315,0.367l0.542,0.74c0.194,0.232,0.27,0.458,0.409,0.682l-0.952,2.273
		c-0.602,1.505-1.289,2.915-1.956,4.355l-1.008,2.15l-1.087,2.063l-1.089,2.063l-1.189,1.962c-0.406,0.646-0.766,1.331-1.21,1.947
		l-1.308,1.871l-0.651,0.938l-0.715,0.903l-1.437,1.807c-0.977,1.199-2.063,2.361-3.088,3.548l-3.309,3.511l-3.443,3.461
		c-1.141,1.052-2.245,2.156-3.411,3.173l-1.766,1.504l-0.885,0.75l-0.921,0.688l-1.841,1.382c-0.607,0.47-1.283,0.854-1.921,1.287
		l-1.94,1.268l-2.042,1.167l-2.045,1.167l-2.13,1.085c-1.429,0.716-2.826,1.465-4.313,2.122l-2.974,1.375l-0.35-0.183
		c-0.281-0.161-0.572-0.242-0.854-0.453l-0.86-0.566c-0.146-0.088-0.281-0.221-0.422-0.328l-0.422-0.338
		c-0.29-0.212-0.549-0.481-0.822-0.729c-0.279-0.243-0.529-0.513-0.784-0.778c-0.133-0.133-0.251-0.265-0.362-0.396l-0.289-0.331
		l-2.749-3.155l-3,2.34L9.078,144.983L6.49,147l1.983,2.44c0.951,1.17,1.837,2.147,2.801,3.166c0.949,1.005,1.924,1.98,2.939,2.921
		c2.02,1.89,4.173,3.653,6.491,5.249c2.335,1.573,4.841,2.977,7.584,4.015l2.107,0.689c0.732,0.17,1.48,0.303,2.217,0.446
		c0.364,0.087,0.747,0.117,1.134,0.131l1.152,0.062l0.575,0.026l0.287,0.013l0.036,0.001l0.129-0.001l0.062-0.005l0.123-0.009
		l0.988-0.069c1.275-0.054,2.731-0.278,4.131-0.469c1.394-0.207,2.697-0.512,4.046-0.765c1.322-0.312,2.632-0.66,3.943-0.994
		c1.299-0.372,2.582-0.788,3.87-1.18c1.292-0.383,2.538-0.891,3.806-1.329l1.891-0.688l1.858-0.766
		c1.233-0.522,2.486-0.994,3.698-1.558l3.631-1.692c1.221-0.539,2.386-1.192,3.572-1.8c1.177-0.626,2.375-1.206,3.54-1.85
		L78.549,151c1.156-0.655,2.31-1.313,3.42-2.045c2.226-1.451,4.536-2.761,6.691-4.312c2.185-1.504,4.397-2.962,6.483-4.599
		c2.126-1.579,4.294-3.102,6.321-4.807c2.045-1.68,4.159-3.276,6.116-5.06l3.007-2.59c1-0.867,2.021-1.711,2.966-2.638l5.772-5.451
		l0.01-0.01l5.572-5.626c1.87-1.861,3.617-3.877,5.436-5.813c1.856-1.914,3.513-3.984,5.262-5.989
		c1.784-1.978,3.398-4.092,5.066-6.173c1.724-2.042,3.271-4.216,4.866-6.365c1.642-2.12,3.048-4.399,4.593-6.6
		c0.778-1.098,1.484-2.241,2.188-3.388l2.132-3.438c0.691-1.159,1.327-2.35,1.996-3.526c0.653-1.185,1.352-2.35,1.938-3.574
		l1.832-3.643c0.61-1.218,1.131-2.48,1.7-3.723l0.828-1.878l0.747-1.917c0.479-1.288,1.025-2.549,1.448-3.868
		c0.433-1.314,0.888-2.621,1.3-3.95c0.375-1.346,0.766-2.689,1.108-4.053c0.606-2.775,1.221-5.531,1.412-8.6l0.084-1.144l0.01-0.143
		l0.005-0.072L168.844,35.537z M157.601,44.097l-0.585,3.681c-0.229,1.23-0.505,2.46-0.755,3.695
		c-0.238,1.237-0.61,2.456-0.909,3.689l-0.479,1.846l-0.558,1.831c-0.378,1.22-0.703,2.461-1.124,3.672l-1.268,3.642
		c-0.397,1.227-0.913,2.409-1.383,3.612c-0.485,1.196-0.943,2.408-1.457,3.596l-1.605,3.542c-0.53,1.186-1.064,2.373-1.675,3.521
		c-1.188,2.313-2.335,4.66-3.686,6.894c-1.313,2.255-2.583,4.547-4.038,6.723c-1.439,2.186-2.835,4.41-4.419,6.501
		c-1.578,2.091-3.056,4.278-4.757,6.269l-2.503,3.034c-0.841,1.008-1.647,2.044-2.563,2.999l-5.366,5.817l-5.666,5.483
		c-0.928,0.935-1.933,1.786-2.916,2.66l-2.959,2.614c-1.947,1.774-4.091,3.311-6.142,4.958c-2.041,1.663-4.212,3.151-6.353,4.679
		c-2.132,1.543-4.385,2.902-6.604,4.307c-2.198,1.44-4.516,2.684-6.805,3.966c-1.135,0.657-2.311,1.239-3.488,1.818l-3.518,1.753
		c-1.182,0.562-2.388,1.075-3.583,1.604c-1.202,0.515-2.383,1.075-3.613,1.521l-3.654,1.407c-1.217,0.468-2.467,0.842-3.697,1.267
		l-1.851,0.619l-1.873,0.538c-1.252,0.339-2.486,0.749-3.75,1.028c-1.261,0.29-2.515,0.604-3.775,0.874l-3.79,0.698
		c-1.258,0.156-2.545,0.376-3.771,0.482c-1.224,0.087-2.386,0.223-3.753,0.201l-0.99,0.011l-0.124,0.002h-0.062
		c-0.032,0.001,0.162-0.004,0.068-0.004l-0.026-0.003l-0.206-0.026l-0.412-0.05l-0.821-0.093c-0.273-0.021-0.546-0.055-0.821-0.146
		l-1.643-0.425l-1.629-0.62c-2.156-0.932-4.235-2.204-6.212-3.67c-1.973-1.482-3.825-3.176-5.606-4.944
		c-0.892-0.883-1.754-1.806-2.584-2.749c-0.095-0.107-0.191-0.219-0.287-0.328l40.205-29.264c0.211,0.206,0.427,0.408,0.662,0.599
		l0.622,0.528c0.213,0.173,0.404,0.358,0.637,0.52l1.377,0.97c0.446,0.33,1.007,0.583,1.511,0.871l0.78,0.413
		c0.256,0.14,0.572,0.229,0.857,0.344c0.585,0.215,1.176,0.421,1.769,0.617l1.243,0.41l1.463-0.627l4.638-1.989
		c1.549-0.636,3.085-1.399,4.626-2.12l2.309-1.099l2.289-1.221l2.288-1.228l2.244-1.374c0.741-0.471,1.512-0.891,2.228-1.407
		l2.161-1.527l1.08-0.767l1.028-0.818l2.048-1.649c1.35-1.115,2.618-2.308,3.93-3.462l3.633-3.456l3.608-3.566
		c1.181-1.266,2.392-2.477,3.547-3.793l1.717-2.007l0.854-1.009l0.803-1.063l1.602-2.132c0.542-0.706,0.987-1.468,1.484-2.2
		l1.452-2.222l1.306-2.267l1.3-2.271l1.177-2.289c0.77-1.529,1.595-3.052,2.286-4.583l2.16-4.593l0.815-1.734l-0.533-1.789
		c-0.193-0.646-0.4-1.292-0.62-1.934c-0.115-0.312-0.21-0.66-0.352-0.938l-0.42-0.85c-0.292-0.549-0.559-1.164-0.894-1.647
		l-0.995-1.497c-0.165-0.253-0.354-0.46-0.53-0.692l-0.142-0.176c1.916-2.436,3.837-4.868,5.734-7.317
		c2.915-3.725,5.806-7.47,8.669-11.234c2.889-3.746,5.737-7.521,8.564-11.313l4.255-5.677l0.289-0.394
		c0.175,0.172,0.354,0.34,0.525,0.515c1.672,1.701,3.282,3.441,4.657,5.269c1.349,1.831,2.533,3.69,3.366,5.542l0.554,1.375
		c0.091,0.356,0.188,0.663,0.324,0.996c0.031,0.094,0.074,0.138,0.101,0.274l0.059,0.492l0.117,0.984l0.059,0.492l0.02,0.173
		l0.003,0.715C158.147,39.208,157.896,41.675,157.601,44.097z"/>
	<path fill="#FFFFFF" d="M96.487,42.779c0.012,0.167,0.036,0.429,0.064,0.636c0.058,0.439,0.131,0.87,0.218,1.284
		c0.781,2.785,2.303,4.37,3.601,5.576c1.328,1.189,2.617,1.91,3.681,2.444c1.072,0.522,1.948,0.826,2.556,1.008
		c0.605,0.18,0.951,0.244,0.951,0.244l0.484-0.759c0,0-0.175-0.267-0.504-0.767c-0.323-0.503-0.795-1.23-1.341-2.136
		c-0.54-0.906-1.131-2.029-1.63-3.227c-0.483-1.178-0.82-2.574-0.652-3.463c0.045-0.046,0.077-0.081,0.092-0.112
		c0.012-0.028-0.002-0.001,0.012-0.073l0.08-0.354c0.055-0.236,0.109-0.476,0.164-0.716l0.005-0.023
		c-0.093,0.708-0.021,0.186-0.04,0.339l0.016-0.037l0.031-0.074l0.063-0.147l0.124-0.296c0.151-0.395,0.305-0.796,0.461-1.204
		c0.15-0.402,0.382-0.833,0.56-1.259c0.19-0.426,0.384-0.859,0.58-1.296c0.218-0.444,0.452-0.885,0.659-1.343
		c0.404-0.91,0.895-1.844,1.343-2.809c0.913-1.972,1.856-4.009,2.815-6.079c0.487-1.05,1.063-2.072,1.604-3.12
		c0.551-1.045,1.212-2.028,1.815-3.052c0.642-0.998,1.323-1.969,1.982-2.956c0.7-0.955,1.396-1.907,2.089-2.851
		c0.728-0.917,1.449-1.825,2.163-2.724c0.747-0.869,1.484-1.727,2.21-2.572c0.766-0.795,1.509-1.601,2.261-2.359
		c0.776-0.707,1.534-1.459,2.274-2.11c0.768-0.607,1.416-1.241,2.239-1.808c0.413-0.282,0.819-0.559,1.219-0.831
		c0.199-0.136,0.396-0.271,0.593-0.404c0.014-0.017,0.135-0.058,0.195-0.117c0.424-0.169,1.197-0.163,1.911-0.069
		c0.736,0.128,1.462,0.304,2.144,0.525c1.364,0.438,2.554,0.945,3.526,1.373c1.942,0.885,3.005,1.494,3.005,1.494l0.516-0.737
		c0,0-0.941-0.834-2.721-2.134c-0.896-0.647-2.01-1.403-3.407-2.151c-0.696-0.378-1.479-0.738-2.365-1.066
		c-0.918-0.278-1.935-0.605-3.335-0.41c-0.374,0.099-0.714,0.164-1.123,0.35c-0.215,0.099-0.432,0.199-0.651,0.299
		c-0.438,0.202-0.885,0.407-1.34,0.615c-0.908,0.421-1.896,1.054-2.896,1.613c-0.975,0.593-1.88,1.25-2.857,1.911
		c-0.934,0.692-1.859,1.431-2.82,2.171c-0.913,0.786-1.842,1.584-2.782,2.393c-0.901,0.843-1.799,1.718-2.698,2.605
		c-0.864,0.918-1.736,1.843-2.611,2.772c-0.834,0.963-1.694,1.917-2.517,2.903c-1.633,1.98-3.265,3.979-4.806,6.025
		c-1.532,2.052-2.961,4.163-4.065,6.396c-0.54,1.125-1.068,2.225-1.45,3.398c-0.211,0.573-0.39,1.151-0.581,1.715
		c-0.167,0.583-0.294,1.183-0.437,1.759c-0.317,1.128-0.454,2.339-0.6,3.489c-0.045,0.406-0.089,0.808-0.133,1.207
		c0.013,0.247,0.025,0.492,0.038,0.734L96.487,42.779z"/>
</g>
</svg>
