<svg version="1.1" id="Calque_1" xmlns="http://www.w3.org/2000/svg" xmlns:xlink="http://www.w3.org/1999/xlink"
	viewBox="0.5 176.5 767.999 768" enable-background="new 0.5 176.5 767.999 768" xml:space="preserve">
<g>
	<circle fill="#005AA1" cx="384.5" cy="560.5" r="384"/>
	<g>
		<path fill="#FFFFFF" d="M582.94,763.939c-0.275-0.364-0.543-0.799-0.813-1.248c-0.563-0.856-1.083-1.742-1.559-2.678
			c-0.531-0.909-0.997-1.834-1.382-2.774c-0.396-0.935-0.919-1.864-1.166-2.793l-0.963-2.771c-0.181-0.894-0.386-1.783-0.609-2.673
			c-0.319-0.915-0.218-1.702-0.325-2.538l-0.134-1.246l-0.042-0.313l-0.025-0.158v-0.04c0-0.072-0.033,0.515-0.021,0.235
			l0.006-0.131l0.033-1.026c0.151-5.769,0.502-10.216,0.827-16.114c0.354-5.607,0.478-11.529,0.332-17.577
			c-0.08-3.025-0.422-6.203-0.646-9.287c-0.521-3.217-0.967-6.412-1.733-9.652l-1.481-4.929l-0.782-2.443l-0.055-0.154l-0.238-0.623
			l-0.109-0.231l-0.217-0.461l-0.445-0.924l-3.529-7.401l-8.032-15.176l-8.099-14.355c-5.436-9.512-10.984-18.944-16.604-28.313
			c-5.602-9.389-11.414-18.646-17.162-27.937l-2.16-3.482l-0.548-0.869l-0.266-0.432l-0.268-0.442l-0.068-0.103l-0.239-0.313
			c-0.604-0.815-1.114-1.365-1.69-2.002c-2.283-2.389-4.925-4.45-8.08-5.776c-3.129-1.344-6.72-1.848-10.033-1.313l-2.433,0.556
			c-0.775,0.248-1.512,0.576-2.259,0.869c-0.765,0.265-1.411,0.693-2.091,1.076l-1.011,0.588l-0.731,0.442l-0.39,0.324l-1.563,1.293
			c-0.524,0.415-1.182,1.214-1.734,1.815c-0.605,0.644-1.107,1.305-1.472,1.998c-0.392,0.689-0.874,1.332-1.16,2.057
			c-1.362,2.854-1.811,5.898-1.975,8.8c0,0.03,0,0.055,0,0.084c-0.789-1.691-1.57-3.367-2.351-5.069l-1.101-2.439l-0.547-1.219
			l-0.262-0.616l-0.031-0.078l-0.177-0.299l-0.02-0.039l-0.11-0.206l-0.32-0.55c-1.376-2.27-2.833-4.131-4.737-5.9
			c-1.889-1.728-4.162-3.27-6.756-4.247c-2.598-0.983-5.454-1.35-8.11-1.127c-5.402,0.47-9.487,2.959-12.367,5.515l-0.933,0.848
			l-1.263,1.307c-0.833,0.877-1.584,1.764-2.092,2.59c-1.14,1.67-1.986,3.413-2.625,5.111c-0.278,0.759-0.496,1.499-0.678,2.231
			l-0.214-0.487l-0.886-0.907c-1.505-1.534-2.481-2.348-3.805-3.355c-1.276-0.912-2.586-1.811-4.006-2.563
			c-1.409-0.762-2.914-1.432-4.49-1.956c-1.578-0.547-3.245-0.891-4.946-1.162c-1.713-0.166-3.444-0.207-5.173-0.019
			c-1.732,0.115-3.387,0.608-5.01,1.09c-1.551,0.615-3.146,1.23-4.489,2.113l-1.029,0.646l-0.516,0.327l-0.253,0.163l-0.123,0.081
			l-0.534,0.369l-0.04,0.036l-1.361,1.208l-0.671,0.619l-0.94,0.971c-0.663,0.701-1.303,1.425-1.92,2.151
			c-1.024,1.465-1.935,2.811-2.64,4.329c-0.703,1.506-1.322,3.014-1.688,4.573c-0.455,1.529-0.656,3.094-0.807,4.609
			c-0.033,0.337-0.025,0.668-0.046,0.999c-2.749-5.452-5.524-10.893-8.363-16.29c-2.892-5.451-5.759-10.932-8.758-16.32
			c-2.938-5.429-5.935-10.816-8.998-16.163c-6.065-10.731-12.287-21.358-18.671-31.874l-1.55-2.542l-2.62-1.596
			c-1.473-0.898-2.156-1.242-3.166-1.759c-0.926-0.469-1.849-0.893-2.783-1.283c-1.85-0.8-3.753-1.447-5.7-2.032
			c-1.96-0.538-3.98-0.955-6.053-1.244c-2.091-0.252-4.202-0.454-6.392-0.377c-2.155-0.024-4.39,0.282-6.58,0.629
			c-2.209,0.454-4.406,0.992-6.528,1.846c-2.17,0.704-4.131,1.864-6.131,2.923l-2.755,1.897l-1.356,0.976l-0.084,0.061l-0.868,0.735
			l-0.104,0.095l-0.207,0.197l-0.411,0.393l-1.656,1.538c-0.769,0.784-1.916,2.138-2.789,3.243l-1.355,1.782
			c-0.357,0.558-0.65,1.082-0.97,1.63c-0.611,1.094-1.259,2.182-1.772,3.311c-0.95,2.277-1.844,4.601-2.326,6.906
			c-0.644,2.328-0.794,4.581-0.991,6.822c-0.117,2.221-0.091,4.383,0.079,6.468c0.184,2.077,0.437,4.113,0.834,6.072
			c0.365,1.978,0.854,3.874,1.412,5.762c0.263,0.946,0.601,1.887,0.912,2.835c0.373,1.021,0.648,1.735,1.271,3.167l0.497,1.132
			l0.447,0.663l9.48,13.923l9.683,13.786c6.553,9.133,13.173,18.21,19.995,27.162c6.8,8.958,13.793,17.791,20.945,26.514
			c1.01,1.228,2.067,2.418,3.09,3.635c-2.32-0.362-4.692-0.483-7.063-0.31c-3.563,0.253-7.057,1.207-10.301,2.589
			c-1.656,0.67-3.146,1.562-4.665,2.436c-0.75,0.443-1.434,0.961-2.153,1.443l-1.053,0.745l-0.268,0.187l-0.828,0.772l-0.389,0.363
			l-1.551,1.44c-0.762,0.893-1.634,2.108-2.365,3.232c-0.848,1.231-1.205,2.196-1.643,3.231c-0.409,1.03-0.905,2.104-1.093,3.118
			c-1.218,4.246-1.121,8.117-0.88,11.813c0.756,7.278,2.815,13.521,5.435,19.551c0.351,0.77,0.677,1.497,1.08,2.308l0.327,0.636
			l0.412,0.746l0.514,0.941l2.111,3.802l4.332,7.515c2.946,4.977,5.897,9.943,9.011,14.871c1.512,2.479,3.095,4.945,4.776,7.389
			c1.674,2.449,3.211,4.891,5.107,7.354l2.735,3.688l1.376,1.846l1.703,1.938l3.462,3.864l0.437,0.48l0.224,0.236l0.11,0.126
			l0.611,0.528l0.795,0.689l1.614,1.397c1.551,1.148,3.41,2.514,4.803,3.387c1.362,0.83,2.782,1.762,4.105,2.494
			c2.685,1.56,5.297,2.955,7.884,4.312l14.86,7.678c4.723,2.535,9.331,5.016,13.316,7.668c3.545,2.336,6.658,4.979,8.263,6.983
			c4.456,7.897,9.022,15.732,13.556,23.588l14.01,24.146l7.199,12.398l12.554-6.925l30.231-16.684l30.114-16.912
			c10.051-5.604,20.007-11.391,30.008-17.1c9.999-5.699,19.964-11.488,29.9-17.313l13.923-8.167l-9.513-13.34L582.94,763.939z
			 M308.16,540.998c0,0.004-0.011,0.014-0.017,0.019l0.012-0.008L308.16,540.998z M535.417,777.271
			c-10.112,5.497-20.268,10.915-30.324,16.51l-30.229,16.706l-17.858,10.044l-6.984-11.48c-4.847-7.931-9.654-15.893-14.587-23.773
			l-0.601-0.959l-0.239-0.296c-5.544-6.965-11.322-10.75-16.791-14.191c-5.505-3.316-10.86-5.956-16.15-8.386l-15.349-6.864
			c-2.431-1.104-4.815-2.217-7.043-3.339l-5.409-2.905l-1.673-1.24l-0.625-0.469l-0.021-0.021l-0.292-0.289l-2.339-2.295l-1.2-1.147
			l-1.265-1.48l-2.534-2.958c-1.711-1.899-3.361-4.154-5.037-6.27c-1.68-2.126-3.362-4.285-5.003-6.524
			c-3.337-4.393-6.581-8.924-9.818-13.47l-4.788-6.859l-2.377-3.423l-0.607-0.88l-0.149-0.221l-0.041-0.053
			c-0.022-0.036,0.041,0.075,0.084,0.142l-0.024-0.034l-0.195-0.296l-0.887-1.474c-2.378-4.176-4.301-8.79-5.141-12.857
			c-0.346-1.957-0.63-3.928-0.382-5.247c-0.027-0.415,0.129-0.635,0.181-0.949c0.059-0.301,0.117-0.711,0.117-0.639
			c0.034-0.067-0.145-0.102-0.106-0.37l1.376-1.611l0.345-0.407l0.02-0.025l0.287-0.249c0.404-0.355,0.802-0.757,1.218-1.08
			c0.855-0.618,1.688-1.305,2.587-1.791c1.76-1.083,3.615-1.929,5.577-2.375c1.961-0.449,4.028-0.583,6.085-0.331
			c2.019,0.266,4.223,0.896,5.46,1.666c0.599,0.712,1.205,1.281,1.959,2.006l2.707,3.146c1.823,2.073,3.588,4.257,5.42,6.412
			l10.893,13.001c7.186,8.766,14.501,17.446,21.866,26.114c-5.389-10.093-10.921-20.086-16.678-29.942l-8.7-14.786
			c-1.438-2.471-2.988-4.885-4.579-7.332l-2.374-3.661c-1.055-1.443-2.318-2.987-3.557-4.431c-0.309-0.258-0.619-0.446-0.923-0.68
			c-2.118-4.889-4.271-9.753-6.516-14.551c-4.816-10.289-9.793-20.464-14.967-30.521c-5.146-10.061-10.496-19.992-15.918-29.875
			l-8.272-14.726l-7.599-13.089c-0.066-0.243-0.174-0.589-0.251-0.838c-0.135-0.523-0.305-1.021-0.423-1.564
			c-0.261-1.058-0.49-2.144-0.62-3.187c-0.177-1.06-0.235-2.076-0.279-3.053c-0.033-0.98,0.012-1.886,0.097-2.731
			c0.144-0.791,0.202-1.63,0.435-2.236c0.119-0.712,0.425-1.209,0.606-1.769c0.125-0.254,0.307-0.447,0.424-0.691l0.169-0.34
			c0.034,0.005,0.053,0.005,0.059-0.004c0.085-0.064-0.182,0.037,0.078-0.283l1.675-1.524l0.108-0.096l0.4-0.247
			c0.325-0.21,0.638-0.434,0.951-0.671c0.697-0.227,1.264-0.771,1.968-0.927c0.645-0.312,1.355-0.453,2.059-0.643
			c0.749-0.096,1.474-0.283,2.299-0.254c0.788-0.068,1.657,0.021,2.521,0.1c0.881,0.099,1.786,0.288,2.712,0.495
			c0.933,0.236,1.87,0.492,2.782,0.838c0.078,0.026,0.146,0.061,0.22,0.088c6.067,9.108,12.238,18.139,18.557,27.074
			c3.524,5.039,7.109,10.033,10.744,14.989c3.588,4.992,7.303,9.905,10.984,14.828c3.708,4.915,7.474,9.789,11.265,14.643
			c3.811,4.841,7.663,9.658,11.577,14.43c3.915,4.771,7.896,9.5,11.989,14.157c2.052,2.321,4.014,4.703,6.136,6.975
			c2.105,2.291,4.165,4.611,6.339,6.846c-1.107-2.956-2.345-5.827-3.53-8.733c-1.161-2.923-2.491-5.728-3.726-8.594
			c-2.496-5.73-5.096-11.387-7.761-16.996c-0.593-1.241-1.211-2.461-1.804-3.699c0.202-0.584,0.409-1.186,0.613-1.74
			c0.449-1.161,0.833-2.285,1.359-3.348c0.418-1.073,0.913-2.096,1.434-3.047c0.502-0.973,1.043-1.859,1.571-2.697
			c0.573-0.814,1.087-1.612,1.688-2.285c0.58-0.697,1.139-1.319,1.758-1.859c0.554-0.569,1.263-1.056,1.786-1.45
			c0.24-0.121,0.462-0.238,0.664-0.378c0.15-0.09,0.099-0.098,0.391-0.265l0.783-0.453l1.537-0.953l0.053-0.028l0.019-0.014
			c-0.951,0.659-0.26,0.18-0.47,0.326l0.012-0.003l0.066-0.025l0.138-0.063l0.272-0.112l0.542-0.246
			c0.697-0.412,1.374-0.562,2.024-0.89c0.653-0.195,1.285-0.516,1.919-0.651c0.629-0.251,1.281-0.317,1.953-0.493
			c1.347-0.224,2.86-0.217,4.436,0.15c0.783,0.178,1.592,0.446,2.353,0.799c0.555,0.24,1.271,0.677,1.676,0.902l6.771,10.515
			l7.921,11.862c5.367,7.859,10.722,15.724,16.344,23.439l1.46-0.832c-3.349-9.005-6.971-17.861-10.581-26.722l-5.102-12.171
			c0.104-0.254,0.183-0.471,0.299-0.743c1.175-2.802,3.109-6.539,5.76-9.059c0.718-0.591,1.338-1.211,2.118-1.647
			c0.364-0.319,0.678-0.418,0.938-0.509c0.129-0.059,0.261-0.109,0.371-0.188c0.098-0.073,0.598-0.32,0.879-0.478
			c1.956-0.948,3.742-1.424,4.861-1.514c1.106-0.118,2.111-0.351,3.903,0.397c0.827,0.342,1.785,1.053,2.462,1.647h0.044
			c0-0.02,0.036,0.015,0.073,0.066l0.026,0.034c0.144,0.245-0.169-0.303-0.129-0.232l0.045,0.069l0.396,0.539l0.755,1.097
			l1.514,2.189c3.986,5.877,7.903,11.795,11.781,17.228c3.805,5.473,7.445,10.52,10.567,14.856
			c6.262,8.645,10.605,14.307,10.605,14.307l1.447-0.864c-0.007,0-2.632-6.69-6.833-16.573c-2.117-4.931-4.583-10.688-7.318-16.799
			c-1.207-2.78-2.501-5.627-3.825-8.498c0.125-1.742,0.325-3.463,0.717-5.117c0.628-2.5,1.531-4.876,2.905-6.762
			c0.295-0.506,0.742-0.887,1.089-1.333c0.354-0.473,0.75-0.821,1.14-1.094c0.444-0.311,0.626-0.612,1.217-0.948l1.754-1.008
			c1.752-0.724,4.177-1.542,6.094-1.401c1.995,0.067,3.81,0.692,5.465,1.778c1.635,1.096,3.131,2.663,4.365,4.377
			c0.281,0.413,0.62,0.923,0.776,1.238l0.053,0.106l0.064,0.115c-0.077-0.131,0.208,0.367-0.17-0.279l0.024,0.058l0.215,0.47
			l0.42,0.934l1.67,3.745l13.287,29.969l13.368,29.85l6.567,14.901l6.134,14.341l2.892,7.675l0.367,0.96l0.174,0.484l0.045,0.115
			c-0.032-0.079-0.051-0.14-0.115-0.306l0.005,0.046l0.023,0.098l0.306,1.515l0.683,2.997c0.329,2.113,0.459,4.392,0.697,6.598
			c-0.029,2.401,0.089,4.702-0.015,7.159c-0.224,4.927-0.711,9.963-1.302,15.297c-0.558,5.037-1.362,11.502-1.761,16.695
			l-0.09,1.028l-0.027,0.576v0.355l0.006,0.717l0.047,2.864c0.072,1.898,0.026,3.887,0.403,5.64l0.932,5.405
			c0.44,1.711,0.96,3.382,1.46,5.075c0.359,1.325,0.854,2.536,1.348,3.749C547.516,770.784,541.444,773.986,535.417,777.271z"/>
		<path fill="#FFFFFF" d="M279.305,654.524c-3.277-0.788-6.568-1.435-9.878-1.937c-6.614-1.148-13.261-2.006-19.912-2.945
			c-3.33-0.456-6.661-0.95-10.002-1.201l-10.045-0.733c-0.684-0.049-1.373-0.077-2.056-0.117l0.74-0.041
			c2.554-0.129,5.118-0.367,7.668-0.407l7.669-0.252l7.694-0.283l7.688-0.085l7.72-0.143l7.724,0.083l7.761,0.012l7.764,0.229
			c2.582,0.117,5.241,0.017,7.801,0.199c2.566,0.162,5.18,0.188,7.791,0.296c2.608,0.027,5.247,0.28,7.93,0.416
			c2.672,0.129,5.331,0.311,8.021,0.357l0.793-3.335c-2.402-1.243-4.838-2.354-7.263-3.518c-2.403-1.2-4.873-2.19-7.422-3.178
			c-2.526-0.972-5.06-2.025-7.626-2.949c-2.574-0.97-5.128-1.74-7.714-2.552l-7.773-2.395l-7.858-1.985
			c-5.257-1.325-10.55-2.472-15.88-3.359l-7.998-1.425l-8.035-1.013l-8.054-0.975c-2.691-0.307-5.381-0.41-8.073-0.626
			c-5.382-0.34-10.795-0.804-16.178-0.812c-0.301-0.006-0.604-0.003-0.907-0.01c0-0.729-0.003-1.459-0.003-2.188
			c0.029-5.675-0.078-11.352-0.202-17.018c-0.199-5.669-0.384-11.339-0.782-17.007c-0.325-5.664-0.822-11.329-1.342-16.995
			c-1.046-11.325-2.582-22.637-4.021-33.949l-2.189-16.953c-0.692-5.646-1.334-11.3-1.915-16.944
			c-0.541-5.652-1.063-11.3-1.431-16.953c-0.419-5.65-0.681-11.306-0.896-16.961c-0.257-5.66-0.472-11.312-0.573-16.969
			c-0.119-5.659-0.191-11.313-0.153-16.975c0.028-11.326,0.362-22.656,0.934-34.003l1.327-22.106
			c1.114,0.075,2.234,0.143,3.328,0.23l12.709,1.101c8.464,0.829,16.893,1.825,25.279,2.831c8.378,1.061,16.714,2.261,24.956,3.797
			c8.249,1.493,16.387,3.363,24.393,5.47c4.021,0.997,7.951,2.238,11.896,3.386c3.91,1.236,7.819,2.451,11.623,3.865
			c3.858,1.321,7.598,2.793,11.345,4.273c3.686,1.57,7.369,3.126,10.952,4.816c3.609,1.629,7.069,3.514,10.501,5.363l5.096,2.853
			l4.878,3.103c1.668,0.99,3.11,2.219,4.717,3.273l2.359,1.631l2.21,1.775c1.53,1.148,2.963,2.377,4.364,3.638
			c0.496,10.08,1.037,20.155,1.714,30.24c0.846,12.735,1.835,25.474,3.016,38.214c0.605,6.364,1.192,12.736,1.923,19.105
			l2.195,19.11c0.873,6.366,1.628,12.733,2.592,19.103c0.946,6.371,1.92,12.738,3.122,19.107h3.336
			c1.192-6.369,2.175-12.736,3.113-19.107c0.971-6.369,1.726-12.736,2.6-19.103l2.197-19.11c0.728-6.369,1.314-12.741,1.92-19.105
			c1.175-12.74,2.17-25.479,3.017-38.214c0.854-12.742,1.524-25.475,2.112-38.214l0.293-6.443l-0.874-0.96
			c2.529-1.298,5.075-2.531,7.577-3.761l5.695-2.523c1.902-0.813,3.871-1.504,5.765-2.274c1.877-0.809,3.845-1.457,5.787-2.118
			c1.954-0.645,3.823-1.419,5.817-1.973l5.845-1.813l5.901-1.626c3.963-1.007,7.877-2.075,11.884-2.894
			c3.963-0.923,7.962-1.721,11.97-2.454c4.019-0.729,8.013-1.5,12.073-2.043c4.017-0.687,8.084-1.203,12.132-1.741l12.203-1.433
			l12.242-1.292l12.28-1.245l12.324-1.175l12.375-1.006c3.708-0.287,7.414-0.501,11.121-0.688c0.006,0.321,0.015,0.642,0.015,0.963
			l0.126,17.033l0.137,34.05c0.063,11.343,0.049,22.689,0.258,34.028l0.878,33.948l2.041,67.905
			c0.795,22.636,1.644,45.273,2.644,67.913l3.335,0.058c1.886-22.601,3.625-45.197,5.3-67.795l4.705-67.797l2.201-33.904
			c0.908-11.271,1.672-22.534,2.467-33.795l2.388-33.778l1.248-16.88c0.388-5.627,0.946-11.243,1.421-16.865l1.175-13.966
			l-14.797-1.748c-4.901-0.573-9.157-0.979-13.696-1.341c-4.469-0.345-8.934-0.615-13.402-0.816c-8.93-0.38-17.877-0.38-26.822,0.13
			c-8.939,0.519-17.872,1.563-26.744,3.135c-4.445,0.729-8.862,1.733-13.268,2.711c-4.396,1.127-8.782,2.207-13.139,3.51
			c-4.359,1.268-8.679,2.765-12.985,4.247c-4.281,1.614-8.544,3.252-12.738,5.12c-2.104,0.895-4.182,1.896-6.249,2.91
			c-2.064,1.023-4.15,1.937-6.156,3.11l-6.053,3.35c-1.994,1.175-3.935,2.453-5.896,3.667c-1.96,1.202-3.865,2.561-5.742,3.914
			c-1.881,1.353-3.766,2.678-5.562,4.173c-1.804,1.476-3.61,2.917-5.355,4.442l-5.083,4.768c-1.687,1.564-3.207,3.381-4.782,5.065
			c-0.782,0.81-1.522,1.666-2.241,2.545c-2.336-2.517-4.717-4.987-7.25-7.241l-2.784-2.583l-2.897-2.382
			c-1.949-1.563-3.856-3.239-5.91-4.606l-6.101-4.252l-6.247-3.881c-2.066-1.347-4.247-2.381-6.385-3.534
			c-2.149-1.142-4.292-2.276-6.482-3.255c-2.176-1.002-4.344-2.065-6.541-3.014l-6.639-2.63c-4.458-1.602-8.885-3.314-13.402-4.567
			c-4.487-1.387-9.01-2.526-13.518-3.675c-4.529-1.016-9.057-2.035-13.59-2.826c-9.057-1.702-18.141-2.919-27.197-3.818
			c-9.062-0.884-18.101-1.534-27.137-1.771c-9.029-0.286-18.059-0.042-27.051,0.563c-4.501,0.262-8.993,0.634-13.483,1.154
			c-4.54,0.521-8.876,1.06-13.646,1.813l-11.141,1.763l1.225,9.655l4.288,33.767c1.318,11.267,2.4,22.536,3.179,33.823
			c0.41,5.641,0.71,11.284,0.967,16.937c0.264,5.644,0.453,11.297,0.525,16.949c0.007,5.658-0.033,11.303-0.233,16.961
			c-0.146,5.655-0.446,11.315-0.769,16.971c-0.355,5.662-0.778,11.319-1.246,16.98l-1.529,16.974
			c-0.993,11.307-2.087,22.608-2.686,33.9c-0.308,5.642-0.582,11.287-0.687,16.927c-0.174,5.641-0.137,11.286-0.113,16.921
			c0.095,5.64,0.208,11.28,0.459,16.918c0.216,5.642,0.397,11.278,0.727,16.917l0.772,13.228l-4.093,0.357
			c-3.366,0.287-6.724,0.631-10.098,1.148l-10.097,1.469c-0.115,0.022-0.224,0.041-0.336,0.063
			c-0.589-7.064-1.278-14.123-2.192-21.182c-1.323-10.706-2.897-21.402-3.922-32.12c-1.08-10.713-1.631-21.44-1.631-32.182
			c0-5.368,0.217-10.749,0.549-16.127c0.392-5.384,0.807-10.764,1.348-16.151c1.03-10.771,2.05-21.542,2.148-32.284
			c0.111-10.745-0.532-21.467-1.216-32.191c-0.756-10.728-1.797-21.437-3.245-32.138c-0.717-5.349-1.536-10.7-2.515-16.043
			c-0.897-5.35-2.028-10.687-3.358-16.021l-2,0.052c-1.053,5.399-1.903,10.794-2.525,16.184c-0.696,5.39-1.241,10.773-1.679,16.162
			c-0.894,10.763-1.377,21.517-1.579,32.271c-0.13,10.741-0.214,21.487,0.45,32.209c0.658,10.723,2.228,21.421,3.818,32.121
			c0.821,5.347,1.515,10.702,2.184,16.056c0.611,5.355,1.108,10.706,1.384,16.074c0.558,10.727,0.558,21.47,0.035,32.224
			c-0.467,10.755-1.484,21.524-2.254,32.294c-0.833,10.763-1.268,21.515-1.381,32.261l-0.112,10.474l10.98-1.386
			c2.815-0.354,6.215-0.573,9.31-0.862l9.649-0.537c6.425-0.401,12.952-0.362,19.4-0.737c3.231-0.162,6.491-0.101,9.736-0.246
			c3.248-0.086,6.495-0.197,9.741-0.385c6.489-0.375,13.024-0.354,19.546-0.67l9.798-0.457c3.271-0.206,6.542-0.12,9.821-0.289
			c6.559-0.221,13.125-0.366,19.729-0.798c3.301-0.263,6.591-0.209,9.902-0.36l9.929-0.393c6.647-0.381,13.304-0.758,20.041-1.56
			l0.227-2.045c-6.442-2.056-12.952-3.69-19.48-5.335L279.305,654.524z"/>
		<path fill="#FFFFFF" d="M631.568,565.765c-0.248-10.748-0.313-21.494-0.436-32.238c-0.097-10.748-0.229-21.486-0.456-32.238
			l-0.675-32.244c-0.604-21.501-1.013-42.994-1.839-64.506l-2.001-0.052c-1.949,21.429-3.468,42.87-5.181,64.311l-2.34,32.159
			c-0.795,10.721-1.472,21.442-2.129,32.168c-0.677,10.727-1.299,21.449-2.105,32.168c-0.785,10.724-1.875,21.434-2.501,32.156
			c-0.28,5.364-0.49,10.733-0.54,16.102c-0.028,5.371-0.021,10.741,0.155,16.121c0.137,5.373,0.358,10.75,0.656,16.127
			c0.166,2.958,0.347,5.919,0.563,8.88c-0.222-0.004-0.441-0.016-0.663-0.021l-9.462,0.593c-6.302,0.576-12.553,1.103-18.784,2.185
			l-0.104,2.059c6.036,2.121,12.03,3.688,17.989,5.308l8.919,2.175c2.872,0.855,5.733,1.62,8.57,2.416l7.074,1.997l1.37-9.053
			c0.799-5.35,1.398-10.701,1.981-16.056c0.576-5.356,1.078-10.712,1.488-16.074c0.449-5.362,0.744-10.721,0.988-16.085
			c0.231-5.363,0.301-10.737,0.301-16.107C632.339,587.27,631.802,576.512,631.568,565.765z"/>
	</g>
</g>
</svg>
