<svg version="1.1" id="Calque_1" xmlns="http://www.w3.org/2000/svg" xmlns:xlink="http://www.w3.org/1999/xlink"
	viewBox="0 0 148.635 150.083" enable-background="new 0 0 148.635 150.083" xml:space="preserve">
<g>
	<path fill="#005AA1" d="M134.062,121.749c-0.081-0.106-0.162-0.233-0.243-0.363c-0.169-0.249-0.325-0.508-0.468-0.78
		c-0.158-0.265-0.299-0.534-0.414-0.808c-0.118-0.271-0.275-0.543-0.35-0.813l-0.289-0.807c-0.055-0.26-0.115-0.519-0.182-0.777
		c-0.096-0.268-0.065-0.496-0.098-0.739l-0.041-0.363l-0.012-0.091l-0.007-0.046l-0.001-0.012c0-0.021-0.01,0.149-0.006,0.068
		l0.002-0.037l0.011-0.3c0.044-1.679,0.15-2.974,0.248-4.691c0.105-1.632,0.143-3.355,0.099-5.116
		c-0.025-0.881-0.127-1.807-0.193-2.704c-0.155-0.937-0.291-1.866-0.52-2.81l-0.445-1.436l-0.234-0.711l-0.016-0.045l-0.071-0.182
		l-0.033-0.067l-0.065-0.134l-0.133-0.27l-1.059-2.154l-2.408-4.418l-2.427-4.179c-1.629-2.77-3.293-5.516-4.978-8.243
		c-1.68-2.733-3.422-5.428-5.145-8.134l-0.648-1.014l-0.163-0.252l-0.081-0.127l-0.08-0.128l-0.021-0.03l-0.07-0.091
		c-0.182-0.237-0.333-0.397-0.507-0.583c-0.684-0.695-1.478-1.295-2.423-1.682c-0.938-0.391-2.013-0.537-3.008-0.382l-0.729,0.161
		c-0.232,0.072-0.453,0.168-0.678,0.253c-0.229,0.077-0.424,0.202-0.627,0.313l-0.302,0.171l-0.22,0.13l-0.117,0.094l-0.469,0.376
		c-0.156,0.121-0.354,0.354-0.519,0.528c-0.183,0.188-0.332,0.381-0.442,0.582c-0.117,0.201-0.262,0.388-0.348,0.6
		c-0.408,0.83-0.543,1.717-0.592,2.562c0,0.008,0.001,0.016,0.001,0.024c-0.236-0.492-0.471-0.981-0.706-1.476l-0.33-0.71
		l-0.164-0.354l-0.078-0.18l-0.01-0.022l-0.053-0.087l-0.005-0.012l-0.033-0.061l-0.097-0.159c-0.412-0.661-0.85-1.202-1.42-1.718
		c-0.565-0.503-1.247-0.952-2.025-1.236c-0.779-0.286-1.634-0.393-2.431-0.328c-1.619,0.137-2.845,0.861-3.708,1.605l-0.279,0.246
		l-0.378,0.381c-0.251,0.256-0.476,0.514-0.628,0.754c-0.342,0.486-0.596,0.994-0.787,1.488c-0.084,0.221-0.147,0.437-0.203,0.65
		l-0.064-0.142l-0.266-0.264c-0.451-0.447-0.744-0.684-1.141-0.978c-0.383-0.266-0.774-0.526-1.2-0.746
		c-0.423-0.222-0.873-0.417-1.347-0.569c-0.473-0.16-0.973-0.26-1.482-0.338c-0.514-0.049-1.033-0.061-1.55-0.006
		c-0.521,0.033-1.016,0.177-1.503,0.317c-0.465,0.179-0.943,0.358-1.346,0.615l-0.309,0.188l-0.153,0.095l-0.077,0.048l-0.037,0.023
		l-0.16,0.107l-0.012,0.011l-0.408,0.352l-0.201,0.18l-0.281,0.282c-0.198,0.205-0.391,0.416-0.576,0.627
		c-0.307,0.426-0.579,0.818-0.791,1.26c-0.211,0.439-0.396,0.877-0.506,1.332c-0.136,0.445-0.197,0.9-0.241,1.342
		c-0.01,0.098-0.009,0.194-0.014,0.292c-0.825-1.588-1.657-3.172-2.508-4.743c-0.868-1.588-1.728-3.183-2.626-4.752
		c-0.881-1.58-1.779-3.148-2.697-4.705c-1.818-3.124-3.683-6.218-5.598-9.278l-0.464-0.741l-0.786-0.465
		c-0.441-0.261-0.646-0.361-0.948-0.512c-0.278-0.136-0.556-0.26-0.834-0.373c-0.556-0.232-1.126-0.422-1.71-0.592
		c-0.588-0.156-1.192-0.278-1.814-0.362c-0.626-0.073-1.26-0.132-1.915-0.109c-0.646-0.008-1.317,0.082-1.974,0.183
		c-0.662,0.133-1.32,0.289-1.957,0.537c-0.65,0.206-1.238,0.543-1.838,0.852l-0.826,0.552l-0.406,0.284l-0.025,0.018l-0.26,0.215
		l-0.031,0.027l-0.063,0.057l-0.123,0.113l-0.496,0.449c-0.23,0.229-0.574,0.622-0.836,0.943l-0.405,0.52
		c-0.108,0.162-0.195,0.314-0.292,0.475c-0.183,0.318-0.377,0.636-0.531,0.964c-0.285,0.663-0.553,1.339-0.697,2.011
		c-0.192,0.678-0.238,1.334-0.297,1.986c-0.035,0.646-0.027,1.275,0.024,1.883c0.054,0.604,0.131,1.197,0.25,1.768
		c0.109,0.575,0.255,1.128,0.423,1.678c0.078,0.275,0.181,0.549,0.273,0.824c0.112,0.298,0.193,0.506,0.381,0.923l0.148,0.329
		l0.135,0.193l2.843,4.053l2.902,4.014c1.964,2.659,3.949,5.302,5.994,7.907c2.038,2.608,4.135,5.18,6.279,7.72
		c0.302,0.356,0.619,0.703,0.925,1.058c-0.695-0.105-1.406-0.141-2.117-0.09c-1.067,0.073-2.115,0.352-3.088,0.754
		c-0.496,0.195-0.943,0.454-1.398,0.709c-0.225,0.129-0.429,0.279-0.644,0.42l-0.317,0.217l-0.08,0.055l-0.248,0.225l-0.116,0.105
		l-0.465,0.42c-0.229,0.26-0.491,0.613-0.71,0.94c-0.254,0.358-0.361,0.64-0.492,0.941c-0.123,0.3-0.271,0.612-0.327,0.907
		c-0.366,1.236-0.337,2.363-0.265,3.438c0.228,2.12,0.845,3.938,1.63,5.692c0.104,0.224,0.202,0.436,0.323,0.672l0.098,0.186
		l0.123,0.217l0.154,0.273l0.634,1.107l1.299,2.188c0.882,1.449,1.767,2.895,2.7,4.33c0.453,0.721,0.929,1.439,1.433,2.15
		c0.501,0.713,0.963,1.424,1.531,2.141l0.82,1.074l0.412,0.537l0.509,0.564l1.039,1.125l0.132,0.14l0.065,0.069l0.033,0.035
		l0.184,0.154l0.238,0.201l0.485,0.406c0.465,0.334,1.021,0.732,1.438,0.987c0.408,0.241,0.834,0.513,1.23,0.726
		c0.806,0.453,1.588,0.859,2.363,1.255l4.455,2.234c1.416,0.738,2.797,1.461,3.992,2.233c1.063,0.679,1.997,1.448,2.477,2.032
		c1.336,2.3,2.705,4.581,4.064,6.868l4.199,7.028l2.158,3.61l3.765-2.017l9.063-4.856l9.026-4.924
		c3.014-1.631,5.998-3.316,8.996-4.979c2.999-1.658,5.984-3.344,8.963-5.04l4.174-2.378l-2.851-3.883L134.062,121.749z
		 M51.689,56.845c-0.001,0.001-0.004,0.004-0.006,0.005l0.003-0.002L51.689,56.845z M119.816,125.629
		c-3.032,1.6-6.076,3.177-9.091,4.807l-9.062,4.863l-5.354,2.924l-2.093-3.342c-1.454-2.31-2.896-4.627-4.374-6.922l-0.18-0.279
		l-0.071-0.086c-1.662-2.027-3.396-3.13-5.034-4.131c-1.65-0.966-3.256-1.734-4.841-2.441l-4.603-1.998
		c-0.729-0.322-1.443-0.646-2.111-0.973l-1.621-0.846l-0.502-0.361l-0.187-0.137l-0.006-0.006l-0.087-0.084l-0.702-0.668
		l-0.358-0.334l-0.379-0.432l-0.761-0.861c-0.513-0.553-1.008-1.209-1.51-1.824c-0.503-0.619-1.008-1.248-1.5-1.9
		c-1-1.278-1.973-2.598-2.942-3.921l-1.437-1.997l-0.713-0.996l-0.182-0.256l-0.045-0.064l-0.011-0.016
		c-0.007-0.01,0.012,0.021,0.024,0.041l-0.008-0.01l-0.058-0.086l-0.266-0.43c-0.714-1.215-1.29-2.559-1.542-3.742
		c-0.104-0.569-0.189-1.144-0.114-1.527c-0.009-0.121,0.038-0.186,0.054-0.277c0.018-0.088,0.035-0.206,0.036-0.186
		c0.009-0.02-0.043-0.029-0.032-0.107l0.412-0.47l0.104-0.118l0.006-0.008l0.085-0.072c0.122-0.104,0.24-0.221,0.366-0.314
		c0.255-0.18,0.506-0.38,0.774-0.521c0.527-0.315,1.084-0.563,1.673-0.691c0.587-0.131,1.206-0.17,1.824-0.096
		c0.604,0.076,1.265,0.261,1.636,0.484c0.18,0.207,0.361,0.373,0.588,0.584l0.812,0.916c0.547,0.604,1.075,1.238,1.624,1.866
		l3.266,3.786c2.154,2.551,4.348,5.078,6.555,7.602c-1.615-2.938-3.273-5.848-4.999-8.717l-2.608-4.305
		c-0.432-0.72-0.896-1.422-1.373-2.135l-0.71-1.066c-0.316-0.42-0.695-0.87-1.067-1.289c-0.092-0.075-0.185-0.13-0.277-0.198
		c-0.634-1.423-1.28-2.839-1.952-4.236c-1.444-2.995-2.937-5.958-4.486-8.884c-1.544-2.93-3.147-5.821-4.771-8.698l-2.48-4.287
		l-2.277-3.81c-0.021-0.071-0.054-0.172-0.077-0.245c-0.041-0.152-0.092-0.298-0.126-0.455c-0.078-0.309-0.146-0.624-0.187-0.928
		c-0.052-0.309-0.07-0.604-0.083-0.889c-0.011-0.285,0.004-0.549,0.029-0.795c0.043-0.23,0.061-0.475,0.13-0.651
		c0.036-0.207,0.127-0.352,0.182-0.515c0.037-0.074,0.093-0.13,0.127-0.201l0.051-0.1c0.01,0.002,0.016,0.002,0.018-0.001
		c0.026-0.019-0.055,0.011,0.023-0.082l0.502-0.443l0.033-0.029l0.12-0.072c0.098-0.061,0.192-0.126,0.285-0.195
		c0.209-0.065,0.379-0.225,0.59-0.27c0.193-0.091,0.406-0.133,0.618-0.188c0.224-0.027,0.44-0.082,0.688-0.073
		c0.236-0.021,0.496,0.007,0.756,0.028c0.265,0.029,0.535,0.084,0.813,0.145c0.278,0.068,0.561,0.144,0.834,0.244
		c0.023,0.008,0.043,0.017,0.066,0.025c1.818,2.651,3.668,5.281,5.563,7.882c1.056,1.467,2.13,2.921,3.221,4.364
		c1.075,1.453,2.188,2.882,3.293,4.316c1.11,1.431,2.239,2.85,3.377,4.263c1.142,1.41,2.296,2.813,3.47,4.201
		c1.175,1.389,2.367,2.766,3.594,4.121c0.615,0.676,1.203,1.369,1.841,2.031c0.631,0.666,1.247,1.341,1.9,1.992
		c-0.333-0.86-0.703-1.696-1.059-2.542c-0.349-0.851-0.747-1.667-1.118-2.503c-0.747-1.668-1.527-3.314-2.326-4.947
		c-0.177-0.361-0.363-0.717-0.541-1.077c0.062-0.17,0.123-0.345,0.185-0.507c0.134-0.338,0.25-0.665,0.407-0.975
		c0.125-0.313,0.274-0.609,0.431-0.887c0.15-0.282,0.312-0.541,0.471-0.785c0.171-0.237,0.325-0.47,0.505-0.665
		c0.174-0.203,0.342-0.385,0.528-0.541c0.165-0.166,0.378-0.308,0.534-0.422c0.073-0.035,0.14-0.07,0.2-0.111
		c0.044-0.025,0.028-0.027,0.116-0.076l0.234-0.133l0.462-0.276l0.015-0.009l0.006-0.004c-0.284,0.191-0.077,0.053-0.14,0.095
		l0.003-0.001l0.02-0.008l0.041-0.018l0.082-0.033l0.162-0.07c0.209-0.121,0.412-0.164,0.607-0.26
		c0.195-0.057,0.385-0.15,0.575-0.189c0.189-0.074,0.384-0.092,0.586-0.144c0.403-0.065,0.856-0.063,1.329,0.044
		c0.235,0.052,0.477,0.129,0.705,0.232c0.166,0.07,0.382,0.197,0.502,0.263l2.029,3.061l2.375,3.453
		c1.61,2.288,3.215,4.578,4.901,6.824l0.438-0.242c-1.005-2.621-2.091-5.199-3.173-7.779l-1.528-3.543
		c0.031-0.074,0.055-0.138,0.09-0.217c0.351-0.815,0.931-1.903,1.726-2.638c0.215-0.172,0.4-0.352,0.636-0.479
		c0.108-0.094,0.202-0.121,0.28-0.148c0.04-0.017,0.078-0.032,0.111-0.055c0.029-0.021,0.18-0.094,0.264-0.139
		c0.587-0.277,1.122-0.415,1.458-0.44c0.331-0.035,0.633-0.103,1.169,0.114c0.248,0.1,0.536,0.307,0.738,0.479h0.014
		c0-0.005,0.01,0.005,0.021,0.021l0.008,0.01c0.044,0.07-0.051-0.088-0.039-0.067l0.015,0.02l0.118,0.157l0.227,0.318l0.453,0.639
		c1.195,1.711,2.369,3.434,3.531,5.015c1.141,1.594,2.233,3.063,3.168,4.324c1.877,2.518,3.181,4.166,3.18,4.166l0.434-0.252
		c-0.001,0-0.789-1.947-2.049-4.824c-0.635-1.436-1.372-3.112-2.193-4.891c-0.36-0.809-0.75-1.638-1.146-2.474
		c0.037-0.507,0.098-1.008,0.216-1.49c0.187-0.728,0.458-1.419,0.87-1.969c0.089-0.147,0.223-0.258,0.327-0.388
		c0.105-0.138,0.224-0.239,0.342-0.318c0.132-0.091,0.187-0.179,0.364-0.276l0.525-0.293c0.525-0.211,1.252-0.449,1.826-0.408
		c0.599,0.02,1.143,0.202,1.639,0.518c0.49,0.319,0.938,0.775,1.309,1.274c0.084,0.12,0.186,0.269,0.232,0.36l0.016,0.031
		l0.02,0.033c-0.023-0.038,0.063,0.107-0.05-0.081l0.008,0.017l0.063,0.137l0.125,0.271l0.5,1.09l3.984,8.726l4.008,8.689
		l1.969,4.339l1.838,4.175l0.867,2.234l0.109,0.279l0.054,0.141l0.013,0.034c-0.009-0.023-0.016-0.041-0.035-0.09l0.002,0.014
		l0.006,0.028l0.092,0.441l0.205,0.871c0.1,0.615,0.14,1.28,0.21,1.922c-0.009,0.699,0.026,1.369-0.005,2.084
		c-0.066,1.435-0.213,2.902-0.39,4.453c-0.167,1.467-0.408,3.349-0.528,4.861l-0.027,0.299l-0.008,0.168v0.104l0.002,0.209
		l0.014,0.834c0.022,0.552,0.009,1.131,0.121,1.641l0.279,1.574c0.131,0.498,0.287,0.984,0.438,1.477
		c0.107,0.387,0.257,0.739,0.404,1.093C123.442,123.741,121.623,124.673,119.816,125.629z"/>
	<path fill="#005AA1" d="M43.039,89.895c-0.983-0.23-1.97-0.418-2.962-0.564c-1.983-0.334-3.975-0.584-5.969-0.857
		c-0.998-0.133-1.996-0.275-2.998-0.35l-3.012-0.213c-0.205-0.015-0.411-0.022-0.617-0.035l0.222-0.012
		c0.766-0.037,1.534-0.106,2.299-0.118l2.299-0.073l2.307-0.083l2.305-0.024l2.314-0.041l2.315,0.023l2.327,0.004l2.327,0.066
		c0.773,0.034,1.57,0.006,2.338,0.059c0.77,0.047,1.553,0.055,2.336,0.086c0.782,0.008,1.573,0.082,2.377,0.121
		c0.801,0.037,1.598,0.09,2.404,0.104l0.238-0.971c-0.721-0.361-1.451-0.686-2.178-1.023c-0.721-0.35-1.461-0.639-2.225-0.925
		c-0.758-0.284-1.517-0.591-2.287-0.859c-0.771-0.282-1.537-0.506-2.313-0.743l-2.33-0.696l-2.355-0.577
		c-1.576-0.387-3.163-0.721-4.76-0.979l-2.397-0.416l-2.409-0.295l-2.414-0.283c-0.807-0.089-1.613-0.119-2.42-0.182
		c-1.613-0.1-3.236-0.234-4.85-0.236c-0.091-0.002-0.182-0.001-0.272-0.003c0-0.213-0.001-0.425-0.001-0.638
		c0.009-1.651-0.023-3.304-0.061-4.954c-0.06-1.65-0.115-3.301-0.234-4.95c-0.098-1.649-0.246-3.299-0.402-4.948
		c-0.313-3.297-0.773-6.59-1.205-9.883L20.12,49.49c-0.207-1.645-0.4-3.289-0.574-4.934c-0.162-1.645-0.318-3.289-0.429-4.936
		c-0.126-1.645-0.204-3.291-0.269-4.938c-0.077-1.647-0.142-3.292-0.172-4.94c-0.035-1.646-0.057-3.293-0.046-4.941
		c0.009-3.297,0.108-6.597,0.28-9.899l0.398-6.436c0.333,0.022,0.669,0.042,0.998,0.068l3.81,0.32
		c2.537,0.24,5.064,0.53,7.578,0.824c2.512,0.309,5.011,0.658,7.481,1.105c2.473,0.435,4.913,0.979,7.312,1.592
		c1.205,0.291,2.383,0.652,3.566,0.986c1.172,0.359,2.344,0.713,3.484,1.125c1.156,0.385,2.278,0.813,3.4,1.244
		c1.106,0.457,2.209,0.91,3.283,1.401c1.082,0.476,2.119,1.022,3.148,1.562l1.527,0.831l1.463,0.903
		c0.501,0.289,0.932,0.646,1.414,0.952l0.707,0.476l0.662,0.518c0.459,0.333,0.889,0.691,1.309,1.058
		c0.148,2.935,0.311,5.868,0.513,8.803c0.254,3.708,0.552,7.417,0.904,11.125c0.182,1.854,0.357,3.708,0.576,5.563l0.658,5.563
		c0.262,1.854,0.488,3.707,0.778,5.562c0.282,1.854,0.576,3.708,0.935,5.563h1c0.358-1.854,0.652-3.708,0.935-5.563
		c0.29-1.854,0.517-3.708,0.778-5.562l0.658-5.563c0.219-1.854,0.395-3.709,0.576-5.563c0.353-3.709,0.65-7.417,0.904-11.125
		c0.256-3.709,0.457-7.416,0.633-11.125l0.088-1.875l-0.262-0.28c0.758-0.377,1.522-0.736,2.271-1.095l1.707-0.734
		c0.57-0.236,1.16-0.438,1.729-0.662c0.563-0.235,1.153-0.424,1.735-0.617c0.586-0.188,1.146-0.412,1.743-0.574l1.752-0.527
		l1.771-0.474c1.187-0.293,2.36-0.604,3.562-0.842c1.188-0.269,2.387-0.501,3.589-0.715c1.204-0.212,2.401-0.437,3.618-0.595
		c1.205-0.199,2.424-0.35,3.637-0.507l3.659-0.417l3.67-0.377l3.682-0.361l3.695-0.342l3.708-0.293
		c1.112-0.084,2.224-0.146,3.335-0.2c0.001,0.094,0.004,0.187,0.004,0.28l0.038,4.959l0.042,9.912
		c0.018,3.303,0.014,6.605,0.075,9.907l0.264,9.883l0.612,19.769c0.237,6.59,0.491,13.181,0.792,19.771l1,0.016
		c0.565-6.578,1.086-13.157,1.588-19.735l1.41-19.738l0.66-9.869c0.273-3.282,0.502-6.561,0.74-9.839l0.715-9.833l0.375-4.914
		c0.115-1.639,0.283-3.273,0.426-4.91l0.352-4.065l-4.436-0.509c-1.468-0.168-2.743-0.285-4.105-0.391
		c-1.34-0.1-2.678-0.18-4.018-0.238c-2.678-0.109-5.359-0.109-8.04,0.04s-5.358,0.453-8.019,0.911
		c-1.332,0.212-2.655,0.505-3.977,0.789c-1.317,0.328-2.633,0.643-3.939,1.021c-1.307,0.369-2.602,0.806-3.893,1.236
		c-1.282,0.471-2.56,0.947-3.818,1.491c-0.631,0.26-1.253,0.552-1.873,0.847c-0.619,0.299-1.244,0.564-1.846,0.906l-1.814,0.975
		c-0.598,0.342-1.18,0.714-1.767,1.068c-0.588,0.35-1.158,0.744-1.722,1.139c-0.564,0.395-1.129,0.779-1.668,1.215
		c-0.541,0.43-1.082,0.85-1.605,1.293l-1.523,1.389c-0.506,0.455-0.961,0.984-1.433,1.475c-0.234,0.236-0.457,0.484-0.673,0.74
		c-0.701-0.732-1.413-1.452-2.174-2.107l-0.834-0.752l-0.869-0.694c-0.583-0.454-1.156-0.942-1.771-1.341l-1.828-1.237l-1.873-1.13
		c-0.619-0.393-1.273-0.693-1.914-1.029c-0.644-0.332-1.287-0.663-1.942-0.947c-0.653-0.292-1.304-0.602-1.962-0.877l-1.99-0.766
		c-1.336-0.467-2.664-0.965-4.018-1.33c-1.346-0.403-2.7-0.735-4.053-1.07c-1.356-0.295-2.714-0.592-4.073-0.822
		c-2.716-0.495-5.438-0.85-8.153-1.111c-2.716-0.258-5.426-0.447-8.135-0.516c-2.707-0.084-5.413-0.012-8.109,0.164
		c-1.35,0.076-2.696,0.185-4.042,0.336c-1.361,0.152-2.661,0.309-4.091,0.528l-3.34,0.513l0.367,2.811l1.285,9.83
		c0.396,3.279,0.72,6.561,0.953,9.847c0.123,1.643,0.213,3.286,0.29,4.931c0.079,1.644,0.136,3.289,0.157,4.934
		c0.002,1.646-0.01,3.291-0.069,4.938c-0.044,1.646-0.134,3.294-0.23,4.94c-0.106,1.648-0.233,3.295-0.374,4.943l-0.458,4.94
		c-0.298,3.292-0.626,6.583-0.806,9.87c-0.092,1.643-0.174,3.286-0.205,4.928c-0.053,1.643-0.041,3.285-0.034,4.926
		c0.028,1.643,0.063,3.284,0.138,4.926c0.065,1.642,0.119,3.283,0.218,4.925l0.231,3.851l-1.227,0.104
		c-1.01,0.085-2.016,0.186-3.027,0.335l-3.027,0.428c-0.034,0.006-0.066,0.012-0.1,0.018c-0.177-2.056-0.383-4.111-0.658-6.166
		c-0.396-3.116-0.868-6.23-1.176-9.351c-0.323-3.119-0.489-6.242-0.489-9.369c0-1.563,0.065-3.129,0.165-4.695
		c0.117-1.566,0.242-3.133,0.404-4.701c0.309-3.135,0.614-6.271,0.645-9.398c0.032-3.129-0.16-6.25-0.365-9.372
		c-0.227-3.123-0.539-6.241-0.973-9.357c-0.215-1.557-0.461-3.114-0.754-4.67c-0.27-1.557-0.608-3.111-1.007-4.664l-0.6,0.016
		c-0.315,1.572-0.57,3.143-0.757,4.711c-0.209,1.569-0.372,3.137-0.504,4.705c-0.268,3.134-0.412,6.265-0.473,9.394
		c-0.039,3.128-0.064,6.257,0.135,9.378c0.197,3.122,0.668,6.236,1.145,9.352c0.246,1.557,0.454,3.115,0.654,4.674
		c0.184,1.559,0.332,3.117,0.415,4.68c0.167,3.122,0.167,6.25,0.011,9.381c-0.141,3.132-0.445,6.267-0.676,9.401
		c-0.25,3.133-0.38,6.264-0.414,9.393L1.52,95.235l3.291-0.403c0.844-0.104,1.863-0.167,2.791-0.251l2.893-0.156
		c1.926-0.117,3.883-0.105,5.815-0.215c0.969-0.047,1.946-0.029,2.919-0.072c0.974-0.024,1.947-0.057,2.92-0.111
		c1.945-0.109,3.904-0.104,5.859-0.195l2.938-0.133c0.98-0.061,1.961-0.035,2.944-0.084c1.966-0.064,3.935-0.107,5.914-0.233
		c0.99-0.075,1.977-0.06,2.969-0.104l2.977-0.113c1.992-0.111,3.989-0.222,6.008-0.454l0.068-0.596
		c-1.931-0.599-3.883-1.075-5.84-1.554L43.039,89.895z"/>
	<path fill="#005AA1" d="M148.641,64.054c-0.075-3.129-0.094-6.257-0.131-9.385c-0.029-3.129-0.068-6.256-0.138-9.386l-0.202-9.387
		c-0.18-6.259-0.303-12.517-0.552-18.779l-0.6-0.016c-0.583,6.238-1.039,12.48-1.552,18.722l-0.702,9.362
		c-0.237,3.121-0.441,6.243-0.638,9.365c-0.203,3.122-0.389,6.244-0.631,9.365c-0.236,3.121-0.563,6.239-0.751,9.361
		c-0.084,1.562-0.146,3.124-0.162,4.688c-0.008,1.563-0.006,3.127,0.047,4.692c0.041,1.564,0.107,3.13,0.197,4.695
		c0.049,0.861,0.104,1.723,0.168,2.585c-0.066-0.001-0.133-0.004-0.199-0.005l-2.836,0.172c-1.889,0.168-3.764,0.321-5.631,0.636
		l-0.031,0.6c1.809,0.618,3.605,1.073,5.393,1.544l2.674,0.635c0.862,0.249,1.72,0.471,2.569,0.703l2.121,0.581l0.409-2.636
		c0.241-1.557,0.421-3.115,0.596-4.674c0.173-1.56,0.323-3.119,0.446-4.68c0.135-1.561,0.223-3.121,0.297-4.683
		c0.068-1.562,0.09-3.126,0.089-4.689C148.871,70.315,148.711,67.183,148.641,64.054z"/>
</g>
</svg>
